<svg
        width="250"
        height="256"
        viewBox="0 0 250 256"
        fill="none"
        xmlns="http://www.w3.org/2000/svg"
        xmlns:cc="http://creativecommons.org/ns#"
        xmlns:dc="http://purl.org/dc/elements/1.1/"
        xmlns:rdf="http://www.w3.org/1999/02/22-rdf-syntax-ns#"
>
    <title>STC Hub Favicon</title>
    <metadata>
        <rdf:RDF>
            <cc:Work rdf:about="">
                <cc:license rdf:resource="http://creativecommons.org/licenses/by-nc-nd/4.0/"/>
                <dc:title>STC Hub Favicon</dc:title>
                <dc:description>The favicon for STCentral Hub</dc:description>
                <dc:date>2024/01/04</dc:date>
                <dc:rights>
                    <cc:Agent>
                        <dc:title>STC Hub</dc:title>
                    </cc:Agent>
                </dc:rights>
                <dc:publisher>
                    <cc:Agent>
                        <dc:title>STC Hub</dc:title>
                    </cc:Agent>
                </dc:publisher>
                <dc:creator>
                    <cc:Agent>
                        <dc:title>Chimbambu</dc:title>
                    </cc:Agent>
                </dc:creator>
                <dc:contributor>
                    <cc:Agent>
                        <dc:title>Nerilea Aeliren</dc:title>
                    </cc:Agent>
                </dc:contributor>
            </cc:Work>
        </rdf:RDF>
    </metadata>
    <path d="M152.448 103.622L19.9717 128.034L71.6919 52.0851L200.539 39.8789L152.448 103.622Z" fill="#697D7F"
          stroke="#1F1F1F"/>
    <path d="M75.7751 57.9621L34.9434 117.637L147.004 98.6493L186.021 48.0164L75.7751 57.9621Z" fill="#4A5759"
          stroke="#1F1F1F"/>
    <path d="M140.652 91.868L40.6145 109.499L75.7752 57.9621L172.864 49.3726L140.652 91.868Z" fill="#5A3814"
          stroke="#1F1F1F"/>
    <path d="M172.41 49.5986L140.652 91.642L139.532 88.9354C138.641 86.7823 137.98 84.5408 137.561 82.2485C137.203 80.2898 137.023 78.3027 137.023 76.3115V71.7347L137.074 71.2649C137.427 68.0076 138.264 64.8211 139.555 61.81L139.615 61.6993C141.385 58.4241 143.593 55.4053 146.178 52.7264C146.864 52.1613 147.704 51.8165 148.589 51.7371L172.41 49.5986Z"
          fill="#3E260D"/>
    <path d="M35.5 117.5L20 128L71.5 52L200 40L186 48L76 58L35.5 117.5Z" fill="#697D7F" stroke="#1F1F1F"/>
    <g filter="url(#filter0_i_112_279)">
        <path d="M38.5728 130.069L151.767 109.951L219.82 133.007L101.635 157.646L38.5728 130.069Z" fill="#4A5759"/>
    </g>
    <path d="M38.5728 130.069L151.767 109.951L219.82 133.007L101.635 157.646L38.5728 130.069Z" stroke="#1F1F1F"/>
    <path fill-rule="evenodd" clip-rule="evenodd"
          d="M19.9717 128.035L100.728 165.105L245 134.816L152.448 103.622L19.9717 128.035ZM39 130L101.5 157.5L220 133L151.5 110L39 130Z"
          fill="#94B0B3"/>
    <path d="M100.728 165.105L100.519 165.56L100.669 165.628L100.831 165.594L100.728 165.105ZM19.9717 128.035L19.8811 127.543L18.3262 127.829L19.7631 128.489L19.9717 128.035ZM245 134.816L245.103 135.305L246.899 134.928L245.16 134.342L245 134.816ZM152.448 103.622L152.608 103.149L152.485 103.107L152.357 103.131L152.448 103.622ZM101.5 157.5L101.299 157.958L101.445 158.022L101.601 157.99L101.5 157.5ZM39 130L38.9125 129.508L37.2938 129.796L38.7987 130.458L39 130ZM220 133L220.101 133.49L221.913 133.115L220.159 132.526L220 133ZM151.5 110L151.659 109.526L151.538 109.486L151.413 109.508L151.5 110ZM100.936 164.651L20.1803 127.58L19.7631 128.489L100.519 165.56L100.936 164.651ZM244.897 134.326L100.625 164.616L100.831 165.594L245.103 135.305L244.897 134.326ZM152.288 104.096L244.84 135.29L245.16 134.342L152.608 103.149L152.288 104.096ZM20.0623 128.526L152.539 104.114L152.357 103.131L19.8811 127.543L20.0623 128.526ZM101.701 157.043L39.2014 129.543L38.7987 130.458L101.299 157.958L101.701 157.043ZM219.899 132.511L101.399 157.011L101.601 157.99L220.101 133.49L219.899 132.511ZM151.341 110.474L219.841 133.474L220.159 132.526L151.659 109.526L151.341 110.474ZM39.0875 130.493L151.588 110.493L151.413 109.508L38.9125 129.508L39.0875 130.493Z"
          fill="#1F1F1F"/>
    <g filter="url(#filter1_d_112_279)">
        <path d="M214.47 134.321C208.505 149.88 191.056 157.658 175.496 151.693C159.937 145.727 152.159 128.278 158.124 112.719C164.089 97.1591 181.539 89.3814 197.098 95.3466C212.658 101.312 220.435 118.761 214.47 134.321Z"
              fill="#C0D0D2" stroke="#1F1F1F" stroke-width="0.5"/>
        <mask id="path-10-outside-1_112_279" maskUnits="userSpaceOnUse" x="148.902" y="111.417" width="65.2536"
              height="49.7083" fill="black">
            <rect fill="white" x="148.902" y="111.417" width="65.2536" height="49.7083"/>
            <path d="M212.336 133.503C211.025 136.923 209.053 140.05 206.533 142.708C204.013 145.365 200.995 147.501 197.65 148.992C194.305 150.483 190.699 151.3 187.038 151.398C183.377 151.495 179.733 150.87 176.313 149.559C172.894 148.248 169.766 146.277 167.109 143.757C164.451 141.237 162.316 138.219 160.825 134.874C159.334 131.529 158.516 127.923 158.419 124.262C158.322 120.601 158.946 116.957 160.257 113.537L186.296 123.52L212.336 133.503Z"/>
        </mask>
        <path d="M212.336 133.503C211.025 136.923 209.053 140.05 206.533 142.708C204.013 145.365 200.995 147.501 197.65 148.992C194.305 150.483 190.699 151.3 187.038 151.398C183.377 151.495 179.733 150.87 176.313 149.559C172.894 148.248 169.766 146.277 167.109 143.757C164.451 141.237 162.316 138.219 160.825 134.874C159.334 131.529 158.516 127.923 158.419 124.262C158.322 120.601 158.946 116.957 160.257 113.537L186.296 123.52L212.336 133.503Z"
              fill="#F76D06"/>
        <path d="M212.336 133.503C211.025 136.923 209.053 140.05 206.533 142.708C204.013 145.365 200.995 147.501 197.65 148.992C194.305 150.483 190.699 151.3 187.038 151.398C183.377 151.495 179.733 150.87 176.313 149.559C172.894 148.248 169.766 146.277 167.109 143.757C164.451 141.237 162.316 138.219 160.825 134.874C159.334 131.529 158.516 127.923 158.419 124.262C158.322 120.601 158.946 116.957 160.257 113.537L186.296 123.52L212.336 133.503Z"
              stroke="#F76D06" stroke-width="2" mask="url(#path-10-outside-1_112_279)"/>
        <path d="M185.723 93.4334L191.434 78.5373L191.325 78.2953C190.887 77.3232 190.856 76.2168 191.237 75.2215L192.718 71.3593C192.916 70.8436 193.494 70.5858 194.01 70.7835L194.355 70.9161L198.73 75.0447C199.08 75.375 199.486 75.6395 199.93 75.8254L203.938 77.5037L208.041 78.9348C208.495 79.0933 208.974 79.1685 209.455 79.1568L215.468 79.0104L215.814 79.143C216.33 79.3407 216.588 79.919 216.39 80.4347L214.909 84.2969C214.528 85.2922 213.765 86.0941 212.789 86.5245L212.547 86.6317L206.836 101.528L201.807 98.3281C201.581 98.1845 201.341 98.0638 201.092 97.968L196.733 96.297L192.374 94.626C192.124 94.5302 191.866 94.4597 191.602 94.4156L185.723 93.4334Z"
              fill="#C0D0D2"/>
        <path d="M191.434 78.5373L185.723 93.4334L191.602 94.4156C191.866 94.4597 192.124 94.5302 192.374 94.626L196.733 96.297L201.092 97.968C201.341 98.0638 201.581 98.1845 201.807 98.3281L206.836 101.528L212.547 86.6317M191.434 78.5373L191.325 78.2953C190.887 77.3232 190.856 76.2168 191.237 75.2215L192.718 71.3593C192.916 70.8436 193.494 70.5858 194.01 70.7835L194.355 70.9161L198.73 75.0447C199.08 75.375 199.486 75.6395 199.93 75.8254L203.938 77.5037L208.041 78.9348C208.495 79.0933 208.974 79.1685 209.455 79.1568L215.468 79.0104L215.814 79.143C216.33 79.3407 216.588 79.919 216.39 80.4347L214.909 84.2969C214.528 85.2922 213.765 86.0941 212.789 86.5245L212.547 86.6317M191.434 78.5373L195.664 81.49C195.93 81.6758 196.218 81.8286 196.521 81.9448L201.503 83.8547L206.485 85.7646C206.788 85.8808 207.104 85.9597 207.427 85.9995L212.547 86.6317"
              stroke="#1F1F1F" stroke-width="0.5" stroke-linecap="square"/>
        <rect x="187.699" y="90.1179" width="21.2958" height="5.07042" transform="rotate(20.976 187.699 90.1179)"
              fill="#C0D0D2"/>
        <path d="M195.432 71.3616L197.797 65.1937C197.995 64.6781 198.573 64.4203 199.089 64.618L216.159 71.1624C216.675 71.3601 216.932 71.9384 216.735 72.4541L214.37 78.622L209.668 79.0821C209.05 79.1426 208.426 79.0584 207.846 78.8361L203.994 77.359L200.141 75.8819C199.561 75.6596 199.041 75.3054 198.622 74.8473L195.432 71.3616Z"
              fill="#C0975E" stroke="#1F1F1F" stroke-width="0.5" stroke-linecap="round"/>
        <ellipse cx="200.71" cy="69.9912" rx="1.90141" ry="1.90141" transform="rotate(20.976 200.71 69.9912)"
                 fill="#554229"/>
        <circle cx="207.269" cy="75.9" r="2.53521" transform="rotate(20.976 207.269 75.9)" fill="#554229"/>
        <circle cx="213.088" cy="71.3432" r="1.26761" transform="rotate(20.976 213.088 71.3432)" fill="#554229"/>
        <path d="M195.432 71.3616L197.797 65.1937C197.995 64.6781 198.573 64.4203 199.089 64.618L216.159 71.1624C216.675 71.3601 216.932 71.9384 216.735 72.4541L214.37 78.622L209.668 79.0821C209.05 79.1426 208.426 79.0584 207.846 78.8361L203.994 77.359L200.141 75.8819C199.561 75.6596 199.041 75.3054 198.622 74.8473L195.432 71.3616Z"
              stroke="#1F1F1F" stroke-width="0.5" stroke-linecap="round"/>
        <path d="M158.528 112.9L168.35 114.358C169.505 114.53 170.637 114.827 171.728 115.245L176.03 116.895C178.349 117.784 180.429 119.201 182.106 121.033L183.383 122.429L187.7 122.954C188.279 123.025 188.865 123.032 189.445 122.975L191.482 122.776C193.252 122.602 195.03 123.024 196.534 123.974L198.772 125.388C199.373 125.768 199.921 126.227 200.401 126.751L203.504 130.143L206.201 129.879C208.102 129.693 210.006 130.193 211.57 131.289L213.427 132.59L212.973 133.773L203.504 130.143L183.383 122.429L158.528 112.9Z"
              fill="#F76D06"/>
        <path opacity="0.75"
              d="M175.257 111.464C170.225 115.935 167.509 121.103 165.224 118.532C162.939 115.961 165.547 108.563 170.579 104.092C175.611 99.621 182.579 97.9761 184.864 100.547C187.148 103.119 180.289 106.993 175.257 111.464Z"
              fill="#D9D9D9"/>
        <path d="M203.086 79.7266C202.71 80.7071 200.713 81.5317 197.444 80.2787C194.176 79.0256 192.058 76.6231 192.434 75.6426C192.81 74.6621 193.795 72.0917 196.439 75.8203C199.536 78.3651 203.462 78.746 203.086 79.7266Z"
              fill="#D9D9D9"/>
    </g>
    <g filter="url(#filter2_d_112_279)">
        <path d="M95.6341 123.145C100.047 136.287 92.971 150.519 79.8286 154.932C66.6863 159.345 52.4548 152.269 48.0415 139.126C43.6283 125.984 50.7047 111.752 63.847 107.339C76.9893 102.926 91.2209 110.002 95.6341 123.145Z"
              fill="#C0D0D2" stroke="#1F1F1F" stroke-width="0.5"/>
        <mask id="path-23-outside-2_112_279" maskUnits="userSpaceOnUse" x="48.4645" y="122.079" width="54.7276"
              height="40.2458" fill="black">
            <rect fill="white" x="48.4645" y="122.079" width="54.7276" height="40.2458"/>
            <path d="M93.8681 123.738C94.8396 126.631 95.2317 129.687 95.0221 132.732C94.8125 135.776 94.0053 138.75 92.6466 141.483C91.2878 144.215 89.4041 146.654 87.103 148.658C84.8019 150.663 82.1285 152.195 79.2354 153.166C76.3423 154.138 73.2862 154.53 70.2416 154.32C67.197 154.111 64.2234 153.304 61.4907 151.945C58.7581 150.586 56.3198 148.702 54.3151 146.401C52.3104 144.1 50.7786 141.427 49.8071 138.534L71.8376 131.136L93.8681 123.738Z"/>
        </mask>
        <path d="M93.8681 123.738C94.8396 126.631 95.2317 129.687 95.0221 132.732C94.8125 135.776 94.0053 138.75 92.6466 141.483C91.2878 144.215 89.4041 146.654 87.103 148.658C84.8019 150.663 82.1285 152.195 79.2354 153.166C76.3423 154.138 73.2862 154.53 70.2416 154.32C67.197 154.111 64.2234 153.304 61.4907 151.945C58.7581 150.586 56.3198 148.702 54.3151 146.401C52.3104 144.1 50.7786 141.427 49.8071 138.534L71.8376 131.136L93.8681 123.738Z"
              fill="#DBD327"/>
        <path d="M93.8681 123.738C94.8396 126.631 95.2317 129.687 95.0221 132.732C94.8125 135.776 94.0053 138.75 92.6466 141.483C91.2878 144.215 89.4041 146.654 87.103 148.658C84.8019 150.663 82.1285 152.195 79.2354 153.166C76.3423 154.138 73.2862 154.53 70.2416 154.32C67.197 154.111 64.2234 153.304 61.4907 151.945C58.7581 150.586 56.3198 148.702 54.3151 146.401C52.3104 144.1 50.7786 141.427 49.8071 138.534L71.8376 131.136L93.8681 123.738Z"
              stroke="#DBD327" stroke-width="2" mask="url(#path-23-outside-2_112_279)"/>
        <path d="M55.5087 112.104L51.2766 99.5017C50.3528 99.0465 49.6488 98.2414 49.3209 97.2651L48.3471 94.3652C48.1713 93.8417 48.4532 93.2747 48.9768 93.0989L49.1114 93.0537L53.9917 93.3785C54.4719 93.4105 54.9539 93.3555 55.4145 93.2163L58.7644 92.2039L62.0464 90.9893C62.4977 90.8223 62.9152 90.5752 63.2788 90.2599L66.974 87.0554L67.1086 87.0102C67.6321 86.8344 68.1991 87.1163 68.3749 87.6399L69.3487 90.5398C69.6765 91.5161 69.6011 92.5829 69.1392 93.5034L73.3712 106.106L68.5087 106.709C68.243 106.742 67.9814 106.802 67.7277 106.887L64.1037 108.104L60.4797 109.321C60.226 109.406 59.9814 109.517 59.7498 109.651L55.5087 112.104Z"
              fill="#C0D0D2"/>
        <path d="M51.2766 99.5017L55.5087 112.104L59.7498 109.651C59.9814 109.517 60.226 109.406 60.4797 109.321L64.1037 108.104L67.7277 106.887C67.9814 106.802 68.243 106.742 68.5087 106.709L73.3712 106.106L69.1392 93.5034M51.2766 99.5017V99.5017C50.3528 99.0465 49.6488 98.2414 49.3209 97.2651L48.3471 94.3652C48.1713 93.8417 48.4532 93.2747 48.9768 93.0989L49.1114 93.0537L53.9917 93.3785C54.4719 93.4105 54.9539 93.3555 55.4145 93.2163L58.7644 92.2039L62.0464 90.9893C62.4977 90.8223 62.9152 90.5752 63.2788 90.2599L66.974 87.0554L67.1086 87.0102C67.6321 86.8344 68.1991 87.1163 68.3749 87.6399L69.3487 90.5398C69.6765 91.5161 69.6011 92.5829 69.1392 93.5034V93.5034M51.2766 99.5017L55.4805 99.1616C55.8042 99.1354 56.1235 99.0699 56.4313 98.9665L60.5688 97.5772L64.7062 96.1878C65.0141 96.0844 65.3082 95.9439 65.5821 95.7695L69.1392 93.5034"
              stroke="#1F1F1F" stroke-width="0.5" stroke-linecap="square"/>
        <rect x="55.019" y="108.926" width="17.7465" height="4.22535" transform="rotate(-18.5621 55.019 108.926)"
              fill="#C0D0D2"/>
        <path d="M50.0396 92.7691L48.3403 87.7087C48.1645 87.1852 48.4464 86.6182 48.97 86.4424L63.0962 81.6988C63.6197 81.523 64.1867 81.8049 64.3625 82.3284L66.0618 87.3888L63.395 90.0674C62.9568 90.5075 62.4223 90.8395 61.8336 91.0372L58.7232 92.0817L55.6128 93.1262C55.0241 93.3238 54.3975 93.3818 53.7826 93.2953L50.0396 92.7691Z"
              fill="#C0975E" stroke="#1F1F1F" stroke-width="0.5" stroke-linecap="round"/>
        <ellipse cx="52.7037" cy="89.0883" rx="1.58451" ry="1.58451" transform="rotate(-18.5621 52.7037 89.0883)"
                 fill="#554229"/>
        <ellipse cx="60.0535" cy="89.4062" rx="2.11268" ry="2.11268" transform="rotate(-18.5621 60.0535 89.4062)"
                 fill="#554229"/>
        <ellipse cx="61.3762" cy="83.3907" rx="1.05634" ry="1.05634" transform="rotate(-18.5621 61.3762 83.3907)"
                 fill="#554229"/>
        <path d="M50.0396 92.7691L48.3403 87.7087C48.1645 87.1852 48.4464 86.6182 48.97 86.4424L63.0962 81.6988C63.6197 81.523 64.1867 81.8049 64.3625 82.3284L66.0618 87.3888L63.395 90.0674C62.9568 90.5075 62.4223 90.8395 61.8336 91.0372L58.7232 92.0817L55.6128 93.1262C55.0241 93.3238 54.3975 93.3818 53.7826 93.2953L50.0396 92.7691Z"
              stroke="#1F1F1F" stroke-width="0.5" stroke-linecap="round"/>
        <path d="M48.4693 137.868L55.3051 133.746C56.3048 133.143 57.3675 132.652 58.4742 132.28L61.2397 131.351C63.5944 130.561 66.1009 130.329 68.5606 130.675L69.4984 130.807L72.4278 128.933C72.9196 128.619 73.3754 128.252 73.7872 127.838L74.5641 127.058C75.8192 125.797 77.4588 124.991 79.2236 124.766L80.7811 124.568C81.4864 124.478 82.2006 124.483 82.9048 124.582L86.5219 125.09L87.767 123.84C89.1143 122.486 90.9014 121.66 92.8051 121.509L94.1968 121.399L94.533 122.4L86.5219 125.09L69.4984 130.807L48.4693 137.868Z"
              fill="#DBD327"/>
        <path opacity="0.75"
              d="M58.3474 129.244C57.4854 134.787 58.4813 139.55 55.649 139.109C52.8168 138.669 50.5681 132.531 51.43 126.988C52.292 121.446 55.8976 116.692 58.7299 117.132C61.5622 117.573 59.2093 123.702 58.3474 129.244Z"
              fill="#D9D9D9"/>
        <path d="M59.3954 94.0841C59.674 94.9137 58.8276 96.5034 56.0624 97.432C53.2971 98.3606 50.6615 97.9401 50.3829 97.1105C50.1043 96.281 49.3741 94.1063 53.0508 95.1004C56.3912 95.0928 59.1168 93.2546 59.3954 94.0841Z"
              fill="#D9D9D9"/>
    </g>
    <g filter="url(#filter3_d_112_279)">
        <circle cx="128.564" cy="131.437" r="40.3134" fill="#C0D0D2" stroke="#1F1F1F" stroke-width="0.5"/>
        <mask id="path-36-outside-3_112_279" maskUnits="userSpaceOnUse" x="89.3804" y="129.253" width="79" height="42"
              fill="black">
            <rect fill="white" x="89.3804" y="129.253" width="79" height="42"/>
            <path d="M165.747 131.437C165.747 136.319 164.785 141.155 162.916 145.666C161.048 150.177 158.309 154.276 154.856 157.729C151.403 161.182 147.304 163.921 142.793 165.789C138.282 167.658 133.446 168.62 128.563 168.62C123.681 168.62 118.845 167.658 114.334 165.789C109.823 163.921 105.724 161.182 102.271 157.729C98.8183 154.276 96.0794 150.177 94.2108 145.666C92.3421 141.155 91.3804 136.319 91.3804 131.437L128.563 131.437H165.747Z"/>
        </mask>
        <path d="M165.747 131.437C165.747 136.319 164.785 141.155 162.916 145.666C161.048 150.177 158.309 154.276 154.856 157.729C151.403 161.182 147.304 163.921 142.793 165.789C138.282 167.658 133.446 168.62 128.563 168.62C123.681 168.62 118.845 167.658 114.334 165.789C109.823 163.921 105.724 161.182 102.271 157.729C98.8183 154.276 96.0794 150.177 94.2108 145.666C92.3421 141.155 91.3804 136.319 91.3804 131.437L128.563 131.437H165.747Z"
              fill="url(#paint0_linear_112_279)"/>
        <path d="M165.747 131.437C165.747 136.319 164.785 141.155 162.916 145.666C161.048 150.177 158.309 154.276 154.856 157.729C151.403 161.182 147.304 163.921 142.793 165.789C138.282 167.658 133.446 168.62 128.563 168.62C123.681 168.62 118.845 167.658 114.334 165.789C109.823 163.921 105.724 161.182 102.271 157.729C98.8183 154.276 96.0794 150.177 94.2108 145.666C92.3421 141.155 91.3804 136.319 91.3804 131.437L128.563 131.437H165.747Z"
              stroke="url(#paint1_linear_112_279)" stroke-width="4" mask="url(#path-36-outside-3_112_279)"/>
        <path d="M113.49 94.2533V72.9822L112.845 72.3417C112.088 71.5908 111.663 70.5689 111.663 69.5029V63.0994C111.663 62.5471 112.11 62.0994 112.663 62.0994H113.49L121.13 65.2439C121.575 65.4271 122.05 65.5284 122.531 65.5431L128.564 65.727L134.597 65.5431C135.078 65.5284 135.553 65.4271 135.998 65.2439L143.638 62.0994H144.465C145.018 62.0994 145.465 62.5471 145.465 63.0994V69.5029C145.465 70.5689 145.04 71.5908 144.283 72.3417L143.638 72.9822V94.2533L135.719 92.6433C135.457 92.59 135.19 92.5632 134.922 92.5632H128.564H122.206C121.938 92.5632 121.671 92.59 121.409 92.6433L113.49 94.2533Z"
              fill="#C0D0D2"/>
        <path d="M113.49 72.9822V94.2533L121.409 92.6433C121.671 92.59 121.938 92.5632 122.206 92.5632H128.564H134.922C135.19 92.5632 135.457 92.59 135.719 92.6433L143.638 94.2533V72.9822M113.49 72.9822L112.845 72.3417C112.088 71.5908 111.663 70.5689 111.663 69.5029V63.0994C111.663 62.5471 112.11 62.0994 112.663 62.0994H113.49L121.13 65.2439C121.575 65.4271 122.05 65.5284 122.531 65.5431L128.564 65.727L134.597 65.5431C135.078 65.5284 135.553 65.4271 135.998 65.2439L143.638 62.0994H144.465C145.018 62.0994 145.465 62.5471 145.465 63.0994V69.5029C145.465 70.5689 145.04 71.5908 144.283 72.3417L143.638 72.9822M113.49 72.9822L120.324 74.6783C120.639 74.7565 120.963 74.796 121.287 74.796H128.564H135.841C136.165 74.796 136.489 74.7565 136.804 74.6783L143.638 72.9822"
              stroke="#1F1F1F" stroke-width="0.5" stroke-linecap="square"/>
        <rect x="114.367" y="89.1829" width="28.3944" height="6.76056" fill="#C0D0D2"/>
        <path d="M115.043 62.1408V53C115.043 52.4477 115.49 52 116.043 52H141.085C141.637 52 142.085 52.4477 142.085 53V62.1408L136.169 65.0988C135.614 65.3765 135.001 65.5211 134.38 65.5211H128.564H122.748C122.127 65.5211 121.514 65.3765 120.959 65.0988L115.043 62.1408Z"
              fill="#C0975E" stroke="#1F1F1F" stroke-width="0.5" stroke-linecap="round"/>
        <circle cx="120.958" cy="57.9153" r="2.53521" fill="#554229"/>
        <ellipse cx="131.944" cy="62.1413" rx="3.38028" ry="3.38028" fill="#554229"/>
        <ellipse cx="137.014" cy="53.6901" rx="1.69014" ry="1.69014" fill="#554229"/>
        <path d="M115.043 62.1408V53C115.043 52.4477 115.49 52 116.043 52H141.085C141.637 52 142.085 52.4477 142.085 53V62.1408L136.169 65.0988C135.614 65.3765 135.001 65.5211 134.38 65.5211H128.564H122.748C122.127 65.5211 121.514 65.3765 120.959 65.0988L115.043 62.1408Z"
              stroke="#1F1F1F" stroke-width="0.5" stroke-linecap="round"/>
        <path d="M89.6907 129.971L103.242 126.969C104.378 126.717 105.539 126.59 106.702 126.59H114.751C117.228 126.59 119.671 127.165 121.887 128.27L125.299 129.971L131.232 128.492C131.797 128.351 132.345 128.149 132.866 127.89L136.416 126.121C138.003 125.329 139.809 125.088 141.548 125.435L146.295 126.381C146.99 126.52 147.664 126.751 148.299 127.067L154.125 129.971L158.268 127.906C159.972 127.057 161.923 126.843 163.771 127.304L167.691 128.28V129.971H154.125H125.299H89.6907Z"
              fill="url(#paint2_linear_112_279)"/>
        <path opacity="0.75"
              d="M109.066 121.697C104.935 129.664 104.02 137.395 99.9484 135.285C95.8769 133.174 95.5925 122.719 99.7229 114.751C103.853 106.783 111.743 101.41 115.815 103.52C119.887 105.631 113.196 113.729 109.066 121.697Z"
              fill="#D9D9D9"/>
        <path d="M128.564 68.902C128.564 70.3022 126.47 72.2823 121.803 72.2823C117.136 72.2823 113.352 70.3022 113.352 68.902C113.352 67.5018 113.352 63.8314 118.423 67.2119C123.493 68.9018 128.564 67.5018 128.564 68.902Z"
              fill="#D9D9D9"/>
    </g>
    <path d="M220 133L101.5 157.5L39.5 130L20 128L101 165L244.5 135L220 133Z" fill="#94B0B3" stroke="#1F1F1F"/>
    <path d="M158.346 153.125V186.353L161.295 188.161M158.346 153.125L189.423 146.57L191.465 148.378M158.346 153.125L161.522 154.255M161.295 188.161L187.382 183.188L191.465 148.378M161.295 188.161L161.522 154.255M191.465 148.378L161.522 154.255"
          stroke="#1F1F1F"/>
    <g filter="url(#filter4_d_112_279)">
        <path d="M223.223 222.067L105.038 251L100.728 165.105L245 134.816L223.223 222.067Z" fill="#94B0B3"/>
        <path d="M223.223 222.067L105.038 251L100.728 165.105L245 134.816L223.223 222.067Z" stroke="#1F1F1F"/>
    </g>
    <g filter="url(#filter5_i_112_279)">
        <path d="M230.482 159.454L219.82 201.95L219.406 202.211C213.655 205.845 209.319 211.336 207.117 217.772L121.597 237.212C119.407 232.846 115.679 229.443 111.132 227.658L110.709 227.492L108.214 182.284C113.149 178.409 117.214 173.54 120.144 167.992L120.236 167.817L158.346 159.454V186.579L161.295 188.161L187.382 183.188L191.011 152.899L222.316 146.118L222.487 148.796C222.796 153.622 225.935 157.806 230.482 159.454Z"
              fill="#7D4E1E"/>
    </g>
    <path d="M230.482 159.454L219.82 201.95L219.406 202.211C213.655 205.845 209.319 211.336 207.117 217.772L121.597 237.212C119.407 232.846 115.679 229.443 111.132 227.658L110.709 227.492L108.214 182.284C113.149 178.409 117.214 173.54 120.144 167.992L120.236 167.817L158.346 159.454V186.579L161.295 188.161L187.382 183.188L191.011 152.899L222.316 146.118L222.487 148.796C222.796 153.622 225.935 157.806 230.482 159.454Z"
          stroke="#1F1F1F"/>
    <g filter="url(#filter6_d_112_279)">
        <path d="M172.41 165.557V159.68H175.665C177.395 159.68 179.092 160.149 180.577 161.036L181.776 161.833C182.78 162.5 183.63 163.373 184.27 164.393C185.118 165.745 185.567 167.308 185.567 168.903V169.769C185.567 170.869 185.357 171.959 184.947 172.979C184.756 173.455 184.523 173.913 184.25 174.348L183.501 175.542C182.779 176.694 181.721 177.598 180.47 178.132C179.642 178.485 178.751 178.668 177.851 178.668H177.628C176.876 178.668 176.127 178.558 175.406 178.342L171.957 177.311V170.53L175.813 171.683C176.261 171.817 176.733 171.847 177.194 171.77L177.801 171.669C178.657 171.527 179.343 170.883 179.539 170.038C179.751 169.121 179.341 168.173 178.528 167.7L177.569 167.143C177.307 166.991 177.026 166.871 176.735 166.788L172.41 165.557Z"
              fill="#BCD3D6"/>
        <path d="M172.41 165.557V159.68H175.665C177.395 159.68 179.092 160.149 180.577 161.036L181.776 161.833C182.78 162.5 183.63 163.373 184.27 164.393C185.118 165.745 185.567 167.308 185.567 168.903V169.769C185.567 170.869 185.357 171.959 184.947 172.979C184.756 173.455 184.523 173.913 184.25 174.348L183.501 175.542C182.779 176.694 181.721 177.598 180.47 178.132C179.642 178.485 178.751 178.668 177.851 178.668H177.628C176.876 178.668 176.127 178.558 175.406 178.342L171.957 177.311V170.53L175.813 171.683C176.261 171.817 176.733 171.847 177.194 171.77L177.801 171.669C178.657 171.527 179.343 170.883 179.539 170.038C179.751 169.121 179.341 168.173 178.528 167.7L177.569 167.143C177.307 166.991 177.026 166.871 176.735 166.788L172.41 165.557Z"
              stroke="#1F1F1F"/>
    </g>
    <g filter="url(#filter7_d_112_279)">
        <path d="M39.4802 219.354L19.9717 128.034L100.728 165.105L104.811 251L39.4802 219.354Z" fill="#697D7F"/>
        <path d="M39.4802 219.354L19.9717 128.034L100.728 165.105L104.811 251L39.4802 219.354Z" stroke="#1F1F1F"/>
    </g>
    <g filter="url(#filter8_i_112_279)">
        <path d="M89.3856 231.561L53.7712 214.382L53.6591 213.669C52.5896 206.875 48.3297 201.005 42.2023 197.881L32.448 151.995C36.8471 151.447 40.4898 148.317 41.694 144.051L41.7486 143.857L84.6219 164.879L84.998 166.641C86.218 172.354 89.4696 177.431 94.1493 180.928L95.9641 227.04C93.3357 227.768 91.0021 229.364 89.3856 231.561Z"
              fill="#5A3814"/>
    </g>
    <path d="M89.3856 231.561L53.7712 214.382L53.6591 213.669C52.5896 206.875 48.3297 201.005 42.2023 197.881L32.448 151.995C36.8471 151.447 40.4898 148.317 41.694 144.051L41.7486 143.857L84.6219 164.879L84.998 166.641C86.218 172.354 89.4696 177.431 94.1493 180.928L95.9641 227.04C93.3357 227.768 91.0021 229.364 89.3856 231.561Z"
          stroke="#1F1F1F"/>
    <g filter="url(#filter9_d_112_279)">
        <path d="M46.2855 178.667L45.8318 167.139L47.6465 165.783L77.5898 180.024L78.0435 191.778L76.2288 192.682L46.2855 178.667Z"
              fill="#697D7F"/>
        <path d="M45.8318 167.139L46.2855 178.667L76.2288 192.682M45.8318 167.139L47.6465 165.783L77.5898 180.024M45.8318 167.139L75.7751 181.38M76.2288 192.682L78.0435 191.778L77.5898 180.024M76.2288 192.682L75.7751 181.38M77.5898 180.024L75.7751 181.38"
              stroke="#1F1F1F"/>
    </g>
    <path d="M11.3516 111.76L19.9716 128.034L71.6919 52.0851L62.6181 36.2623L54.3251 33.9739C50.0435 32.7924 45.6221 32.1936 41.1805 32.1936H39.3938C37.3391 32.1936 35.2895 32.3959 33.2745 32.7974C26.4185 34.1638 20.217 37.7854 15.6581 43.0852L14.9299 43.9319C11.9685 47.3746 9.71488 51.3673 8.29788 55.6817L7.79149 57.2235C6.8406 60.1187 6.20237 63.1074 5.88769 66.1384L5.60883 68.8245C5.20371 72.7269 5.13779 76.657 5.41181 80.5708L5.62171 83.5686C6.1133 90.5899 7.32718 97.5417 9.24412 104.314L11.3516 111.76Z"
          fill="#697D7F" stroke="#1F1F1F"/>
    <g filter="url(#filter10_i_112_279)">
        <path d="M55.8129 46.2082L17.7032 102.718L15.4348 95.0328C14.5288 89.3153 14.0737 83.5354 14.0737 77.7466V76.2715L14.1444 75.5206C14.5492 71.2176 15.5169 66.9864 17.0227 62.9352L18.7561 59.2338C19.7137 57.1892 20.9318 55.2771 22.3802 53.5452L22.5648 53.3245C24.0048 51.6026 25.6781 50.0902 27.5364 48.8311C29.44 47.5412 31.5182 46.5302 33.7081 45.8289L33.9254 45.7593C35.8075 45.1564 37.7529 44.7727 39.723 44.6156L42.4291 44.3999C46.3472 44.3999 50.2515 44.8648 54.0601 45.7848L55.8129 46.2082Z"
              fill="#5A3814"/>
    </g>
    <path d="M55.8129 46.2082L17.7032 102.718L15.4348 95.0328C14.5288 89.3153 14.0737 83.5354 14.0737 77.7466V76.2715L14.1444 75.5206C14.5492 71.2176 15.5169 66.9864 17.0227 62.9352L18.7561 59.2338C19.7137 57.1892 20.9318 55.2771 22.3802 53.5452L22.5648 53.3245C24.0048 51.6026 25.6781 50.0902 27.5364 48.8311C29.44 47.5412 31.5182 46.5302 33.7081 45.8289L33.9254 45.7593C35.8075 45.1564 37.7529 44.7727 39.723 44.6156L42.4291 44.3999C46.3472 44.3999 50.2515 44.8648 54.0601 45.7848L55.8129 46.2082Z"
          stroke="#1F1F1F"/>
    <path d="M170.142 21.5697L165.605 20.4395L134.981 23.1648L137.25 26.0904L144.282 25.6384L147.004 28.8029L180.577 26.3165L175.586 23.604L170.142 21.5697Z"
          fill="#7D4E1E"/>
    <path d="M115.473 25.002L58.3081 30.3852L63.6922 30.9983C65.3883 31.1915 67.0511 31.6096 68.6368 32.2416C70.0634 32.8103 71.4168 33.5478 72.6681 34.4384L73.9603 35.3581L113.658 31.7414V28.1248L117.741 27.6727L115.473 25.002Z"
          fill="#7D4E1E"/>
    <path d="M170.142 21.5697L165.605 20.4395L134.981 23.1648L137.25 26.0904L144.282 25.6384L147.004 28.8029L180.577 26.3165L175.586 23.604L170.142 21.5697Z"
          stroke="#1F1F1F"/>
    <path d="M115.473 25.002L58.3081 30.3852L63.6922 30.9983C65.3883 31.1915 67.0511 31.6096 68.6368 32.2416C70.0634 32.8103 71.4168 33.5478 72.6681 34.4384L73.9603 35.3581L113.658 31.7414V28.1248L117.741 27.6727L115.473 25.002Z"
          stroke="#1F1F1F"/>
    <path d="M174.885 20.0826L168.327 20.2133L163.414 20.6654L167.665 21.3797C169.314 21.6566 170.941 22.0516 172.533 22.5616C175.164 23.4042 177.686 24.556 180.045 25.9928L180.577 26.3164L147.004 29.0289L144.282 25.8643L137.023 26.3164L134.754 23.3023L115.699 25.0555L117.968 27.6727L113.658 28.1247V31.7414L73.9604 35.358L73.6791 35.1424C71.9121 33.788 69.9391 32.726 67.8355 31.9969C66.4782 31.5264 65.0757 31.1978 63.6507 31.0163L58.3082 30.3359L38.1191 32.1935L41.6121 32.3517C45.9301 32.5472 50.2247 33.0992 54.4518 34.0018L62.6182 36.2622L71.6919 52.085L200.539 39.8788L192.826 25.4123L189.411 23.58C187.76 22.6938 186.027 21.9672 184.238 21.4099C181.212 20.4677 178.054 20.0195 174.885 20.0826Z"
          fill="#94B0B3" stroke="#1F1F1F"/>
    <path d="M123.866 47.1121L113.658 31.7414V28.1248L117.741 27.6727L109.348 16.3707V2.35624L112.297 1L125.681 10.0416L137.023 26.0904L144.282 25.8644L155.17 39.8788V44.1736L123.866 47.1121Z"
          fill="#BCD3D6" stroke="#1F1F1F"/>
    <g filter="url(#filter11_i_112_279)">
        <ellipse cx="3.87706" cy="8.84053" rx="3.87706" ry="8.84053"
                 transform="matrix(0.843684 -0.53684 0.539553 0.841952 111.163 9.68359)" fill="#4A5759"/>
    </g>
    <path d="M122.053 13.2326C123.342 15.2439 124.136 17.2731 124.395 18.9137C124.524 19.7348 124.515 20.4345 124.385 20.9771C124.256 21.5164 124.016 21.8691 123.704 22.0678C123.391 22.2666 122.969 22.3347 122.424 22.2247C121.875 22.114 121.235 21.8278 120.541 21.3656C119.156 20.442 117.643 18.8697 116.354 16.8585C115.065 14.8472 114.271 12.818 114.012 11.1773C113.883 10.3562 113.892 9.65658 114.022 9.114C114.152 8.5747 114.391 8.222 114.703 8.02321C115.016 7.82441 115.438 7.75633 115.983 7.86635C116.532 7.97704 117.172 8.26322 117.866 8.72547C119.251 9.64909 120.764 11.2213 122.053 13.2326Z"
          stroke="#1F1F1F"/>
    <defs>
        <filter id="filter0_i_112_279" x="36.8596" y="109.437" width="184.859" height="50.7312"
                filterUnits="userSpaceOnUse" color-interpolation-filters="sRGB">
            <feFlood flood-opacity="0" result="BackgroundImageFix"/>
            <feBlend mode="normal" in="SourceGraphic" in2="BackgroundImageFix" result="shape"/>
            <feColorMatrix in="SourceAlpha" type="matrix" values="0 0 0 0 0 0 0 0 0 0 0 0 0 0 0 0 0 0 127 0"
                           result="hardAlpha"/>
            <feOffset dy="6"/>
            <feGaussianBlur stdDeviation="1"/>
            <feComposite in2="hardAlpha" operator="arithmetic" k2="-1" k3="1"/>
            <feColorMatrix type="matrix" values="0 0 0 0 0 0 0 0 0 0 0 0 0 0 0 0 0 0 0.33 0"/>
            <feBlend mode="normal" in2="shape" result="effect1_innerShadow_112_279"/>
        </filter>
        <filter id="filter1_d_112_279" x="155.866" y="63.3013" width="65.1848" height="93.6492"
                filterUnits="userSpaceOnUse" color-interpolation-filters="sRGB">
            <feFlood flood-opacity="0" result="BackgroundImageFix"/>
            <feColorMatrix in="SourceAlpha" type="matrix" values="0 0 0 0 0 0 0 0 0 0 0 0 0 0 0 0 0 0 127 0"
                           result="hardAlpha"/>
            <feOffset dx="2" dy="1"/>
            <feGaussianBlur stdDeviation="1"/>
            <feComposite in2="hardAlpha" operator="out"/>
            <feColorMatrix type="matrix" values="0 0 0 0 0 0 0 0 0 0 0 0 0 0 0 0 0 0 0.33 0"/>
            <feBlend mode="normal" in2="BackgroundImageFix" result="effect1_dropShadow_112_279"/>
            <feBlend mode="normal" in="SourceGraphic" in2="effect1_dropShadow_112_279" result="shape"/>
        </filter>
        <filter id="filter2_d_112_279" x="46.4788" y="80.3965" width="54.718" height="79.0979"
                filterUnits="userSpaceOnUse" color-interpolation-filters="sRGB">
            <feFlood flood-opacity="0" result="BackgroundImageFix"/>
            <feColorMatrix in="SourceAlpha" type="matrix" values="0 0 0 0 0 0 0 0 0 0 0 0 0 0 0 0 0 0 127 0"
                           result="hardAlpha"/>
            <feOffset dx="2" dy="1"/>
            <feGaussianBlur stdDeviation="1"/>
            <feComposite in2="hardAlpha" operator="out"/>
            <feColorMatrix type="matrix" values="0 0 0 0 0 0 0 0 0 0 0 0 0 0 0 0 0 0 0.33 0"/>
            <feBlend mode="normal" in2="BackgroundImageFix" result="effect1_dropShadow_112_279"/>
            <feBlend mode="normal" in="SourceGraphic" in2="effect1_dropShadow_112_279" result="shape"/>
        </filter>
        <filter id="filter3_d_112_279" x="88.0002" y="50.75" width="85.1267" height="124.25"
                filterUnits="userSpaceOnUse" color-interpolation-filters="sRGB">
            <feFlood flood-opacity="0" result="BackgroundImageFix"/>
            <feColorMatrix in="SourceAlpha" type="matrix" values="0 0 0 0 0 0 0 0 0 0 0 0 0 0 0 0 0 0 127 0"
                           result="hardAlpha"/>
            <feOffset dx="2" dy="1"/>
            <feGaussianBlur stdDeviation="1"/>
            <feComposite in2="hardAlpha" operator="out"/>
            <feColorMatrix type="matrix" values="0 0 0 0 0 0 0 0 0 0 0 0 0 0 0 0 0 0 0.33 0"/>
            <feBlend mode="normal" in2="BackgroundImageFix" result="effect1_dropShadow_112_279"/>
            <feBlend mode="normal" in="SourceGraphic" in2="effect1_dropShadow_112_279" result="shape"/>
        </filter>
        <filter id="filter4_d_112_279" x="98.207" y="134.162" width="149.471" height="121.467"
                filterUnits="userSpaceOnUse" color-interpolation-filters="sRGB">
            <feFlood flood-opacity="0" result="BackgroundImageFix"/>
            <feColorMatrix in="SourceAlpha" type="matrix" values="0 0 0 0 0 0 0 0 0 0 0 0 0 0 0 0 0 0 127 0"
                           result="hardAlpha"/>
            <feOffset dy="2"/>
            <feGaussianBlur stdDeviation="1"/>
            <feComposite in2="hardAlpha" operator="out"/>
            <feColorMatrix type="matrix" values="0 0 0 0 0 0 0 0 0 0 0 0 0 0 0 0 0 0 0.33 0"/>
            <feBlend mode="normal" in2="BackgroundImageFix" result="effect1_dropShadow_112_279"/>
            <feBlend mode="normal" in="SourceGraphic" in2="effect1_dropShadow_112_279" result="shape"/>
        </filter>
        <filter id="filter5_i_112_279" x="107.7" y="145.506" width="123.377" height="94.28" filterUnits="userSpaceOnUse"
                color-interpolation-filters="sRGB">
            <feFlood flood-opacity="0" result="BackgroundImageFix"/>
            <feBlend mode="normal" in="SourceGraphic" in2="BackgroundImageFix" result="shape"/>
            <feColorMatrix in="SourceAlpha" type="matrix" values="0 0 0 0 0 0 0 0 0 0 0 0 0 0 0 0 0 0 127 0"
                           result="hardAlpha"/>
            <feOffset dy="4"/>
            <feGaussianBlur stdDeviation="1"/>
            <feComposite in2="hardAlpha" operator="arithmetic" k2="-1" k3="1"/>
            <feColorMatrix type="matrix" values="0 0 0 0 0 0 0 0 0 0 0 0 0 0 0 0 0 0 0.33 0"/>
            <feBlend mode="normal" in2="shape" result="effect1_innerShadow_112_279"/>
        </filter>
        <filter id="filter6_d_112_279" x="169.457" y="159.18" width="18.6106" height="24.9873"
                filterUnits="userSpaceOnUse" color-interpolation-filters="sRGB">
            <feFlood flood-opacity="0" result="BackgroundImageFix"/>
            <feColorMatrix in="SourceAlpha" type="matrix" values="0 0 0 0 0 0 0 0 0 0 0 0 0 0 0 0 0 0 127 0"
                           result="hardAlpha"/>
            <feOffset dy="3"/>
            <feGaussianBlur stdDeviation="1"/>
            <feComposite in2="hardAlpha" operator="out"/>
            <feColorMatrix type="matrix" values="0 0 0 0 0 0 0 0 0 0 0 0 0 0 0 0 0 0 0.33 0"/>
            <feBlend mode="normal" in2="BackgroundImageFix" result="effect1_dropShadow_112_279"/>
            <feBlend mode="normal" in="SourceGraphic" in2="effect1_dropShadow_112_279" result="shape"/>
        </filter>
        <filter id="filter7_d_112_279" x="17.2744" y="127.164" width="90.0759" height="128.653"
                filterUnits="userSpaceOnUse" color-interpolation-filters="sRGB">
            <feFlood flood-opacity="0" result="BackgroundImageFix"/>
            <feColorMatrix in="SourceAlpha" type="matrix" values="0 0 0 0 0 0 0 0 0 0 0 0 0 0 0 0 0 0 127 0"
                           result="hardAlpha"/>
            <feOffset dy="2"/>
            <feGaussianBlur stdDeviation="1"/>
            <feComposite in2="hardAlpha" operator="out"/>
            <feColorMatrix type="matrix" values="0 0 0 0 0 0 0 0 0 0 0 0 0 0 0 0 0 0 0.33 0"/>
            <feBlend mode="normal" in2="BackgroundImageFix" result="effect1_dropShadow_112_279"/>
            <feBlend mode="normal" in="SourceGraphic" in2="effect1_dropShadow_112_279" result="shape"/>
        </filter>
        <filter id="filter8_i_112_279" x="29.8457" y="143.145" width="66.6335" height="91.0471"
                filterUnits="userSpaceOnUse" color-interpolation-filters="sRGB">
            <feFlood flood-opacity="0" result="BackgroundImageFix"/>
            <feBlend mode="normal" in="SourceGraphic" in2="BackgroundImageFix" result="shape"/>
            <feColorMatrix in="SourceAlpha" type="matrix" values="0 0 0 0 0 0 0 0 0 0 0 0 0 0 0 0 0 0 127 0"
                           result="hardAlpha"/>
            <feOffset dx="-4" dy="4"/>
            <feGaussianBlur stdDeviation="1"/>
            <feComposite in2="hardAlpha" operator="arithmetic" k2="-1" k3="1"/>
            <feColorMatrix type="matrix" values="0 0 0 0 0 0 0 0 0 0 0 0 0 0 0 0 0 0 0.33 0"/>
            <feBlend mode="normal" in2="shape" result="effect1_innerShadow_112_279"/>
        </filter>
        <filter id="filter9_d_112_279" x="43.3218" y="165.202" width="37.2339" height="32.0349"
                filterUnits="userSpaceOnUse" color-interpolation-filters="sRGB">
            <feFlood flood-opacity="0" result="BackgroundImageFix"/>
            <feColorMatrix in="SourceAlpha" type="matrix" values="0 0 0 0 0 0 0 0 0 0 0 0 0 0 0 0 0 0 127 0"
                           result="hardAlpha"/>
            <feOffset dy="2"/>
            <feGaussianBlur stdDeviation="1"/>
            <feComposite in2="hardAlpha" operator="out"/>
            <feColorMatrix type="matrix" values="0 0 0 0 0 0 0 0 0 0 0 0 0 0 0 0 0 0 0.33 0"/>
            <feBlend mode="normal" in2="BackgroundImageFix" result="effect1_dropShadow_112_279"/>
            <feBlend mode="normal" in="SourceGraphic" in2="effect1_dropShadow_112_279" result="shape"/>
        </filter>
        <filter id="filter10_i_112_279" x="11.5737" y="43.8999" width="45.0559" height="61.978"
                filterUnits="userSpaceOnUse" color-interpolation-filters="sRGB">
            <feFlood flood-opacity="0" result="BackgroundImageFix"/>
            <feBlend mode="normal" in="SourceGraphic" in2="BackgroundImageFix" result="shape"/>
            <feColorMatrix in="SourceAlpha" type="matrix" values="0 0 0 0 0 0 0 0 0 0 0 0 0 0 0 0 0 0 127 0"
                           result="hardAlpha"/>
            <feOffset dx="-8" dy="4"/>
            <feGaussianBlur stdDeviation="1"/>
            <feComposite in2="hardAlpha" operator="arithmetic" k2="-1" k3="1"/>
            <feColorMatrix type="matrix" values="0 0 0 0 0 0 0 0 0 0 0 0 0 0 0 0 0 0 0.33 0"/>
            <feBlend mode="normal" in2="shape" result="effect1_innerShadow_112_279"/>
        </filter>
        <filter id="filter11_i_112_279" x="113.419" y="7.3147" width="11.5686" height="17.4617"
                filterUnits="userSpaceOnUse" color-interpolation-filters="sRGB">
            <feFlood flood-opacity="0" result="BackgroundImageFix"/>
            <feBlend mode="normal" in="SourceGraphic" in2="BackgroundImageFix" result="shape"/>
            <feColorMatrix in="SourceAlpha" type="matrix" values="0 0 0 0 0 0 0 0 0 0 0 0 0 0 0 0 0 0 127 0"
                           result="hardAlpha"/>
            <feOffset dy="4"/>
            <feGaussianBlur stdDeviation="1"/>
            <feComposite in2="hardAlpha" operator="arithmetic" k2="-1" k3="1"/>
            <feColorMatrix type="matrix" values="0 0 0 0 0 0 0 0 0 0 0 0 0 0 0 0 0 0 0.33 0"/>
            <feBlend mode="normal" in2="shape" result="effect1_innerShadow_112_279"/>
        </filter>
        <linearGradient id="paint0_linear_112_279" x1="166" y1="143.5" x2="90.9999" y2="145"
                        gradientUnits="userSpaceOnUse">
            <stop offset="0.2" stop-color="#23D16C"/>
            <stop offset="0.72" stop-color="#B986E3"/>
        </linearGradient>
        <linearGradient id="paint1_linear_112_279" x1="166" y1="143.5" x2="90.9999" y2="145"
                        gradientUnits="userSpaceOnUse">
            <stop offset="0.2" stop-color="#23D16C"/>
            <stop offset="0.72" stop-color="#B986E3"/>
        </linearGradient>
        <linearGradient id="paint2_linear_112_279" x1="167.956" y1="128.258" x2="96.0653" y2="150.376"
                        gradientUnits="userSpaceOnUse">
            <stop offset="0.2" stop-color="#23D16C"/>
            <stop offset="0.72" stop-color="#B986E3"/>
        </linearGradient>
    </defs>
</svg>
