<svg
        width="250"
        height="250"
        viewBox="0 0 250 250"
        fill="none"
        xmlns="http://www.w3.org/2000/svg"
        xmlns:cc="http://creativecommons.org/ns#"
        xmlns:dc="http://purl.org/dc/elements/1.1/"
        xmlns:rdf="http://www.w3.org/1999/02/22-rdf-syntax-ns#"
>
    <title>STC Hub Loading</title>
    <metadata>
        <rdf:RDF>
            <cc:Work rdf:about="">
                <cc:license rdf:resource="http://creativecommons.org/licenses/by-nc-nd/4.0/"/>
                <dc:title>STC Hub Loading</dc:title>
                <dc:description>A Loading Image for STCentral Hub</dc:description>
                <dc:date>2024/01/04</dc:date>
                <dc:rights>
                    <cc:Agent>
                        <dc:title>STC Hub</dc:title>
                    </cc:Agent>
                </dc:rights>
                <dc:publisher>
                    <cc:Agent>
                        <dc:title>STC Hub</dc:title>
                    </cc:Agent>
                </dc:publisher>
                <dc:creator>
                    <cc:Agent>
                        <dc:title>Chimbambu</dc:title>
                    </cc:Agent>
                </dc:creator>
                <dc:contributor>
                    <cc:Agent>
                        <dc:title>Nerilea Aeliren</dc:title>
                    </cc:Agent>
                </dc:contributor>
            </cc:Work>
        </rdf:RDF>
    </metadata>
<circle cx="125" cy="125" r="125" fill="#1F1F1F"/>
<circle cx="125" cy="125" r="109.481" fill="#1F1F1F" stroke="url(#paint0_linear_107_1462)" stroke-width="16" stroke-linejoin="round"/>
<path d="M221.269 57.6156C235.502 77.9384 242.934 102.245 242.501 127.05C242.068 151.856 233.792 175.888 218.858 195.702L125.019 125L221.269 57.6156Z" fill="#1F1F1F"/>
<path d="M210.058 106L246.481 124.797L210.058 143.594L197.609 124.797L210.058 106Z" fill="url(#paint1_linear_107_1462)"/>
<path d="M213.586 115.398L231.444 124.797L213.586 134.195L207.008 124.797L213.586 115.398Z" fill="#1F1F1F"/>
<line x1="197.609" y1="124.737" x2="246.481" y2="124.737" stroke="#1F1F1F" stroke-width="2"/>
<g filter="url(#filter0_d_107_1462)">
<circle cx="125.085" cy="150.915" r="53.8345" fill="#C0D0D2" stroke="#1F1F1F" stroke-width="0.5"/>
<mask id="path-8-outside-1_107_1462" maskUnits="userSpaceOnUse" x="73.5071" y="148.338" width="104" height="55" fill="black">
<rect fill="white" x="73.5071" y="148.338" width="104" height="55"/>
<path d="M174.662 150.916C174.662 157.426 173.38 163.873 170.888 169.888C168.397 175.903 164.745 181.368 160.141 185.972C155.537 190.576 150.072 194.228 144.057 196.719C138.042 199.211 131.595 200.493 125.085 200.493C118.574 200.493 112.127 199.211 106.112 196.719C100.097 194.228 94.6317 190.576 90.028 185.972C85.4244 181.368 81.7725 175.903 79.281 169.888C76.7895 163.873 75.5071 157.426 75.5071 150.916L125.085 150.916H174.662Z"/>
</mask>
<path d="M174.662 150.916C174.662 157.426 173.38 163.873 170.888 169.888C168.397 175.903 164.745 181.368 160.141 185.972C155.537 190.576 150.072 194.228 144.057 196.719C138.042 199.211 131.595 200.493 125.085 200.493C118.574 200.493 112.127 199.211 106.112 196.719C100.097 194.228 94.6317 190.576 90.028 185.972C85.4244 181.368 81.7725 175.903 79.281 169.888C76.7895 163.873 75.5071 157.426 75.5071 150.916L125.085 150.916H174.662Z" fill="url(#paint2_linear_107_1462)"/>
<path d="M174.662 150.916C174.662 157.426 173.38 163.873 170.888 169.888C168.397 175.903 164.745 181.368 160.141 185.972C155.537 190.576 150.072 194.228 144.057 196.719C138.042 199.211 131.595 200.493 125.085 200.493C118.574 200.493 112.127 199.211 106.112 196.719C100.097 194.228 94.6317 190.576 90.028 185.972C85.4244 181.368 81.7725 175.903 79.281 169.888C76.7895 163.873 75.5071 157.426 75.5071 150.916L125.085 150.916H174.662Z" stroke="url(#paint3_linear_107_1462)" stroke-width="4" mask="url(#path-8-outside-1_107_1462)"/>
<path d="M73.2534 149.662L91.7653 145.538C92.9075 145.283 94.0743 145.155 95.2446 145.155H107.681C110.17 145.155 112.625 145.736 114.851 146.851L120.458 149.662L128.596 147.622C129.163 147.48 129.713 147.276 130.236 147.014L135.981 144.135C137.575 143.335 139.39 143.092 141.138 143.442L148.627 144.944C149.326 145.084 150.002 145.317 150.639 145.636L158.671 149.662L165.01 146.484C166.721 145.627 168.683 145.411 170.54 145.876L176.653 147.409V149.662H158.671H120.458H73.2534Z" fill="url(#paint4_linear_107_1462)"/>
<path d="M104.986 101.338V72.9765L103.731 71.7315C102.975 70.9805 102.549 69.9586 102.549 68.8927V59.4661C102.549 58.9138 102.997 58.4661 103.549 58.4661H104.986L115.398 62.7511C115.843 62.9343 116.317 63.0356 116.798 63.0503L125.085 63.3029L133.371 63.0503C133.852 63.0356 134.327 62.9343 134.772 62.7511L145.184 58.4661H146.62C147.172 58.4661 147.62 58.9138 147.62 59.4661V68.8927C147.62 69.9586 147.194 70.9805 146.438 71.7315L145.184 72.9765V101.338L134.493 99.1646C134.231 99.1113 133.964 99.0845 133.696 99.0845H125.085H116.473C116.205 99.0845 115.938 99.1113 115.676 99.1646L104.986 101.338Z" fill="#C0D0D2"/>
<path d="M104.986 72.9765V101.338L115.676 99.1646C115.938 99.1113 116.205 99.0845 116.473 99.0845H125.085H133.696C133.964 99.0845 134.231 99.1113 134.493 99.1646L145.184 101.338V72.9765M104.986 72.9765L103.731 71.7315C102.975 70.9805 102.549 69.9586 102.549 68.8927V59.4661C102.549 58.9138 102.997 58.4661 103.549 58.4661H104.986L115.398 62.7511C115.843 62.9343 116.317 63.0356 116.798 63.0503L125.085 63.3029L133.371 63.0503C133.852 63.0356 134.327 62.9343 134.772 62.7511L145.184 58.4661H146.62C147.172 58.4661 147.62 58.9138 147.62 59.4661V68.8927C147.62 69.9586 147.194 70.9805 146.438 71.7315L145.184 72.9765M104.986 72.9765L114.256 75.2772C114.571 75.3554 114.895 75.395 115.22 75.395H125.085H134.95C135.275 75.395 135.598 75.3554 135.913 75.2772L145.184 72.9765" stroke="#1F1F1F" stroke-width="0.5" stroke-linecap="square"/>
<rect x="106.155" y="94.5776" width="37.8592" height="9.01408" fill="#C0D0D2"/>
<path d="M107.057 58.5211V46C107.057 45.4477 107.504 45 108.057 45H142.113C142.665 45 143.113 45.4477 143.113 46V58.5211L134.943 62.6059C134.388 62.8836 133.776 63.0282 133.155 63.0282H125.085H117.015C116.394 63.0282 115.782 62.8836 115.226 62.6059L107.057 58.5211Z" fill="#C0975E" stroke="#1F1F1F" stroke-width="0.5" stroke-linecap="round"/>
<circle cx="114.944" cy="52.8872" r="3.38028" fill="#554229"/>
<circle cx="129.591" cy="58.5211" r="4.50704" fill="#554229"/>
<circle cx="136.352" cy="47.2535" r="2.25352" fill="#554229"/>
<path d="M107.057 58.5211V46C107.057 45.4477 107.504 45 108.057 45H142.113C142.665 45 143.113 45.4477 143.113 46V58.5211L134.943 62.6059C134.388 62.8836 133.776 63.0282 133.155 63.0282H125.085H117.015C116.394 63.0282 115.782 62.8836 115.226 62.6059L107.057 58.5211Z" stroke="#1F1F1F" stroke-width="0.5" stroke-linecap="round"/>
<path opacity="0.75" d="M99.0873 137.929C93.5801 148.552 92.3598 158.861 86.9311 156.046C81.5023 153.232 81.1231 139.291 86.6303 128.668C92.1375 118.044 102.658 110.879 108.086 113.694C113.515 116.508 104.594 127.305 99.0873 137.929Z" fill="#D9D9D9"/>
<path d="M125.085 67.5355C125.085 69.4023 122.294 72.0425 116.071 72.0425C109.848 72.0425 104.803 69.4023 104.803 67.5355C104.803 65.6686 104.803 60.7747 111.564 65.2819C118.324 67.5352 125.085 65.6686 125.085 67.5355Z" fill="#D9D9D9"/>
</g>
<defs>
<filter id="filter0_d_107_1462" x="71" y="44.75" width="113.169" height="165.25" filterUnits="userSpaceOnUse" color-interpolation-filters="sRGB">
<feFlood flood-opacity="0" result="BackgroundImageFix"/>
<feColorMatrix in="SourceAlpha" type="matrix" values="0 0 0 0 0 0 0 0 0 0 0 0 0 0 0 0 0 0 127 0" result="hardAlpha"/>
<feOffset dx="3" dy="3"/>
<feGaussianBlur stdDeviation="1"/>
<feComposite in2="hardAlpha" operator="out"/>
<feColorMatrix type="matrix" values="0 0 0 0 0 0 0 0 0 0 0 0 0 0 0 0 0 0 0.33 0"/>
<feBlend mode="normal" in2="BackgroundImageFix" result="effect1_dropShadow_107_1462"/>
<feBlend mode="normal" in="SourceGraphic" in2="effect1_dropShadow_107_1462" result="shape"/>
</filter>
<linearGradient id="paint0_linear_107_1462" x1="7.5188" y1="125" x2="198.778" y2="125" gradientUnits="userSpaceOnUse">
<stop offset="0.154" stop-color="#DBD327"/>
<stop offset="0.404" stop-color="#F76D06"/>
<stop offset="0.864" stop-color="#F76D06"/>
<stop offset="1" stop-color="#DBD327"/>
</linearGradient>
<linearGradient id="paint1_linear_107_1462" x1="246.481" y1="124.797" x2="197.609" y2="124.797" gradientUnits="userSpaceOnUse">
<stop offset="0.0489996" stop-color="#DBD327"/>
<stop offset="0.324" stop-color="#F76D06"/>
<stop offset="0.744" stop-color="#F76D06"/>
<stop offset="1" stop-color="#DBD327"/>
</linearGradient>
<linearGradient id="paint2_linear_107_1462" x1="175" y1="167" x2="74.9998" y2="169" gradientUnits="userSpaceOnUse">
<stop offset="0.2" stop-color="#23D16C"/>
<stop offset="0.72" stop-color="#B986E3"/>
</linearGradient>
<linearGradient id="paint3_linear_107_1462" x1="175" y1="167" x2="74.9998" y2="169" gradientUnits="userSpaceOnUse">
<stop offset="0.2" stop-color="#23D16C"/>
<stop offset="0.72" stop-color="#B986E3"/>
</linearGradient>
<linearGradient id="paint4_linear_107_1462" x1="177.006" y1="147.378" x2="81.6089" y2="176.56" gradientUnits="userSpaceOnUse">
<stop offset="0.2" stop-color="#23D16C"/>
<stop offset="0.72" stop-color="#B986E3"/>
</linearGradient>
</defs>
</svg>
