<svg
        width="70"
        height="70"
        viewBox="0 0 70 70"
        fill="none"
        xmlns="http://www.w3.org/2000/svg"
        xmlns:cc="http://creativecommons.org/ns#"
        xmlns:dc="http://purl.org/dc/elements/1.1/"
        xmlns:rdf="http://www.w3.org/1999/02/22-rdf-syntax-ns#"
>
    <title>STC Hub: Scroll</title>
    <metadata>
        <rdf:RDF>
            <cc:Work rdf:about="">
                <cc:license rdf:resource="http://creativecommons.org/licenses/by-nc-nd/4.0/"/>
                <dc:title>STC Hub: Scroll</dc:title>
                <dc:description>A small orange and yellow scroll with the text STC HUB</dc:description>
                <dc:date>2024/01/04</dc:date>
                <dc:rights>
                    <cc:Agent>
                        <dc:title>STC Hub</dc:title>
                    </cc:Agent>
                </dc:rights>
                <dc:publisher>
                    <cc:Agent>
                        <dc:title>STC Hub</dc:title>
                    </cc:Agent>
                </dc:publisher>
                <dc:creator>
                    <cc:Agent>
                        <dc:title>Chimbambu</dc:title>
                    </cc:Agent>
                </dc:creator>
                <dc:contributor>
                    <cc:Agent>
                        <dc:title>Nerilea Aeliren</dc:title>
                    </cc:Agent>
                </dc:contributor>
            </cc:Work>
        </rdf:RDF>
    </metadata>
    <g filter="url(#filter0_d_82_13)">
        <path d="M15.087 11.2956H8.47827V7.94316L11.6087 6.56519L14.7391 8.57204L15.087 11.2956Z" fill="#4D3D27"/>
        <path d="M63.5165 48.3292L55.275 48.6057C54.8749 48.6191 54.5431 48.2983 54.5431 47.8979C54.5431 47.8584 54.5398 47.819 54.5333 47.7801L54.1363 45.4286C53.8656 43.8247 53.7295 42.201 53.7295 40.5744V38.2437L54.3057 30.1265L54.882 25.8291L55.4582 21.0543C55.8414 19.2124 56.0345 17.336 56.0345 15.4546V15.3245V11.2641C56.0345 10.7885 55.9989 10.3135 55.9279 9.84324L55.7962 8.96988C55.5767 7.5152 54.895 6.16974 53.8518 5.13244C53.0161 4.30146 51.9802 3.70004 50.8442 3.38627L50.0323 3.16203C49.4251 2.99433 48.8036 2.884 48.1758 2.8325L46.7462 2.71521L43.3571 2.43244L35.2896 1.95496L28.3747 1.47747L21.4597 0.999992H14.5448H13.3923L10.2304 1.43665C10.0336 1.46383 9.83898 1.50496 9.64798 1.55972C9.33302 1.65003 9.02972 1.77692 8.74428 1.93779L8.53229 2.05726C7.91457 2.40541 7.36041 2.85587 6.89344 3.38946L6.85915 3.42864C6.60512 3.71891 6.37714 4.03098 6.17786 4.36124L5.90112 4.81986C5.52171 5.43216 5.28331 6.12122 5.20319 6.83707L5.10845 7.68355C5.03638 8.32747 5.03717 8.97885 5.1105 9.62263C5.25155 10.8609 5.65818 12.057 6.30208 13.1241L6.65193 13.7039C6.91794 14.1447 7.25402 14.5392 7.64696 14.8719C8.0454 15.2093 8.49686 15.4784 8.98309 15.6686L9.42175 15.8401C9.76325 15.9736 10.115 16.0792 10.4736 16.1558C10.9383 16.255 11.4122 16.305 11.8873 16.305H16.2081C16.532 16.305 16.7705 16.608 16.6945 16.9228L15.6973 21.0543L14.8329 25.8291L13.9686 30.604L13.3923 35.3788L13.3923 42.0636L13.9686 46.3609L14.5448 50.6583L14.5782 50.8498C15.1093 53.896 15.9752 56.8743 17.16 59.7305L18.3407 61.7432C19.0366 62.9293 20.0877 63.8667 21.3455 64.4228C22.1808 64.792 23.084 64.9828 23.9972 64.9828H24.9172H27.2222L30.6797 64.5053L34.1372 64.0278L39.3234 63.3116L45.5559 62.5453L51.37 61.936L57.1842 61.3266L62.9983 60.4126L64.8037 59.9436C65.3471 59.8024 65.8645 59.5755 66.3364 59.2713C67.3328 58.6291 68.084 57.6702 68.4692 56.549L68.5187 56.4049C68.6471 56.0309 68.7365 55.6446 68.7852 55.2521L68.9112 54.2384C68.9702 53.7633 68.971 53.2829 68.9137 52.8077L68.85 52.2802C68.7597 51.5323 68.4615 50.8246 67.9893 50.2376C67.7047 49.884 67.3625 49.5809 66.9769 49.3413L66.7314 49.1887C65.7684 48.5903 64.6496 48.2912 63.5165 48.3292Z"
              fill="#1F1F1F" stroke="url(#paint0_linear_82_13)" stroke-linejoin="round"/>
        <path d="M8.43046 11.2831L8.24829 10.0755C8.17853 9.61304 8.21242 9.14083 8.34752 8.69306L8.40459 8.5039C8.6059 7.83667 9.06005 7.27456 9.6701 6.93756V6.93756C10.1747 6.65883 10.7559 6.55083 11.3269 6.62969L12.1312 6.74077C13.2351 6.89322 14.1835 7.60159 14.6429 8.61684V8.61684C14.7269 8.80229 14.7932 8.99524 14.8409 9.19311L14.9004 9.43954C15.1882 10.6318 15.0554 11.887 14.5245 12.9927L14.3521 13.3518C14.0367 14.0086 13.5446 14.5645 12.9309 14.9573V14.9573C12.4049 15.2939 11.8062 15.5001 11.1845 15.5586L9.17401 15.7478M16.6523 16.8608L16.717 16.716C17.2525 15.5162 17.6834 14.2725 18.0047 12.9985V12.9985V12.9985C18.2206 11.2454 18.2303 9.47296 18.0339 7.71752L18.0047 7.45706L17.892 6.67915C17.7528 5.71794 17.3737 4.80729 16.7897 4.03123V4.03123C16.5955 3.77308 16.3799 3.53166 16.1454 3.30951L16.0191 3.18998C15.0117 2.23597 13.7695 1.56589 12.419 1.24795L11.9566 1.1391"
              stroke="url(#paint1_linear_82_13)"/>
        <path d="M55.7828 48.5827L24.0224 50.8502C23.4301 50.8925 22.8524 51.0538 22.3238 51.3244V51.3244C21.8714 51.556 21.4624 51.864 21.1147 52.2347L20.9572 52.4028C20.4571 52.936 20.0625 53.5622 19.7965 54.2431V54.2431C19.5351 54.912 19.4001 55.626 19.4001 56.3442V57.1289C19.4001 57.5857 19.4575 58.0407 19.5707 58.4833L19.7447 59.1632C19.8833 59.7046 20.1703 60.1964 20.5734 60.5834V60.5834C20.7414 60.7447 20.9276 60.8859 21.1283 61.0041L21.8001 61.3998L21.8244 61.4137C22.539 61.822 23.3581 62.0105 24.1792 61.9558V61.9558C24.6171 61.9266 25.0477 61.8287 25.4552 61.6658L25.5302 61.6358C25.9217 61.4792 26.2904 61.2706 26.6262 61.0157L26.9306 60.7846C27.3768 60.4458 27.7392 60.009 27.9897 59.508V59.508C28.1977 59.092 28.3244 58.6403 28.363 58.1769L28.4202 57.4898C28.4586 57.0295 28.3981 56.5664 28.2427 56.1314L28.2199 56.0674C27.9404 55.2849 27.3565 54.6487 26.6009 54.3033V54.3033C25.8037 53.9389 24.889 53.9316 24.0862 54.2833L23.8871 54.3705C23.3897 54.5884 22.9668 54.9467 22.6703 55.4015V55.4015C22.3749 55.8545 22.2176 56.3837 22.2176 56.9245V57.9044"
              stroke="url(#paint2_linear_82_13)"/>
        <path d="M27.1585 65L28.8549 63.243C29.2597 62.8236 29.6248 62.3676 29.9453 61.8807L30.1941 61.5027C30.8501 60.5061 31.2601 59.3679 31.3902 58.1819V58.1819C31.4501 57.6358 31.4501 57.0847 31.3902 56.5386L31.2563 55.3178C31.2137 54.9299 31.128 54.5479 31.0008 54.179V54.179C30.4039 52.4479 28.9483 51.1529 27.1596 50.7615L26.7393 50.6696"
              stroke="url(#paint3_linear_82_13)"/>
        <mask id="path-6-outside-1_82_13" maskUnits="userSpaceOnUse" x="16.8257" y="29.0038" width="34.656"
              height="18.9277" fill="black">
            <rect fill="white" x="16.8257" y="29.0038" width="34.656" height="18.9277"/>
            <path d="M22.4919 30.572L21.9526 37.2282L24.8581 37.0463L25.411 30.6041L28.0559 30.7004L26.6863 45.6181L24.1427 45.7144L24.6876 39.4862L21.6896 39.7431L21.1784 45.586L18.5834 45.7786C18.7666 43.9308 18.9455 42.0082 19.1203 40.0106C19.3806 37.0356 19.6312 33.9251 19.8722 30.679L22.4919 30.572ZM30.4809 30.8396L33.5672 30.679C33.2581 33.4757 33.0255 35.7657 32.8695 37.5493C32.6535 40.0177 32.5833 41.5159 32.6589 42.0438C32.7814 42.9356 33.2529 43.3993 34.0733 43.435C34.0942 43.4421 34.1225 43.4457 34.1583 43.4457C34.9317 43.4457 35.4541 42.9998 35.7255 42.108C35.8611 41.6229 36.0293 40.2317 36.2303 37.9345C36.3913 36.0939 36.5707 33.6754 36.7684 30.679L39.7729 30.8396C39.7295 31.4174 39.6841 31.9775 39.6367 32.5197C39.597 33.0547 39.555 33.5755 39.5107 34.0821C39.1668 38.013 38.8594 40.6669 38.5886 42.0438C38.2298 43.7703 37.4753 44.9047 36.325 45.4469C35.4737 45.8464 34.6362 46.0461 33.8126 46.0461C33.4904 46.0461 33.1709 46.014 32.8543 45.9498C31.7187 45.7501 30.8849 45.1722 30.3526 44.2162C29.8322 43.2888 29.6912 41.4624 29.9296 38.7371L30.0467 37.3995C30.1528 36.1867 30.2425 35.038 30.3159 33.9536C30.3893 32.8692 30.4443 31.8312 30.4809 30.8396ZM44.4749 32.9477L44.1424 37.239C45.4763 37.2175 46.3616 36.8394 46.7983 36.1046C47.0434 35.6766 47.1841 35.2556 47.2203 34.8419C47.2496 34.5065 47.2155 34.1605 47.1178 33.8038C46.9429 33.1832 46.3756 32.8728 45.416 32.8728C45.2799 32.8728 45.1325 32.8799 44.9737 32.8942C44.8227 32.9014 44.6564 32.9192 44.4749 32.9477ZM40.9652 45.6823C41.0779 44.3125 41.1931 42.9142 41.3108 41.4874C41.4362 40.0534 41.5657 38.573 41.6993 37.0463L41.9699 33.9536C42.061 32.9121 42.1576 31.8491 42.2596 30.7647C42.7323 30.6006 43.5631 30.5185 44.7519 30.5185C45.0383 30.5185 45.3421 30.5257 45.6631 30.5399C45.9919 30.5471 46.3419 30.5578 46.713 30.572C48.9726 30.6933 49.9981 32.1915 49.7895 35.0666L49.7876 35.088C49.6566 36.5862 48.7817 37.6634 47.1631 38.3198C48.7332 38.7906 49.4535 39.8893 49.3239 41.6158L49.3165 41.7014C49.1685 43.3922 48.3352 44.5265 46.8166 45.1044C45.6607 45.5467 44.2914 45.7679 42.7087 45.7679C42.4294 45.7679 42.1436 45.7608 41.8512 45.7465C41.566 45.7322 41.2707 45.7108 40.9652 45.6823ZM44.007 39.4006L43.6326 43.435C43.7107 43.4421 43.7856 43.4457 43.8572 43.4457H44.0613C45.3575 43.4457 46.2134 43.1175 46.6289 42.4612C46.8385 42.1116 46.958 41.7692 46.9873 41.4339C47.0192 41.07 46.9501 40.7133 46.7802 40.3637C46.4353 39.7217 45.5933 39.4006 44.2541 39.4006H44.007Z"/>
        </mask>
        <path d="M22.4919 30.572L21.9526 37.2282L24.8581 37.0463L25.411 30.6041L28.0559 30.7004L26.6863 45.6181L24.1427 45.7144L24.6876 39.4862L21.6896 39.7431L21.1784 45.586L18.5834 45.7786C18.7666 43.9308 18.9455 42.0082 19.1203 40.0106C19.3806 37.0356 19.6312 33.9251 19.8722 30.679L22.4919 30.572ZM30.4809 30.8396L33.5672 30.679C33.2581 33.4757 33.0255 35.7657 32.8695 37.5493C32.6535 40.0177 32.5833 41.5159 32.6589 42.0438C32.7814 42.9356 33.2529 43.3993 34.0733 43.435C34.0942 43.4421 34.1225 43.4457 34.1583 43.4457C34.9317 43.4457 35.4541 42.9998 35.7255 42.108C35.8611 41.6229 36.0293 40.2317 36.2303 37.9345C36.3913 36.0939 36.5707 33.6754 36.7684 30.679L39.7729 30.8396C39.7295 31.4174 39.6841 31.9775 39.6367 32.5197C39.597 33.0547 39.555 33.5755 39.5107 34.0821C39.1668 38.013 38.8594 40.6669 38.5886 42.0438C38.2298 43.7703 37.4753 44.9047 36.325 45.4469C35.4737 45.8464 34.6362 46.0461 33.8126 46.0461C33.4904 46.0461 33.1709 46.014 32.8543 45.9498C31.7187 45.7501 30.8849 45.1722 30.3526 44.2162C29.8322 43.2888 29.6912 41.4624 29.9296 38.7371L30.0467 37.3995C30.1528 36.1867 30.2425 35.038 30.3159 33.9536C30.3893 32.8692 30.4443 31.8312 30.4809 30.8396ZM44.4749 32.9477L44.1424 37.239C45.4763 37.2175 46.3616 36.8394 46.7983 36.1046C47.0434 35.6766 47.1841 35.2556 47.2203 34.8419C47.2496 34.5065 47.2155 34.1605 47.1178 33.8038C46.9429 33.1832 46.3756 32.8728 45.416 32.8728C45.2799 32.8728 45.1325 32.8799 44.9737 32.8942C44.8227 32.9014 44.6564 32.9192 44.4749 32.9477ZM40.9652 45.6823C41.0779 44.3125 41.1931 42.9142 41.3108 41.4874C41.4362 40.0534 41.5657 38.573 41.6993 37.0463L41.9699 33.9536C42.061 32.9121 42.1576 31.8491 42.2596 30.7647C42.7323 30.6006 43.5631 30.5185 44.7519 30.5185C45.0383 30.5185 45.3421 30.5257 45.6631 30.5399C45.9919 30.5471 46.3419 30.5578 46.713 30.572C48.9726 30.6933 49.9981 32.1915 49.7895 35.0666L49.7876 35.088C49.6566 36.5862 48.7817 37.6634 47.1631 38.3198C48.7332 38.7906 49.4535 39.8893 49.3239 41.6158L49.3165 41.7014C49.1685 43.3922 48.3352 44.5265 46.8166 45.1044C45.6607 45.5467 44.2914 45.7679 42.7087 45.7679C42.4294 45.7679 42.1436 45.7608 41.8512 45.7465C41.566 45.7322 41.2707 45.7108 40.9652 45.6823ZM44.007 39.4006L43.6326 43.435C43.7107 43.4421 43.7856 43.4457 43.8572 43.4457H44.0613C45.3575 43.4457 46.2134 43.1175 46.6289 42.4612C46.8385 42.1116 46.958 41.7692 46.9873 41.4339C47.0192 41.07 46.9501 40.7133 46.7802 40.3637C46.4353 39.7217 45.5933 39.4006 44.2541 39.4006H44.007Z"
              fill="#DBD327"/>
        <path d="M22.4919 30.572L23.4925 30.5656L23.5761 29.5343L22.5379 29.5767L22.4919 30.572ZM21.9526 37.2282L20.952 37.2347L20.8666 38.289L21.9287 38.2225L21.9526 37.2282ZM24.8581 37.0463L24.8342 38.0405L25.7779 37.9815L25.8583 37.0447L24.8581 37.0463ZM25.411 30.6041L25.5345 29.6086L24.4997 29.5709L24.4109 30.6058L25.411 30.6041ZM28.0559 30.7004L29.0555 30.7047L29.1441 29.74L28.1794 29.7049L28.0559 30.7004ZM26.6863 45.6181L26.6373 46.6135L27.5983 46.5772L27.6859 45.6224L26.6863 45.6181ZM24.1427 45.7144H23.1427L23.0522 46.7493L24.0938 46.7099L24.1427 45.7144ZM24.6876 39.4862H25.6876L25.7827 38.4L24.6882 38.4937L24.6876 39.4862ZM21.6896 39.7431L21.6901 38.7506L20.7695 38.8294L20.6896 39.7431H21.6896ZM21.1784 45.586L21.1663 46.5794L22.0975 46.5103L22.1784 45.586H21.1784ZM18.5834 45.7786L17.5845 45.7671L17.4768 46.8532L18.5713 46.772L18.5834 45.7786ZM19.8722 30.679L19.9182 29.6837L18.9431 29.7235L18.8712 30.6922L19.8722 30.679ZM21.4914 30.5784L20.952 37.2347L22.9531 37.2218L23.4925 30.5656L21.4914 30.5784ZM21.9287 38.2225L24.8342 38.0405L24.882 36.0521L21.9765 36.234L21.9287 38.2225ZM25.8583 37.0447L26.4112 30.6025L24.4109 30.6058L23.858 37.048L25.8583 37.0447ZM25.2875 31.5997L27.9324 31.696L28.1794 29.7049L25.5345 29.6086L25.2875 31.5997ZM27.0563 30.6962L25.6867 45.6138L27.6859 45.6224L29.0555 30.7047L27.0563 30.6962ZM26.7353 44.6226L24.1917 44.7189L24.0938 46.7099L26.6373 46.6135L26.7353 44.6226ZM25.1427 45.7144L25.6876 39.4862H23.6876L23.1427 45.7144H25.1427ZM24.6882 38.4937L21.6901 38.7506L21.6891 40.7355L24.6871 40.4787L24.6882 38.4937ZM20.6896 39.7431L20.1784 45.586H22.1784L22.6896 39.7431H20.6896ZM21.1905 44.5926L18.5955 44.7852L18.5713 46.772L21.1663 46.5794L21.1905 44.5926ZM19.5823 45.7901C19.7659 43.9382 19.9452 42.0117 20.1203 40.0106H18.1203C17.9458 42.0046 17.7672 43.9234 17.5845 45.7671L19.5823 45.7901ZM20.1203 40.0106C20.381 37.0309 20.632 33.916 20.8733 30.6659L18.8712 30.6922C18.6304 33.9343 18.3801 37.0404 18.1203 40.0106H20.1203ZM19.8263 31.6744L22.446 31.5674L22.5379 29.5767L19.9182 29.6837L19.8263 31.6744ZM30.4809 30.8396L30.5156 29.8447L29.5145 29.8968L29.4778 30.8897L30.4809 30.8396ZM33.5672 30.679L34.565 30.7019L34.6837 29.628L33.6019 29.6842L33.5672 30.679ZM32.6589 42.0438L33.6538 41.8261L33.653 41.8208L32.6589 42.0438ZM34.0733 43.435L34.4722 42.4899L34.3432 42.4458L34.2038 42.4398L34.0733 43.435ZM35.7255 42.108L36.6846 42.3184L36.6881 42.3068L36.6914 42.2951L35.7255 42.108ZM36.7684 30.679L36.9087 29.6843L35.8376 29.627L35.7668 30.7004L36.7684 30.679ZM39.7729 30.8396L40.7739 30.8273L40.844 29.8945L39.9133 29.8448L39.7729 30.8396ZM39.6367 32.5197H38.6366L38.6356 32.533L39.6367 32.5197ZM38.5886 42.0438L39.5711 42.1624L39.5733 42.1516L38.5886 42.0438ZM36.325 45.4469L36.6877 46.341L36.6894 46.3402L36.325 45.4469ZM32.8543 45.9498L33.1358 44.973L33.1237 44.9705L33.1115 44.9684L32.8543 45.9498ZM30.3526 44.2162L31.2413 43.6781L31.2398 43.6756L30.3526 44.2162ZM30.4463 31.8344L33.5326 31.6739L33.6019 29.6842L30.5156 29.8447L30.4463 31.8344ZM32.5695 30.6562C32.2599 33.4567 32.0265 35.7551 31.8695 37.5493H33.8695C34.0246 35.7764 34.2563 33.4946 34.565 30.7019L32.5695 30.6562ZM31.8695 37.5493C31.761 38.7896 31.6882 39.7963 31.6522 40.5645C31.6175 41.3035 31.6122 41.8995 31.6648 42.2669L33.653 41.8208C33.63 41.6602 33.622 41.2432 33.6576 40.484C33.6918 39.7541 33.762 38.7774 33.8695 37.5493H31.8695ZM31.664 42.2616C31.7439 42.8432 31.952 43.3892 32.3672 43.7976C32.7914 44.2148 33.3463 44.4043 33.9428 44.4303L34.2038 42.4398C33.9798 42.43 33.8888 42.3698 33.8415 42.3233C33.7852 42.268 33.6964 42.1363 33.6537 41.8261L31.664 42.2616ZM33.6744 44.3801C33.8346 44.4349 33.9827 44.4419 34.0711 44.4419L34.2455 42.4495C34.2596 42.4495 34.2859 42.4501 34.3207 42.4545C34.3545 42.4588 34.4081 42.468 34.4722 42.4899L33.6744 44.3801ZM34.0711 44.4419C34.6631 44.4419 35.2505 44.2649 35.7456 43.8423C36.222 43.4357 36.5111 42.8885 36.6846 42.3184L34.7665 41.8977C34.6686 42.2194 34.5608 42.341 34.5147 42.3803C34.4875 42.4036 34.4269 42.4495 34.2455 42.4495L34.0711 44.4419ZM36.6914 42.2951C36.7837 41.9648 36.8669 41.4201 36.9499 40.734C37.036 40.0226 37.1294 39.0881 37.2303 37.9345H35.2303C35.1303 39.0782 35.0391 39.9879 34.9568 40.6676C34.8716 41.3727 34.8029 41.7662 34.7597 41.921L36.6914 42.2951ZM37.2303 37.9345C37.3922 36.0838 37.5721 33.6574 37.77 30.6577L35.7668 30.7004C35.5693 33.6935 35.3905 36.104 35.2303 37.9345H37.2303ZM36.6281 31.6738L39.6326 31.8343L39.9133 29.8448L36.9087 29.6843L36.6281 31.6738ZM38.7719 30.8519C38.7288 31.4259 38.6837 31.9818 38.6367 32.5197H40.6367C40.6845 31.9731 40.7302 31.409 40.7739 30.8273L38.7719 30.8519ZM38.6356 32.533C38.5963 33.0638 38.5546 33.5802 38.5107 34.0821H40.5107C40.5554 33.5709 40.5978 33.0456 40.6377 32.5064L38.6356 32.533ZM38.5107 34.0821C38.1662 38.0198 37.8625 40.6211 37.6039 41.9361L39.5733 42.1516C39.8563 40.7128 40.1674 38.0062 40.5107 34.0821H38.5107ZM37.606 41.9253C37.2851 43.4698 36.6737 44.2174 35.9606 44.5535L36.6894 46.3402C38.277 45.5919 39.1746 44.0708 39.5711 42.1624L37.606 41.9253ZM35.9623 44.5527C35.2389 44.8922 34.5551 45.0499 33.8998 45.0499L33.7255 47.0423C34.7173 47.0423 35.7084 46.8005 36.6877 46.341L35.9623 44.5527ZM33.8998 45.0499C33.6447 45.0499 33.3903 45.0246 33.1358 44.973L32.5727 46.9267C32.9515 47.0035 33.3361 47.0423 33.7255 47.0423L33.8998 45.0499ZM33.1115 44.9684C32.2395 44.815 31.639 44.3924 31.2413 43.6781L29.4639 44.7543C30.1308 45.9519 31.198 46.6852 32.5971 46.9313L33.1115 44.9684ZM31.2398 43.6756C31.0736 43.3793 30.9237 42.8469 30.8575 41.9896C30.7925 41.1482 30.8131 40.0685 30.9296 38.7371H28.9296C28.8077 40.1311 28.7796 41.3271 28.8556 42.3121C28.9304 43.2812 29.1112 44.1257 29.4654 44.7569L31.2398 43.6756ZM30.9296 38.7371L31.0467 37.3995H29.0467L28.9296 38.7371H30.9296ZM31.0467 37.3995C31.1533 36.1809 31.2435 35.0257 31.3174 33.934L29.3144 33.9733C29.2415 35.0504 29.1523 36.1925 29.0467 37.3995H31.0467ZM31.3174 33.934C31.3914 32.8404 31.447 31.7921 31.484 30.7895L29.4778 30.8897C29.4416 31.8703 29.3871 32.8981 29.3144 33.9733L31.3174 33.934ZM44.4749 32.9477L44.403 31.964L43.5405 32.0996L43.4741 32.9577L44.4749 32.9477ZM44.1424 37.239L43.1416 37.2489L43.0639 38.2512L44.0714 38.235L44.1424 37.239ZM46.7983 36.1046L47.6517 36.5536L47.6563 36.5459L47.6607 36.5381L46.7983 36.1046ZM47.1178 33.8038L48.0882 33.4664L48.0864 33.4599L47.1178 33.8038ZM44.9737 32.8942L44.9342 33.8893L44.9558 33.8883L44.9774 33.8863L44.9737 32.8942ZM40.9652 45.6823L39.9648 45.6875L39.8905 46.5905L40.7858 46.6742L40.9652 45.6823ZM41.3108 41.4874H40.3108L40.3103 41.4924L41.3108 41.4874ZM42.2596 30.7647L42.0034 29.8272L41.3257 30.0624L41.2602 30.7581L42.2596 30.7647ZM45.6631 30.5399L45.5316 31.5351L45.5429 31.5356L45.5542 31.5359L45.6631 30.5399ZM46.713 30.572L46.8536 29.5773L46.8461 29.5769L46.8385 29.5766L46.713 30.572ZM49.7895 35.0666H50.7895L50.7902 35.0592L50.7907 35.0518L49.7895 35.0666ZM47.1631 38.3198L46.8546 37.402L44.1742 38.4889L46.798 39.2757L47.1631 38.3198ZM49.3239 41.6158H50.324L50.3249 41.6034L49.3239 41.6158ZM46.8166 45.1044L46.5302 44.1779L46.5282 44.1787L46.8166 45.1044ZM41.8512 45.7465L41.7142 46.7414L41.7155 46.7415L41.8512 45.7465ZM44.007 39.4006L44.0942 38.4044H43.0995L43.0075 39.3953L44.007 39.4006ZM43.6326 43.435L42.633 43.4297L42.5481 44.3443L43.4552 44.4271L43.6326 43.435ZM46.6289 42.4612L47.4659 42.9369L47.4731 42.9255L47.48 42.9139L46.6289 42.4612ZM46.7802 40.3637L47.6916 39.8695L47.6838 39.8533L47.6753 39.8374L46.7802 40.3637ZM43.4741 32.9577L43.1416 37.2489L45.1432 37.229L45.4757 32.9378L43.4741 32.9577ZM44.0714 38.235C45.5331 38.2116 46.9167 37.7905 47.6517 36.5536L45.9449 35.6556C45.8066 35.8884 45.4195 36.2235 44.2134 36.2429L44.0714 38.235ZM47.6607 36.5381C47.9717 35.995 48.1691 35.4267 48.2203 34.8419H46.2203C46.1991 35.0846 46.1151 35.3581 45.9359 35.6711L47.6607 36.5381ZM48.2203 34.8419C48.2609 34.3775 48.2117 33.9173 48.0882 33.4664L46.1473 34.1413C46.2192 34.4037 46.2383 34.6356 46.2203 34.8419H48.2203ZM48.0864 33.4599C47.9328 32.9149 47.5933 32.4917 47.1026 32.2232C46.6362 31.9681 46.0796 31.8766 45.5032 31.8766L45.3288 33.869C45.712 33.869 45.9189 33.9327 46.0198 33.9879C46.0963 34.0298 46.1278 34.072 46.1491 34.1477L48.0864 33.4599ZM45.5032 31.8766C45.3325 31.8766 45.1544 31.8855 44.97 31.9021L44.9774 33.8863C45.1106 33.8744 45.2274 33.869 45.3288 33.869L45.5032 31.8766ZM45.0132 31.8992C44.8185 31.9084 44.6144 31.9308 44.403 31.964L44.5468 33.9314C44.6985 33.9076 44.8269 33.8944 44.9342 33.8893L45.0132 31.8992ZM41.9657 45.6771C42.0784 44.3074 42.1935 42.9092 42.3112 41.4824L40.3103 41.4924C40.1927 42.9193 40.0775 44.3176 39.9648 45.6875L41.9657 45.6771ZM42.3108 41.4874C42.311 41.4846 42.3113 41.4818 42.3115 41.479C42.3117 41.4762 42.312 41.4734 42.3122 41.4706C42.3125 41.4678 42.3127 41.465 42.313 41.4622C42.3132 41.4594 42.3135 41.4566 42.3137 41.4538C42.314 41.451 42.3142 41.4481 42.3144 41.4453C42.3147 41.4425 42.3149 41.4397 42.3152 41.4369C42.3154 41.4341 42.3157 41.4313 42.3159 41.4285C42.3162 41.4257 42.3164 41.4229 42.3166 41.4201C42.3169 41.4173 42.3171 41.4145 42.3174 41.4117C42.3176 41.4089 42.3179 41.4061 42.3181 41.4033C42.3184 41.4005 42.3186 41.3977 42.3189 41.3949C42.3191 41.3921 42.3193 41.3893 42.3196 41.3865C42.3198 41.3837 42.3201 41.3809 42.3203 41.3781C42.3206 41.3752 42.3208 41.3724 42.3211 41.3696C42.3213 41.3668 42.3216 41.364 42.3218 41.3612C42.322 41.3584 42.3223 41.3556 42.3225 41.3528C42.3228 41.35 42.323 41.3472 42.3233 41.3444C42.3235 41.3416 42.3238 41.3388 42.324 41.336C42.3243 41.3332 42.3245 41.3303 42.3247 41.3275C42.325 41.3247 42.3252 41.3219 42.3255 41.3191C42.3257 41.3163 42.326 41.3135 42.3262 41.3107C42.3265 41.3079 42.3267 41.3051 42.327 41.3023C42.3272 41.2995 42.3275 41.2966 42.3277 41.2938C42.3279 41.291 42.3282 41.2882 42.3284 41.2854C42.3287 41.2826 42.3289 41.2798 42.3292 41.277C42.3294 41.2742 42.3297 41.2714 42.3299 41.2686C42.3302 41.2657 42.3304 41.2629 42.3306 41.2601C42.3309 41.2573 42.3311 41.2545 42.3314 41.2517C42.3316 41.2489 42.3319 41.2461 42.3321 41.2433C42.3324 41.2404 42.3326 41.2376 42.3329 41.2348C42.3331 41.232 42.3334 41.2292 42.3336 41.2264C42.3338 41.2236 42.3341 41.2208 42.3343 41.218C42.3346 41.2151 42.3348 41.2123 42.3351 41.2095C42.3353 41.2067 42.3356 41.2039 42.3358 41.2011C42.3361 41.1983 42.3363 41.1955 42.3366 41.1926C42.3368 41.1898 42.337 41.187 42.3373 41.1842C42.3375 41.1814 42.3378 41.1786 42.338 41.1758C42.3383 41.1729 42.3385 41.1701 42.3388 41.1673C42.339 41.1645 42.3393 41.1617 42.3395 41.1589C42.3398 41.1561 42.34 41.1532 42.3402 41.1504C42.3405 41.1476 42.3407 41.1448 42.341 41.142C42.3412 41.1392 42.3415 41.1364 42.3417 41.1335C42.342 41.1307 42.3422 41.1279 42.3425 41.1251C42.3427 41.1223 42.343 41.1195 42.3432 41.1166C42.3434 41.1138 42.3437 41.111 42.3439 41.1082C42.3442 41.1054 42.3444 41.1026 42.3447 41.0997C42.3449 41.0969 42.3452 41.0941 42.3454 41.0913C42.3457 41.0885 42.3459 41.0857 42.3462 41.0828C42.3464 41.08 42.3467 41.0772 42.3469 41.0744C42.3471 41.0716 42.3474 41.0688 42.3476 41.0659C42.3479 41.0631 42.3481 41.0603 42.3484 41.0575C42.3486 41.0547 42.3489 41.0518 42.3491 41.049C42.3494 41.0462 42.3496 41.0434 42.3499 41.0406C42.3501 41.0377 42.3503 41.0349 42.3506 41.0321C42.3508 41.0293 42.3511 41.0265 42.3513 41.0236C42.3516 41.0208 42.3518 41.018 42.3521 41.0152C42.3523 41.0124 42.3526 41.0095 42.3528 41.0067C42.3531 41.0039 42.3533 41.0011 42.3536 40.9983C42.3538 40.9954 42.3541 40.9926 42.3543 40.9898C42.3545 40.987 42.3548 40.9841 42.355 40.9813C42.3553 40.9785 42.3555 40.9757 42.3558 40.9729C42.356 40.97 42.3563 40.9672 42.3565 40.9644C42.3568 40.9616 42.357 40.9587 42.3573 40.9559C42.3575 40.9531 42.3578 40.9503 42.358 40.9475C42.3582 40.9446 42.3585 40.9418 42.3587 40.939C42.359 40.9362 42.3592 40.9333 42.3595 40.9305C42.3597 40.9277 42.36 40.9249 42.3602 40.922C42.3605 40.9192 42.3607 40.9164 42.361 40.9136C42.3612 40.9107 42.3615 40.9079 42.3617 40.9051C42.362 40.9023 42.3622 40.8994 42.3625 40.8966C42.3627 40.8938 42.3629 40.891 42.3632 40.8881C42.3634 40.8853 42.3637 40.8825 42.3639 40.8797C42.3642 40.8768 42.3644 40.874 42.3647 40.8712C42.3649 40.8684 42.3652 40.8655 42.3654 40.8627C42.3657 40.8599 42.3659 40.857 42.3662 40.8542C42.3664 40.8514 42.3667 40.8486 42.3669 40.8457C42.3671 40.8429 42.3674 40.8401 42.3676 40.8373C42.3679 40.8344 42.3681 40.8316 42.3684 40.8288C42.3686 40.8259 42.3689 40.8231 42.3691 40.8203C42.3694 40.8175 42.3696 40.8146 42.3699 40.8118C42.3701 40.809 42.3704 40.8061 42.3706 40.8033C42.3709 40.8005 42.3711 40.7977 42.3714 40.7948C42.3716 40.792 42.3719 40.7892 42.3721 40.7863C42.3723 40.7835 42.3726 40.7807 42.3728 40.7778C42.3731 40.775 42.3733 40.7722 42.3736 40.7693C42.3738 40.7665 42.3741 40.7637 42.3743 40.7609C42.3746 40.758 42.3748 40.7552 42.3751 40.7524C42.3753 40.7495 42.3756 40.7467 42.3758 40.7439C42.3761 40.741 42.3763 40.7382 42.3766 40.7354C42.3768 40.7325 42.3771 40.7297 42.3773 40.7269C42.3775 40.724 42.3778 40.7212 42.378 40.7184C42.3783 40.7155 42.3785 40.7127 42.3788 40.7099C42.379 40.707 42.3793 40.7042 42.3795 40.7014C42.3798 40.6985 42.38 40.6957 42.3803 40.6929C42.3805 40.69 42.3808 40.6872 42.381 40.6844C42.3813 40.6815 42.3815 40.6787 42.3818 40.6759C42.382 40.673 42.3823 40.6702 42.3825 40.6674C42.3828 40.6645 42.383 40.6617 42.3833 40.6589C42.3835 40.656 42.3837 40.6532 42.384 40.6504C42.3842 40.6475 42.3845 40.6447 42.3847 40.6418C42.385 40.639 42.3852 40.6362 42.3855 40.6333C42.3857 40.6305 42.386 40.6277 42.3862 40.6248C42.3865 40.622 42.3867 40.6192 42.387 40.6163C42.3872 40.6135 42.3875 40.6106 42.3877 40.6078C42.388 40.605 42.3882 40.6021 42.3885 40.5993C42.3887 40.5965 42.389 40.5936 42.3892 40.5908C42.3895 40.5879 42.3897 40.5851 42.39 40.5823C42.3902 40.5794 42.3904 40.5766 42.3907 40.5737C42.3909 40.5709 42.3912 40.5681 42.3914 40.5652C42.3917 40.5624 42.3919 40.5595 42.3922 40.5567C42.3924 40.5539 42.3927 40.551 42.3929 40.5482C42.3932 40.5453 42.3934 40.5425 42.3937 40.5397C42.3939 40.5368 42.3942 40.534 42.3944 40.5311C42.3947 40.5283 42.3949 40.5255 42.3952 40.5226C42.3954 40.5198 42.3957 40.5169 42.3959 40.5141C42.3962 40.5113 42.3964 40.5084 42.3967 40.5056C42.3969 40.5027 42.3972 40.4999 42.3974 40.497C42.3977 40.4942 42.3979 40.4914 42.3982 40.4885C42.3984 40.4857 42.3987 40.4828 42.3989 40.48C42.3991 40.4772 42.3994 40.4743 42.3996 40.4715C42.3999 40.4686 42.4001 40.4658 42.4004 40.4629C42.4006 40.4601 42.4009 40.4572 42.4011 40.4544C42.4014 40.4516 42.4016 40.4487 42.4019 40.4459C42.4021 40.443 42.4024 40.4402 42.4026 40.4373C42.4029 40.4345 42.4031 40.4316 42.4034 40.4288C42.4036 40.426 42.4039 40.4231 42.4041 40.4203C42.4044 40.4174 42.4046 40.4146 42.4049 40.4117C42.4051 40.4089 42.4054 40.406 42.4056 40.4032C42.4059 40.4003 42.4061 40.3975 42.4064 40.3947C42.4066 40.3918 42.4069 40.389 42.4071 40.3861C42.4074 40.3833 42.4076 40.3804 42.4079 40.3776C42.4081 40.3747 42.4084 40.3719 42.4086 40.369C42.4089 40.3662 42.4091 40.3633 42.4094 40.3605C42.4096 40.3576 42.4099 40.3548 42.4101 40.3519C42.4104 40.3491 42.4106 40.3463 42.4109 40.3434C42.4111 40.3406 42.4113 40.3377 42.4116 40.3349C42.4118 40.332 42.4121 40.3292 42.4123 40.3263C42.4126 40.3235 42.4128 40.3206 42.4131 40.3178C42.4133 40.3149 42.4136 40.3121 42.4138 40.3092C42.4141 40.3064 42.4143 40.3035 42.4146 40.3007C42.4148 40.2978 42.4151 40.295 42.4153 40.2921C42.4156 40.2893 42.4158 40.2864 42.4161 40.2836C42.4163 40.2807 42.4166 40.2779 42.4168 40.275C42.4171 40.2722 42.4173 40.2693 42.4176 40.2664C42.4178 40.2636 42.4181 40.2607 42.4183 40.2579C42.4186 40.255 42.4188 40.2522 42.4191 40.2493C42.4193 40.2465 42.4196 40.2436 42.4198 40.2408C42.4201 40.2379 42.4203 40.2351 42.4206 40.2322C42.4208 40.2294 42.4211 40.2265 42.4213 40.2237C42.4216 40.2208 42.4218 40.218 42.4221 40.2151C42.4223 40.2122 42.4226 40.2094 42.4228 40.2065C42.4231 40.2037 42.4233 40.2008 42.4236 40.198C42.4238 40.1951 42.4241 40.1923 42.4243 40.1894C42.4246 40.1866 42.4248 40.1837 42.4251 40.1808C42.4253 40.178 42.4256 40.1751 42.4258 40.1723C42.4261 40.1694 42.4263 40.1666 42.4266 40.1637C42.4268 40.1609 42.4271 40.158 42.4273 40.1551C42.4276 40.1523 42.4278 40.1494 42.4281 40.1466C42.4283 40.1437 42.4286 40.1409 42.4288 40.138C42.4291 40.1351 42.4293 40.1323 42.4296 40.1294C42.4298 40.1266 42.4301 40.1237 42.4303 40.1209C42.4306 40.118 42.4308 40.1151 42.4311 40.1123C42.4313 40.1094 42.4316 40.1066 42.4318 40.1037C42.4321 40.1009 42.4323 40.098 42.4326 40.0951C42.4328 40.0923 42.4331 40.0894 42.4333 40.0866C42.4336 40.0837 42.4338 40.0808 42.4341 40.078C42.4343 40.0751 42.4346 40.0723 42.4348 40.0694C42.4351 40.0665 42.4353 40.0637 42.4356 40.0608C42.4358 40.058 42.4361 40.0551 42.4363 40.0522C42.4366 40.0494 42.4368 40.0465 42.4371 40.0437C42.4373 40.0408 42.4376 40.0379 42.4378 40.0351C42.4381 40.0322 42.4383 40.0294 42.4386 40.0265C42.4388 40.0236 42.4391 40.0208 42.4393 40.0179C42.4396 40.015 42.4398 40.0122 42.4401 40.0093C42.4403 40.0065 42.4406 40.0036 42.4408 40.0007C42.4411 39.9979 42.4413 39.995 42.4416 39.9921C42.4418 39.9893 42.4421 39.9864 42.4423 39.9836C42.4426 39.9807 42.4428 39.9778 42.4431 39.975C42.4433 39.9721 42.4436 39.9692 42.4438 39.9664C42.4441 39.9635 42.4443 39.9606 42.4446 39.9578C42.4448 39.9549 42.4451 39.9521 42.4453 39.9492C42.4456 39.9463 42.4458 39.9435 42.4461 39.9406C42.4463 39.9377 42.4466 39.9349 42.4468 39.932C42.4471 39.9291 42.4473 39.9263 42.4476 39.9234C42.4478 39.9205 42.4481 39.9177 42.4483 39.9148C42.4486 39.9119 42.4488 39.9091 42.4491 39.9062C42.4494 39.9033 42.4496 39.9005 42.4499 39.8976C42.4501 39.8947 42.4504 39.8919 42.4506 39.889C42.4509 39.8861 42.4511 39.8833 42.4514 39.8804C42.4516 39.8775 42.4519 39.8747 42.4521 39.8718C42.4524 39.8689 42.4526 39.8661 42.4529 39.8632C42.4531 39.8603 42.4534 39.8575 42.4536 39.8546C42.4539 39.8517 42.4541 39.8488 42.4544 39.846C42.4546 39.8431 42.4549 39.8402 42.4551 39.8374C42.4554 39.8345 42.4556 39.8316 42.4559 39.8288C42.4561 39.8259 42.4564 39.823 42.4566 39.8202C42.4569 39.8173 42.4571 39.8144 42.4574 39.8115C42.4576 39.8087 42.4579 39.8058 42.4581 39.8029C42.4584 39.8001 42.4586 39.7972 42.4589 39.7943C42.4591 39.7914 42.4594 39.7886 42.4596 39.7857C42.4599 39.7828 42.4601 39.78 42.4604 39.7771C42.4606 39.7742 42.4609 39.7713 42.4612 39.7685C42.4614 39.7656 42.4617 39.7627 42.4619 39.7599C42.4622 39.757 42.4624 39.7541 42.4627 39.7512C42.4629 39.7484 42.4632 39.7455 42.4634 39.7426C42.4637 39.7397 42.4639 39.7369 42.4642 39.734C42.4644 39.7311 42.4647 39.7282 42.4649 39.7254C42.4652 39.7225 42.4654 39.7196 42.4657 39.7168C42.4659 39.7139 42.4662 39.711 42.4664 39.7081C42.4667 39.7053 42.4669 39.7024 42.4672 39.6995C42.4674 39.6966 42.4677 39.6938 42.4679 39.6909C42.4682 39.688 42.4684 39.6851 42.4687 39.6823C42.4689 39.6794 42.4692 39.6765 42.4694 39.6736C42.4697 39.6707 42.47 39.6679 42.4702 39.665C42.4705 39.6621 42.4707 39.6592 42.471 39.6564C42.4712 39.6535 42.4715 39.6506 42.4717 39.6477C42.472 39.6449 42.4722 39.642 42.4725 39.6391C42.4727 39.6362 42.473 39.6333 42.4732 39.6305C42.4735 39.6276 42.4737 39.6247 42.474 39.6218C42.4742 39.619 42.4745 39.6161 42.4747 39.6132C42.475 39.6103 42.4752 39.6074 42.4755 39.6046C42.4757 39.6017 42.476 39.5988 42.4762 39.5959C42.4765 39.593 42.4767 39.5902 42.477 39.5873C42.4773 39.5844 42.4775 39.5815 42.4778 39.5786C42.478 39.5758 42.4783 39.5729 42.4785 39.57C42.4788 39.5671 42.479 39.5642 42.4793 39.5614C42.4795 39.5585 42.4798 39.5556 42.48 39.5527C42.4803 39.5498 42.4805 39.547 42.4808 39.5441C42.481 39.5412 42.4813 39.5383 42.4815 39.5354C42.4818 39.5326 42.482 39.5297 42.4823 39.5268C42.4825 39.5239 42.4828 39.521 42.4831 39.5181C42.4833 39.5153 42.4836 39.5124 42.4838 39.5095C42.4841 39.5066 42.4843 39.5037 42.4846 39.5008C42.4848 39.498 42.4851 39.4951 42.4853 39.4922C42.4856 39.4893 42.4858 39.4864 42.4861 39.4835C42.4863 39.4807 42.4866 39.4778 42.4868 39.4749C42.4871 39.472 42.4873 39.4691 42.4876 39.4662C42.4878 39.4634 42.4881 39.4605 42.4883 39.4576C42.4886 39.4547 42.4889 39.4518 42.4891 39.4489C42.4894 39.446 42.4896 39.4432 42.4899 39.4403C42.4901 39.4374 42.4904 39.4345 42.4906 39.4316C42.4909 39.4287 42.4911 39.4258 42.4914 39.423C42.4916 39.4201 42.4919 39.4172 42.4921 39.4143C42.4924 39.4114 42.4926 39.4085 42.4929 39.4056C42.4931 39.4028 42.4934 39.3999 42.4937 39.397C42.4939 39.3941 42.4942 39.3912 42.4944 39.3883C42.4947 39.3854 42.4949 39.3825 42.4952 39.3797C42.4954 39.3768 42.4957 39.3739 42.4959 39.371C42.4962 39.3681 42.4964 39.3652 42.4967 39.3623C42.4969 39.3594 42.4972 39.3565 42.4974 39.3537C42.4977 39.3508 42.4979 39.3479 42.4982 39.345C42.4985 39.3421 42.4987 39.3392 42.499 39.3363C42.4992 39.3334 42.4995 39.3305 42.4997 39.3276C42.5 39.3248 42.5002 39.3219 42.5005 39.319C42.5007 39.3161 42.501 39.3132 42.5012 39.3103C42.5015 39.3074 42.5017 39.3045 42.502 39.3016C42.5022 39.2987 42.5025 39.2958 42.5028 39.293C42.503 39.2901 42.5033 39.2872 42.5035 39.2843C42.5038 39.2814 42.504 39.2785 42.5043 39.2756C42.5045 39.2727 42.5048 39.2698 42.505 39.2669C42.5053 39.264 42.5055 39.2611 42.5058 39.2582C42.506 39.2554 42.5063 39.2525 42.5065 39.2496C42.5068 39.2467 42.5071 39.2438 42.5073 39.2409C42.5076 39.238 42.5078 39.2351 42.5081 39.2322C42.5083 39.2293 42.5086 39.2264 42.5088 39.2235C42.5091 39.2206 42.5093 39.2177 42.5096 39.2148C42.5098 39.2119 42.5101 39.209 42.5103 39.2062C42.5106 39.2033 42.5109 39.2004 42.5111 39.1975C42.5114 39.1946 42.5116 39.1917 42.5119 39.1888C42.5121 39.1859 42.5124 39.183 42.5126 39.1801C42.5129 39.1772 42.5131 39.1743 42.5134 39.1714C42.5136 39.1685 42.5139 39.1656 42.5141 39.1627C42.5144 39.1598 42.5147 39.1569 42.5149 39.154C42.5152 39.1511 42.5154 39.1482 42.5157 39.1453C42.5159 39.1424 42.5162 39.1395 42.5164 39.1366C42.5167 39.1337 42.5169 39.1308 42.5172 39.1279C42.5174 39.125 42.5177 39.1221 42.518 39.1192C42.5182 39.1163 42.5185 39.1134 42.5187 39.1105C42.519 39.1076 42.5192 39.1047 42.5195 39.1018C42.5197 39.0989 42.52 39.096 42.5202 39.0931C42.5205 39.0902 42.5207 39.0873 42.521 39.0844C42.5212 39.0815 42.5215 39.0786 42.5218 39.0757C42.522 39.0728 42.5223 39.0699 42.5225 39.067C42.5228 39.0641 42.523 39.0612 42.5233 39.0583C42.5235 39.0554 42.5238 39.0525 42.524 39.0496C42.5243 39.0467 42.5245 39.0438 42.5248 39.0409C42.5251 39.038 42.5253 39.0351 42.5256 39.0322C42.5258 39.0293 42.5261 39.0264 42.5263 39.0235C42.5266 39.0206 42.5268 39.0177 42.5271 39.0148C42.5273 39.0119 42.5276 39.009 42.5278 39.0061C42.5281 39.0032 42.5284 39.0003 42.5286 38.9974C42.5289 38.9945 42.5291 38.9916 42.5294 38.9887C42.5296 38.9858 42.5299 38.9829 42.5301 38.98C42.5304 38.9771 42.5306 38.9742 42.5309 38.9713C42.5312 38.9683 42.5314 38.9654 42.5317 38.9625C42.5319 38.9596 42.5322 38.9567 42.5324 38.9538C42.5327 38.9509 42.5329 38.948 42.5332 38.9451C42.5334 38.9422 42.5337 38.9393 42.5339 38.9364C42.5342 38.9335 42.5345 38.9306 42.5347 38.9277C42.535 38.9248 42.5352 38.9219 42.5355 38.9189C42.5357 38.916 42.536 38.9131 42.5362 38.9102C42.5365 38.9073 42.5367 38.9044 42.537 38.9015C42.5373 38.8986 42.5375 38.8957 42.5378 38.8928C42.538 38.8899 42.5383 38.887 42.5385 38.8841C42.5388 38.8811 42.539 38.8782 42.5393 38.8753C42.5395 38.8724 42.5398 38.8695 42.5401 38.8666C42.5403 38.8637 42.5406 38.8608 42.5408 38.8579C42.5411 38.855 42.5413 38.8521 42.5416 38.8491C42.5418 38.8462 42.5421 38.8433 42.5423 38.8404C42.5426 38.8375 42.5429 38.8346 42.5431 38.8317C42.5434 38.8288 42.5436 38.8259 42.5439 38.823C42.5441 38.82 42.5444 38.8171 42.5446 38.8142C42.5449 38.8113 42.5451 38.8084 42.5454 38.8055C42.5457 38.8026 42.5459 38.7997 42.5462 38.7968C42.5464 38.7938 42.5467 38.7909 42.5469 38.788C42.5472 38.7851 42.5474 38.7822 42.5477 38.7793C42.5479 38.7764 42.5482 38.7735 42.5485 38.7705C42.5487 38.7676 42.549 38.7647 42.5492 38.7618C42.5495 38.7589 42.5497 38.756 42.55 38.7531C42.5502 38.7502 42.5505 38.7472 42.5508 38.7443C42.551 38.7414 42.5513 38.7385 42.5515 38.7356C42.5518 38.7327 42.552 38.7298 42.5523 38.7268C42.5525 38.7239 42.5528 38.721 42.553 38.7181C42.5533 38.7152 42.5536 38.7123 42.5538 38.7093C42.5541 38.7064 42.5543 38.7035 42.5546 38.7006C42.5548 38.6977 42.5551 38.6948 42.5553 38.6919C42.5556 38.6889 42.5559 38.686 42.5561 38.6831C42.5564 38.6802 42.5566 38.6773 42.5569 38.6744C42.5571 38.6714 42.5574 38.6685 42.5576 38.6656C42.5579 38.6627 42.5581 38.6598 42.5584 38.6569C42.5587 38.6539 42.5589 38.651 42.5592 38.6481C42.5594 38.6452 42.5597 38.6423 42.5599 38.6393C42.5602 38.6364 42.5604 38.6335 42.5607 38.6306C42.561 38.6277 42.5612 38.6248 42.5615 38.6218C42.5617 38.6189 42.562 38.616 42.5622 38.6131C42.5625 38.6102 42.5627 38.6072 42.563 38.6043C42.5633 38.6014 42.5635 38.5985 42.5638 38.5956C42.564 38.5926 42.5643 38.5897 42.5645 38.5868C42.5648 38.5839 42.565 38.581 42.5653 38.578C42.5656 38.5751 42.5658 38.5722 42.5661 38.5693C42.5663 38.5664 42.5666 38.5634 42.5668 38.5605C42.5671 38.5576 42.5673 38.5547 42.5676 38.5517C42.5679 38.5488 42.5681 38.5459 42.5684 38.543C42.5686 38.5401 42.5689 38.5371 42.5691 38.5342C42.5694 38.5313 42.5696 38.5284 42.5699 38.5254C42.5702 38.5225 42.5704 38.5196 42.5707 38.5167C42.5709 38.5138 42.5712 38.5108 42.5714 38.5079C42.5717 38.505 42.5719 38.5021 42.5722 38.4991C42.5725 38.4962 42.5727 38.4933 42.573 38.4904C42.5732 38.4874 42.5735 38.4845 42.5737 38.4816C42.574 38.4787 42.5742 38.4757 42.5745 38.4728C42.5748 38.4699 42.575 38.467 42.5753 38.464C42.5755 38.4611 42.5758 38.4582 42.576 38.4553C42.5763 38.4523 42.5766 38.4494 42.5768 38.4465C42.5771 38.4436 42.5773 38.4406 42.5776 38.4377C42.5778 38.4348 42.5781 38.4319 42.5783 38.4289C42.5786 38.426 42.5789 38.4231 42.5791 38.4201C42.5794 38.4172 42.5796 38.4143 42.5799 38.4114C42.5801 38.4084 42.5804 38.4055 42.5806 38.4026C42.5809 38.3997 42.5812 38.3967 42.5814 38.3938C42.5817 38.3909 42.5819 38.3879 42.5822 38.385C42.5824 38.3821 42.5827 38.3792 42.583 38.3762C42.5832 38.3733 42.5835 38.3704 42.5837 38.3674C42.584 38.3645 42.5842 38.3616 42.5845 38.3587C42.5847 38.3557 42.585 38.3528 42.5853 38.3499C42.5855 38.3469 42.5858 38.344 42.586 38.3411C42.5863 38.3381 42.5865 38.3352 42.5868 38.3323C42.5871 38.3294 42.5873 38.3264 42.5876 38.3235C42.5878 38.3206 42.5881 38.3176 42.5883 38.3147C42.5886 38.3118 42.5889 38.3088 42.5891 38.3059C42.5894 38.303 42.5896 38.3 42.5899 38.2971C42.5901 38.2942 42.5904 38.2912 42.5906 38.2883C42.5909 38.2854 42.5912 38.2824 42.5914 38.2795C42.5917 38.2766 42.5919 38.2736 42.5922 38.2707C42.5924 38.2678 42.5927 38.2648 42.593 38.2619C42.5932 38.259 42.5935 38.256 42.5937 38.2531C42.594 38.2502 42.5942 38.2472 42.5945 38.2443C42.5948 38.2414 42.595 38.2384 42.5953 38.2355C42.5955 38.2326 42.5958 38.2296 42.596 38.2267C42.5963 38.2238 42.5966 38.2208 42.5968 38.2179C42.5971 38.215 42.5973 38.212 42.5976 38.2091C42.5978 38.2062 42.5981 38.2032 42.5983 38.2003C42.5986 38.1974 42.5989 38.1944 42.5991 38.1915C42.5994 38.1885 42.5996 38.1856 42.5999 38.1827C42.6001 38.1797 42.6004 38.1768 42.6007 38.1739C42.6009 38.1709 42.6012 38.168 42.6014 38.1651C42.6017 38.1621 42.6019 38.1592 42.6022 38.1562C42.6025 38.1533 42.6027 38.1504 42.603 38.1474C42.6032 38.1445 42.6035 38.1415 42.6037 38.1386C42.604 38.1357 42.6043 38.1327 42.6045 38.1298C42.6048 38.1269 42.605 38.1239 42.6053 38.121C42.6055 38.118 42.6058 38.1151 42.6061 38.1122C42.6063 38.1092 42.6066 38.1063 42.6068 38.1033C42.6071 38.1004 42.6073 38.0975 42.6076 38.0945C42.6079 38.0916 42.6081 38.0886 42.6084 38.0857C42.6086 38.0828 42.6089 38.0798 42.6091 38.0769C42.6094 38.0739 42.6097 38.071 42.6099 38.0681C42.6102 38.0651 42.6104 38.0622 42.6107 38.0592C42.6109 38.0563 42.6112 38.0533 42.6115 38.0504C42.6117 38.0475 42.612 38.0445 42.6122 38.0416C42.6125 38.0386 42.6127 38.0357 42.613 38.0328C42.6133 38.0298 42.6135 38.0269 42.6138 38.0239C42.614 38.021 42.6143 38.018 42.6146 38.0151C42.6148 38.0122 42.6151 38.0092 42.6153 38.0063C42.6156 38.0033 42.6158 38.0004 42.6161 37.9974C42.6164 37.9945 42.6166 37.9915 42.6169 37.9886C42.6171 37.9857 42.6174 37.9827 42.6176 37.9798C42.6179 37.9768 42.6182 37.9739 42.6184 37.9709C42.6187 37.968 42.6189 37.965 42.6192 37.9621C42.6194 37.9592 42.6197 37.9562 42.62 37.9533C42.6202 37.9503 42.6205 37.9474 42.6207 37.9444C42.621 37.9415 42.6212 37.9385 42.6215 37.9356C42.6218 37.9326 42.622 37.9297 42.6223 37.9267C42.6225 37.9238 42.6228 37.9208 42.6231 37.9179C42.6233 37.915 42.6236 37.912 42.6238 37.9091C42.6241 37.9061 42.6243 37.9032 42.6246 37.9002C42.6249 37.8973 42.6251 37.8943 42.6254 37.8914C42.6256 37.8884 42.6259 37.8855 42.6261 37.8825C42.6264 37.8796 42.6267 37.8766 42.6269 37.8737C42.6272 37.8707 42.6274 37.8678 42.6277 37.8648C42.628 37.8619 42.6282 37.8589 42.6285 37.856C42.6287 37.853 42.629 37.8501 42.6292 37.8471C42.6295 37.8442 42.6298 37.8412 42.63 37.8383C42.6303 37.8353 42.6305 37.8324 42.6308 37.8294C42.6311 37.8265 42.6313 37.8235 42.6316 37.8206C42.6318 37.8176 42.6321 37.8147 42.6323 37.8117C42.6326 37.8088 42.6329 37.8058 42.6331 37.8029C42.6334 37.7999 42.6336 37.797 42.6339 37.794C42.6342 37.7911 42.6344 37.7881 42.6347 37.7852C42.6349 37.7822 42.6352 37.7793 42.6354 37.7763C42.6357 37.7733 42.636 37.7704 42.6362 37.7674C42.6365 37.7645 42.6367 37.7615 42.637 37.7586C42.6373 37.7556 42.6375 37.7527 42.6378 37.7497C42.638 37.7468 42.6383 37.7438 42.6385 37.7409C42.6388 37.7379 42.6391 37.7349 42.6393 37.732C42.6396 37.729 42.6398 37.7261 42.6401 37.7231C42.6404 37.7202 42.6406 37.7172 42.6409 37.7143C42.6411 37.7113 42.6414 37.7084 42.6416 37.7054C42.6419 37.7024 42.6422 37.6995 42.6424 37.6965C42.6427 37.6936 42.6429 37.6906 42.6432 37.6877C42.6435 37.6847 42.6437 37.6817 42.644 37.6788C42.6442 37.6758 42.6445 37.6729 42.6447 37.6699C42.645 37.667 42.6453 37.664 42.6455 37.661C42.6458 37.6581 42.646 37.6551 42.6463 37.6522C42.6466 37.6492 42.6468 37.6463 42.6471 37.6433C42.6473 37.6403 42.6476 37.6374 42.6479 37.6344C42.6481 37.6315 42.6484 37.6285 42.6486 37.6256C42.6489 37.6226 42.6491 37.6196 42.6494 37.6167C42.6497 37.6137 42.6499 37.6108 42.6502 37.6078C42.6504 37.6048 42.6507 37.6019 42.651 37.5989C42.6512 37.596 42.6515 37.593 42.6517 37.59C42.652 37.5871 42.6523 37.5841 42.6525 37.5812C42.6528 37.5782 42.653 37.5752 42.6533 37.5723C42.6536 37.5693 42.6538 37.5663 42.6541 37.5634C42.6543 37.5604 42.6546 37.5575 42.6548 37.5545C42.6551 37.5515 42.6554 37.5486 42.6556 37.5456C42.6559 37.5427 42.6561 37.5397 42.6564 37.5367C42.6567 37.5338 42.6569 37.5308 42.6572 37.5278C42.6574 37.5249 42.6577 37.5219 42.658 37.519C42.6582 37.516 42.6585 37.513 42.6587 37.5101C42.659 37.5071 42.6593 37.5041 42.6595 37.5012C42.6598 37.4982 42.66 37.4952 42.6603 37.4923C42.6606 37.4893 42.6608 37.4864 42.6611 37.4834C42.6613 37.4804 42.6616 37.4775 42.6618 37.4745C42.6621 37.4715 42.6624 37.4686 42.6626 37.4656C42.6629 37.4626 42.6631 37.4597 42.6634 37.4567C42.6637 37.4537 42.6639 37.4508 42.6642 37.4478C42.6644 37.4448 42.6647 37.4419 42.665 37.4389C42.6652 37.4359 42.6655 37.433 42.6657 37.43C42.666 37.427 42.6663 37.4241 42.6665 37.4211C42.6668 37.4181 42.667 37.4152 42.6673 37.4122C42.6676 37.4092 42.6678 37.4063 42.6681 37.4033C42.6683 37.4003 42.6686 37.3974 42.6689 37.3944C42.6691 37.3914 42.6694 37.3885 42.6696 37.3855C42.6699 37.3825 42.6702 37.3796 42.6704 37.3766C42.6707 37.3736 42.6709 37.3707 42.6712 37.3677C42.6715 37.3647 42.6717 37.3617 42.672 37.3588C42.6722 37.3558 42.6725 37.3528 42.6728 37.3499C42.673 37.3469 42.6733 37.3439 42.6735 37.341C42.6738 37.338 42.6741 37.335 42.6743 37.332C42.6746 37.3291 42.6748 37.3261 42.6751 37.3231C42.6753 37.3202 42.6756 37.3172 42.6759 37.3142C42.6761 37.3112 42.6764 37.3083 42.6766 37.3053C42.6769 37.3023 42.6772 37.2994 42.6774 37.2964C42.6777 37.2934 42.6779 37.2904 42.6782 37.2875C42.6785 37.2845 42.6787 37.2815 42.679 37.2786C42.6792 37.2756 42.6795 37.2726 42.6798 37.2696C42.68 37.2667 42.6803 37.2637 42.6806 37.2607C42.6808 37.2577 42.6811 37.2548 42.6813 37.2518C42.6816 37.2488 42.6819 37.2458 42.6821 37.2429C42.6824 37.2399 42.6826 37.2369 42.6829 37.234C42.6832 37.231 42.6834 37.228 42.6837 37.225C42.6839 37.2221 42.6842 37.2191 42.6845 37.2161C42.6847 37.2131 42.685 37.2102 42.6852 37.2072C42.6855 37.2042 42.6858 37.2012 42.686 37.1982C42.6863 37.1953 42.6865 37.1923 42.6868 37.1893C42.6871 37.1863 42.6873 37.1834 42.6876 37.1804C42.6878 37.1774 42.6881 37.1744 42.6884 37.1715C42.6886 37.1685 42.6889 37.1655 42.6891 37.1625C42.6894 37.1596 42.6897 37.1566 42.6899 37.1536C42.6902 37.1506 42.6904 37.1476 42.6907 37.1447C42.691 37.1417 42.6912 37.1387 42.6915 37.1357C42.6917 37.1328 42.692 37.1298 42.6923 37.1268C42.6925 37.1238 42.6928 37.1208 42.693 37.1179C42.6933 37.1149 42.6936 37.1119 42.6938 37.1089C42.6941 37.1059 42.6944 37.103 42.6946 37.1C42.6949 37.097 42.6951 37.094 42.6954 37.091C42.6957 37.0881 42.6959 37.0851 42.6962 37.0821C42.6964 37.0791 42.6967 37.0761 42.697 37.0732C42.6972 37.0702 42.6975 37.0672 42.6977 37.0642C42.698 37.0612 42.6983 37.0583 42.6985 37.0553C42.6988 37.0523 42.699 37.0493 42.6993 37.0463H40.6993C40.699 37.0493 40.6988 37.0523 40.6985 37.0553C40.6983 37.0583 40.698 37.0612 40.6977 37.0642C40.6975 37.0672 40.6972 37.0702 40.697 37.0732C40.6967 37.0761 40.6964 37.0791 40.6962 37.0821C40.6959 37.0851 40.6957 37.0881 40.6954 37.091C40.6951 37.094 40.6949 37.097 40.6946 37.1C40.6944 37.103 40.6941 37.1059 40.6938 37.1089C40.6936 37.1119 40.6933 37.1149 40.693 37.1179C40.6928 37.1208 40.6925 37.1238 40.6923 37.1268C40.692 37.1298 40.6917 37.1328 40.6915 37.1357C40.6912 37.1387 40.691 37.1417 40.6907 37.1447C40.6904 37.1476 40.6902 37.1506 40.6899 37.1536C40.6897 37.1566 40.6894 37.1596 40.6891 37.1625C40.6889 37.1655 40.6886 37.1685 40.6884 37.1715C40.6881 37.1744 40.6878 37.1774 40.6876 37.1804C40.6873 37.1834 40.6871 37.1863 40.6868 37.1893C40.6865 37.1923 40.6863 37.1953 40.686 37.1982C40.6858 37.2012 40.6855 37.2042 40.6852 37.2072C40.685 37.2102 40.6847 37.2131 40.6845 37.2161C40.6842 37.2191 40.6839 37.2221 40.6837 37.225C40.6834 37.228 40.6832 37.231 40.6829 37.234C40.6826 37.2369 40.6824 37.2399 40.6821 37.2429C40.6819 37.2458 40.6816 37.2488 40.6813 37.2518C40.6811 37.2548 40.6808 37.2577 40.6806 37.2607C40.6803 37.2637 40.68 37.2667 40.6798 37.2696C40.6795 37.2726 40.6792 37.2756 40.679 37.2786C40.6787 37.2815 40.6785 37.2845 40.6782 37.2875C40.6779 37.2904 40.6777 37.2934 40.6774 37.2964C40.6772 37.2994 40.6769 37.3023 40.6766 37.3053C40.6764 37.3083 40.6761 37.3112 40.6759 37.3142C40.6756 37.3172 40.6753 37.3202 40.6751 37.3231C40.6748 37.3261 40.6746 37.3291 40.6743 37.332C40.6741 37.335 40.6738 37.338 40.6735 37.341C40.6733 37.3439 40.673 37.3469 40.6728 37.3499C40.6725 37.3528 40.6722 37.3558 40.672 37.3588C40.6717 37.3617 40.6715 37.3647 40.6712 37.3677C40.6709 37.3707 40.6707 37.3736 40.6704 37.3766C40.6702 37.3796 40.6699 37.3825 40.6696 37.3855C40.6694 37.3885 40.6691 37.3914 40.6689 37.3944C40.6686 37.3974 40.6683 37.4003 40.6681 37.4033C40.6678 37.4063 40.6676 37.4092 40.6673 37.4122C40.667 37.4152 40.6668 37.4181 40.6665 37.4211C40.6663 37.4241 40.666 37.427 40.6657 37.43C40.6655 37.433 40.6652 37.4359 40.665 37.4389C40.6647 37.4419 40.6644 37.4448 40.6642 37.4478C40.6639 37.4508 40.6637 37.4537 40.6634 37.4567C40.6631 37.4597 40.6629 37.4626 40.6626 37.4656C40.6624 37.4686 40.6621 37.4715 40.6618 37.4745C40.6616 37.4775 40.6613 37.4804 40.6611 37.4834C40.6608 37.4864 40.6606 37.4893 40.6603 37.4923C40.66 37.4952 40.6598 37.4982 40.6595 37.5012C40.6593 37.5041 40.659 37.5071 40.6587 37.5101C40.6585 37.513 40.6582 37.516 40.658 37.519C40.6577 37.5219 40.6574 37.5249 40.6572 37.5278C40.6569 37.5308 40.6567 37.5338 40.6564 37.5367C40.6561 37.5397 40.6559 37.5427 40.6556 37.5456C40.6554 37.5486 40.6551 37.5515 40.6548 37.5545C40.6546 37.5575 40.6543 37.5604 40.6541 37.5634C40.6538 37.5663 40.6536 37.5693 40.6533 37.5723C40.653 37.5752 40.6528 37.5782 40.6525 37.5812C40.6523 37.5841 40.652 37.5871 40.6517 37.59C40.6515 37.593 40.6512 37.596 40.651 37.5989C40.6507 37.6019 40.6504 37.6048 40.6502 37.6078C40.6499 37.6108 40.6497 37.6137 40.6494 37.6167C40.6491 37.6196 40.6489 37.6226 40.6486 37.6256C40.6484 37.6285 40.6481 37.6315 40.6479 37.6344C40.6476 37.6374 40.6473 37.6403 40.6471 37.6433C40.6468 37.6463 40.6466 37.6492 40.6463 37.6522C40.646 37.6551 40.6458 37.6581 40.6455 37.661C40.6453 37.664 40.645 37.667 40.6447 37.6699C40.6445 37.6729 40.6442 37.6758 40.644 37.6788C40.6437 37.6817 40.6435 37.6847 40.6432 37.6877C40.6429 37.6906 40.6427 37.6936 40.6424 37.6965C40.6422 37.6995 40.6419 37.7024 40.6416 37.7054C40.6414 37.7084 40.6411 37.7113 40.6409 37.7143C40.6406 37.7172 40.6404 37.7202 40.6401 37.7231C40.6398 37.7261 40.6396 37.729 40.6393 37.732C40.6391 37.7349 40.6388 37.7379 40.6385 37.7409C40.6383 37.7438 40.638 37.7468 40.6378 37.7497C40.6375 37.7527 40.6373 37.7556 40.637 37.7586C40.6367 37.7615 40.6365 37.7645 40.6362 37.7674C40.636 37.7704 40.6357 37.7733 40.6354 37.7763C40.6352 37.7793 40.6349 37.7822 40.6347 37.7852C40.6344 37.7881 40.6342 37.7911 40.6339 37.794C40.6336 37.797 40.6334 37.7999 40.6331 37.8029C40.6329 37.8058 40.6326 37.8088 40.6323 37.8117C40.6321 37.8147 40.6318 37.8176 40.6316 37.8206C40.6313 37.8235 40.6311 37.8265 40.6308 37.8294C40.6305 37.8324 40.6303 37.8353 40.63 37.8383C40.6298 37.8412 40.6295 37.8442 40.6292 37.8471C40.629 37.8501 40.6287 37.853 40.6285 37.856C40.6282 37.8589 40.628 37.8619 40.6277 37.8648C40.6274 37.8678 40.6272 37.8707 40.6269 37.8737C40.6267 37.8766 40.6264 37.8796 40.6261 37.8825C40.6259 37.8855 40.6256 37.8884 40.6254 37.8914C40.6251 37.8943 40.6249 37.8973 40.6246 37.9002C40.6243 37.9032 40.6241 37.9061 40.6238 37.9091C40.6236 37.912 40.6233 37.915 40.6231 37.9179C40.6228 37.9208 40.6225 37.9238 40.6223 37.9267C40.622 37.9297 40.6218 37.9326 40.6215 37.9356C40.6212 37.9385 40.621 37.9415 40.6207 37.9444C40.6205 37.9474 40.6202 37.9503 40.62 37.9533C40.6197 37.9562 40.6194 37.9592 40.6192 37.9621C40.6189 37.965 40.6187 37.968 40.6184 37.9709C40.6182 37.9739 40.6179 37.9768 40.6176 37.9798C40.6174 37.9827 40.6171 37.9857 40.6169 37.9886C40.6166 37.9915 40.6164 37.9945 40.6161 37.9974C40.6158 38.0004 40.6156 38.0033 40.6153 38.0063C40.6151 38.0092 40.6148 38.0122 40.6146 38.0151C40.6143 38.018 40.614 38.021 40.6138 38.0239C40.6135 38.0269 40.6133 38.0298 40.613 38.0328C40.6127 38.0357 40.6125 38.0386 40.6122 38.0416C40.612 38.0445 40.6117 38.0475 40.6115 38.0504C40.6112 38.0533 40.6109 38.0563 40.6107 38.0592C40.6104 38.0622 40.6102 38.0651 40.6099 38.0681C40.6097 38.071 40.6094 38.0739 40.6091 38.0769C40.6089 38.0798 40.6086 38.0828 40.6084 38.0857C40.6081 38.0886 40.6079 38.0916 40.6076 38.0945C40.6073 38.0975 40.6071 38.1004 40.6068 38.1033C40.6066 38.1063 40.6063 38.1092 40.6061 38.1122C40.6058 38.1151 40.6055 38.118 40.6053 38.121C40.605 38.1239 40.6048 38.1269 40.6045 38.1298C40.6043 38.1327 40.604 38.1357 40.6037 38.1386C40.6035 38.1415 40.6032 38.1445 40.603 38.1474C40.6027 38.1504 40.6025 38.1533 40.6022 38.1562C40.6019 38.1592 40.6017 38.1621 40.6014 38.1651C40.6012 38.168 40.6009 38.1709 40.6007 38.1739C40.6004 38.1768 40.6001 38.1797 40.5999 38.1827C40.5996 38.1856 40.5994 38.1885 40.5991 38.1915C40.5989 38.1944 40.5986 38.1974 40.5983 38.2003C40.5981 38.2032 40.5978 38.2062 40.5976 38.2091C40.5973 38.212 40.5971 38.215 40.5968 38.2179C40.5966 38.2208 40.5963 38.2238 40.596 38.2267C40.5958 38.2296 40.5955 38.2326 40.5953 38.2355C40.595 38.2384 40.5948 38.2414 40.5945 38.2443C40.5942 38.2472 40.594 38.2502 40.5937 38.2531C40.5935 38.256 40.5932 38.259 40.593 38.2619C40.5927 38.2648 40.5924 38.2678 40.5922 38.2707C40.5919 38.2736 40.5917 38.2766 40.5914 38.2795C40.5912 38.2824 40.5909 38.2854 40.5906 38.2883C40.5904 38.2912 40.5901 38.2942 40.5899 38.2971C40.5896 38.3 40.5894 38.303 40.5891 38.3059C40.5889 38.3088 40.5886 38.3118 40.5883 38.3147C40.5881 38.3176 40.5878 38.3206 40.5876 38.3235C40.5873 38.3264 40.5871 38.3294 40.5868 38.3323C40.5865 38.3352 40.5863 38.3381 40.586 38.3411C40.5858 38.344 40.5855 38.3469 40.5853 38.3499C40.585 38.3528 40.5847 38.3557 40.5845 38.3587C40.5842 38.3616 40.584 38.3645 40.5837 38.3674C40.5835 38.3704 40.5832 38.3733 40.583 38.3762C40.5827 38.3792 40.5824 38.3821 40.5822 38.385C40.5819 38.3879 40.5817 38.3909 40.5814 38.3938C40.5812 38.3967 40.5809 38.3997 40.5806 38.4026C40.5804 38.4055 40.5801 38.4084 40.5799 38.4114C40.5796 38.4143 40.5794 38.4172 40.5791 38.4201C40.5789 38.4231 40.5786 38.426 40.5783 38.4289C40.5781 38.4319 40.5778 38.4348 40.5776 38.4377C40.5773 38.4406 40.5771 38.4436 40.5768 38.4465C40.5766 38.4494 40.5763 38.4523 40.576 38.4553C40.5758 38.4582 40.5755 38.4611 40.5753 38.464C40.575 38.467 40.5748 38.4699 40.5745 38.4728C40.5742 38.4757 40.574 38.4787 40.5737 38.4816C40.5735 38.4845 40.5732 38.4874 40.573 38.4904C40.5727 38.4933 40.5725 38.4962 40.5722 38.4991C40.5719 38.5021 40.5717 38.505 40.5714 38.5079C40.5712 38.5108 40.5709 38.5138 40.5707 38.5167C40.5704 38.5196 40.5702 38.5225 40.5699 38.5254C40.5696 38.5284 40.5694 38.5313 40.5691 38.5342C40.5689 38.5371 40.5686 38.5401 40.5684 38.543C40.5681 38.5459 40.5679 38.5488 40.5676 38.5517C40.5673 38.5547 40.5671 38.5576 40.5668 38.5605C40.5666 38.5634 40.5663 38.5664 40.5661 38.5693C40.5658 38.5722 40.5656 38.5751 40.5653 38.578C40.565 38.581 40.5648 38.5839 40.5645 38.5868C40.5643 38.5897 40.564 38.5926 40.5638 38.5956C40.5635 38.5985 40.5633 38.6014 40.563 38.6043C40.5627 38.6072 40.5625 38.6102 40.5622 38.6131C40.562 38.616 40.5617 38.6189 40.5615 38.6218C40.5612 38.6248 40.561 38.6277 40.5607 38.6306C40.5604 38.6335 40.5602 38.6364 40.5599 38.6393C40.5597 38.6423 40.5594 38.6452 40.5592 38.6481C40.5589 38.651 40.5587 38.6539 40.5584 38.6569C40.5581 38.6598 40.5579 38.6627 40.5576 38.6656C40.5574 38.6685 40.5571 38.6714 40.5569 38.6744C40.5566 38.6773 40.5564 38.6802 40.5561 38.6831C40.5559 38.686 40.5556 38.6889 40.5553 38.6919C40.5551 38.6948 40.5548 38.6977 40.5546 38.7006C40.5543 38.7035 40.5541 38.7064 40.5538 38.7093C40.5536 38.7123 40.5533 38.7152 40.553 38.7181C40.5528 38.721 40.5525 38.7239 40.5523 38.7268C40.552 38.7298 40.5518 38.7327 40.5515 38.7356C40.5513 38.7385 40.551 38.7414 40.5508 38.7443C40.5505 38.7472 40.5502 38.7502 40.55 38.7531C40.5497 38.756 40.5495 38.7589 40.5492 38.7618C40.549 38.7647 40.5487 38.7676 40.5485 38.7705C40.5482 38.7735 40.5479 38.7764 40.5477 38.7793C40.5474 38.7822 40.5472 38.7851 40.5469 38.788C40.5467 38.7909 40.5464 38.7938 40.5462 38.7968C40.5459 38.7997 40.5457 38.8026 40.5454 38.8055C40.5451 38.8084 40.5449 38.8113 40.5446 38.8142C40.5444 38.8171 40.5441 38.82 40.5439 38.823C40.5436 38.8259 40.5434 38.8288 40.5431 38.8317C40.5429 38.8346 40.5426 38.8375 40.5423 38.8404C40.5421 38.8433 40.5418 38.8462 40.5416 38.8491C40.5413 38.8521 40.5411 38.855 40.5408 38.8579C40.5406 38.8608 40.5403 38.8637 40.5401 38.8666C40.5398 38.8695 40.5395 38.8724 40.5393 38.8753C40.539 38.8782 40.5388 38.8811 40.5385 38.8841C40.5383 38.887 40.538 38.8899 40.5378 38.8928C40.5375 38.8957 40.5373 38.8986 40.537 38.9015C40.5367 38.9044 40.5365 38.9073 40.5362 38.9102C40.536 38.9131 40.5357 38.916 40.5355 38.9189C40.5352 38.9219 40.535 38.9248 40.5347 38.9277C40.5345 38.9306 40.5342 38.9335 40.5339 38.9364C40.5337 38.9393 40.5334 38.9422 40.5332 38.9451C40.5329 38.948 40.5327 38.9509 40.5324 38.9538C40.5322 38.9567 40.5319 38.9596 40.5317 38.9625C40.5314 38.9654 40.5312 38.9683 40.5309 38.9713C40.5306 38.9742 40.5304 38.9771 40.5301 38.98C40.5299 38.9829 40.5296 38.9858 40.5294 38.9887C40.5291 38.9916 40.5289 38.9945 40.5286 38.9974C40.5284 39.0003 40.5281 39.0032 40.5278 39.0061C40.5276 39.009 40.5273 39.0119 40.5271 39.0148C40.5268 39.0177 40.5266 39.0206 40.5263 39.0235C40.5261 39.0264 40.5258 39.0293 40.5256 39.0322C40.5253 39.0351 40.5251 39.038 40.5248 39.0409C40.5245 39.0438 40.5243 39.0467 40.524 39.0496C40.5238 39.0525 40.5235 39.0554 40.5233 39.0583C40.523 39.0612 40.5228 39.0641 40.5225 39.067C40.5223 39.0699 40.522 39.0728 40.5218 39.0757C40.5215 39.0786 40.5212 39.0815 40.521 39.0844C40.5207 39.0873 40.5205 39.0902 40.5202 39.0931C40.52 39.096 40.5197 39.0989 40.5195 39.1018C40.5192 39.1047 40.519 39.1076 40.5187 39.1105C40.5185 39.1134 40.5182 39.1163 40.518 39.1192C40.5177 39.1221 40.5174 39.125 40.5172 39.1279C40.5169 39.1308 40.5167 39.1337 40.5164 39.1366C40.5162 39.1395 40.5159 39.1424 40.5157 39.1453C40.5154 39.1482 40.5152 39.1511 40.5149 39.154C40.5147 39.1569 40.5144 39.1598 40.5141 39.1627C40.5139 39.1656 40.5136 39.1685 40.5134 39.1714C40.5131 39.1743 40.5129 39.1772 40.5126 39.1801C40.5124 39.183 40.5121 39.1859 40.5119 39.1888C40.5116 39.1917 40.5114 39.1946 40.5111 39.1975C40.5109 39.2004 40.5106 39.2033 40.5103 39.2062C40.5101 39.209 40.5098 39.2119 40.5096 39.2148C40.5093 39.2177 40.5091 39.2206 40.5088 39.2235C40.5086 39.2264 40.5083 39.2293 40.5081 39.2322C40.5078 39.2351 40.5076 39.238 40.5073 39.2409C40.5071 39.2438 40.5068 39.2467 40.5065 39.2496C40.5063 39.2525 40.506 39.2554 40.5058 39.2582C40.5055 39.2611 40.5053 39.264 40.505 39.2669C40.5048 39.2698 40.5045 39.2727 40.5043 39.2756C40.504 39.2785 40.5038 39.2814 40.5035 39.2843C40.5033 39.2872 40.503 39.2901 40.5028 39.293C40.5025 39.2958 40.5022 39.2987 40.502 39.3016C40.5017 39.3045 40.5015 39.3074 40.5012 39.3103C40.501 39.3132 40.5007 39.3161 40.5005 39.319C40.5002 39.3219 40.5 39.3248 40.4997 39.3276C40.4995 39.3305 40.4992 39.3334 40.499 39.3363C40.4987 39.3392 40.4985 39.3421 40.4982 39.345C40.4979 39.3479 40.4977 39.3508 40.4974 39.3537C40.4972 39.3565 40.4969 39.3594 40.4967 39.3623C40.4964 39.3652 40.4962 39.3681 40.4959 39.371C40.4957 39.3739 40.4954 39.3768 40.4952 39.3797C40.4949 39.3825 40.4947 39.3854 40.4944 39.3883C40.4942 39.3912 40.4939 39.3941 40.4937 39.397C40.4934 39.3999 40.4931 39.4028 40.4929 39.4056C40.4926 39.4085 40.4924 39.4114 40.4921 39.4143C40.4919 39.4172 40.4916 39.4201 40.4914 39.423C40.4911 39.4258 40.4909 39.4287 40.4906 39.4316C40.4904 39.4345 40.4901 39.4374 40.4899 39.4403C40.4896 39.4432 40.4894 39.446 40.4891 39.4489C40.4889 39.4518 40.4886 39.4547 40.4883 39.4576C40.4881 39.4605 40.4878 39.4634 40.4876 39.4662C40.4873 39.4691 40.4871 39.472 40.4868 39.4749C40.4866 39.4778 40.4863 39.4807 40.4861 39.4835C40.4858 39.4864 40.4856 39.4893 40.4853 39.4922C40.4851 39.4951 40.4848 39.498 40.4846 39.5008C40.4843 39.5037 40.4841 39.5066 40.4838 39.5095C40.4836 39.5124 40.4833 39.5153 40.4831 39.5181C40.4828 39.521 40.4825 39.5239 40.4823 39.5268C40.482 39.5297 40.4818 39.5326 40.4815 39.5354C40.4813 39.5383 40.481 39.5412 40.4808 39.5441C40.4805 39.547 40.4803 39.5498 40.48 39.5527C40.4798 39.5556 40.4795 39.5585 40.4793 39.5614C40.479 39.5642 40.4788 39.5671 40.4785 39.57C40.4783 39.5729 40.478 39.5758 40.4778 39.5786C40.4775 39.5815 40.4773 39.5844 40.477 39.5873C40.4767 39.5902 40.4765 39.593 40.4762 39.5959C40.476 39.5988 40.4757 39.6017 40.4755 39.6046C40.4752 39.6074 40.475 39.6103 40.4747 39.6132C40.4745 39.6161 40.4742 39.619 40.474 39.6218C40.4737 39.6247 40.4735 39.6276 40.4732 39.6305C40.473 39.6333 40.4727 39.6362 40.4725 39.6391C40.4722 39.642 40.472 39.6449 40.4717 39.6477C40.4715 39.6506 40.4712 39.6535 40.471 39.6564C40.4707 39.6592 40.4705 39.6621 40.4702 39.665C40.47 39.6679 40.4697 39.6707 40.4694 39.6736C40.4692 39.6765 40.4689 39.6794 40.4687 39.6823C40.4684 39.6851 40.4682 39.688 40.4679 39.6909C40.4677 39.6938 40.4674 39.6966 40.4672 39.6995C40.4669 39.7024 40.4667 39.7053 40.4664 39.7081C40.4662 39.711 40.4659 39.7139 40.4657 39.7168C40.4654 39.7196 40.4652 39.7225 40.4649 39.7254C40.4647 39.7282 40.4644 39.7311 40.4642 39.734C40.4639 39.7369 40.4637 39.7397 40.4634 39.7426C40.4632 39.7455 40.4629 39.7484 40.4627 39.7512C40.4624 39.7541 40.4622 39.757 40.4619 39.7599C40.4617 39.7627 40.4614 39.7656 40.4612 39.7685C40.4609 39.7713 40.4606 39.7742 40.4604 39.7771C40.4601 39.78 40.4599 39.7828 40.4596 39.7857C40.4594 39.7886 40.4591 39.7914 40.4589 39.7943C40.4586 39.7972 40.4584 39.8001 40.4581 39.8029C40.4579 39.8058 40.4576 39.8087 40.4574 39.8115C40.4571 39.8144 40.4569 39.8173 40.4566 39.8202C40.4564 39.823 40.4561 39.8259 40.4559 39.8288C40.4556 39.8316 40.4554 39.8345 40.4551 39.8374C40.4549 39.8402 40.4546 39.8431 40.4544 39.846C40.4541 39.8488 40.4539 39.8517 40.4536 39.8546C40.4534 39.8575 40.4531 39.8603 40.4529 39.8632C40.4526 39.8661 40.4524 39.8689 40.4521 39.8718C40.4519 39.8747 40.4516 39.8775 40.4514 39.8804C40.4511 39.8833 40.4509 39.8861 40.4506 39.889C40.4504 39.8919 40.4501 39.8947 40.4499 39.8976C40.4496 39.9005 40.4494 39.9033 40.4491 39.9062C40.4488 39.9091 40.4486 39.9119 40.4483 39.9148C40.4481 39.9177 40.4478 39.9205 40.4476 39.9234C40.4473 39.9263 40.4471 39.9291 40.4468 39.932C40.4466 39.9349 40.4463 39.9377 40.4461 39.9406C40.4458 39.9435 40.4456 39.9463 40.4453 39.9492C40.4451 39.9521 40.4448 39.9549 40.4446 39.9578C40.4443 39.9606 40.4441 39.9635 40.4438 39.9664C40.4436 39.9692 40.4433 39.9721 40.4431 39.975C40.4428 39.9778 40.4426 39.9807 40.4423 39.9836C40.4421 39.9864 40.4418 39.9893 40.4416 39.9921C40.4413 39.995 40.4411 39.9979 40.4408 40.0007C40.4406 40.0036 40.4403 40.0065 40.4401 40.0093C40.4398 40.0122 40.4396 40.015 40.4393 40.0179C40.4391 40.0208 40.4388 40.0236 40.4386 40.0265C40.4383 40.0294 40.4381 40.0322 40.4378 40.0351C40.4376 40.0379 40.4373 40.0408 40.4371 40.0437C40.4368 40.0465 40.4366 40.0494 40.4363 40.0522C40.4361 40.0551 40.4358 40.058 40.4356 40.0608C40.4353 40.0637 40.4351 40.0665 40.4348 40.0694C40.4346 40.0723 40.4343 40.0751 40.4341 40.078C40.4338 40.0808 40.4336 40.0837 40.4333 40.0866C40.4331 40.0894 40.4328 40.0923 40.4326 40.0951C40.4323 40.098 40.4321 40.1009 40.4318 40.1037C40.4316 40.1066 40.4313 40.1094 40.4311 40.1123C40.4308 40.1151 40.4306 40.118 40.4303 40.1209C40.4301 40.1237 40.4298 40.1266 40.4296 40.1294C40.4293 40.1323 40.4291 40.1351 40.4288 40.138C40.4286 40.1409 40.4283 40.1437 40.4281 40.1466C40.4278 40.1494 40.4276 40.1523 40.4273 40.1551C40.4271 40.158 40.4268 40.1609 40.4266 40.1637C40.4263 40.1666 40.4261 40.1694 40.4258 40.1723C40.4256 40.1751 40.4253 40.178 40.4251 40.1808C40.4248 40.1837 40.4246 40.1866 40.4243 40.1894C40.4241 40.1923 40.4238 40.1951 40.4236 40.198C40.4233 40.2008 40.4231 40.2037 40.4228 40.2065C40.4226 40.2094 40.4223 40.2122 40.4221 40.2151C40.4218 40.218 40.4216 40.2208 40.4213 40.2237C40.4211 40.2265 40.4208 40.2294 40.4206 40.2322C40.4203 40.2351 40.4201 40.2379 40.4198 40.2408C40.4196 40.2436 40.4193 40.2465 40.4191 40.2493C40.4188 40.2522 40.4186 40.255 40.4183 40.2579C40.4181 40.2607 40.4178 40.2636 40.4176 40.2664C40.4173 40.2693 40.4171 40.2722 40.4168 40.275C40.4166 40.2779 40.4163 40.2807 40.4161 40.2836C40.4158 40.2864 40.4156 40.2893 40.4153 40.2921C40.4151 40.295 40.4148 40.2978 40.4146 40.3007C40.4143 40.3035 40.4141 40.3064 40.4138 40.3092C40.4136 40.3121 40.4133 40.3149 40.4131 40.3178C40.4128 40.3206 40.4126 40.3235 40.4123 40.3263C40.4121 40.3292 40.4118 40.332 40.4116 40.3349C40.4113 40.3377 40.4111 40.3406 40.4109 40.3434C40.4106 40.3463 40.4104 40.3491 40.4101 40.3519C40.4099 40.3548 40.4096 40.3576 40.4094 40.3605C40.4091 40.3633 40.4089 40.3662 40.4086 40.369C40.4084 40.3719 40.4081 40.3747 40.4079 40.3776C40.4076 40.3804 40.4074 40.3833 40.4071 40.3861C40.4069 40.389 40.4066 40.3918 40.4064 40.3947C40.4061 40.3975 40.4059 40.4003 40.4056 40.4032C40.4054 40.406 40.4051 40.4089 40.4049 40.4117C40.4046 40.4146 40.4044 40.4174 40.4041 40.4203C40.4039 40.4231 40.4036 40.426 40.4034 40.4288C40.4031 40.4316 40.4029 40.4345 40.4026 40.4373C40.4024 40.4402 40.4021 40.443 40.4019 40.4459C40.4016 40.4487 40.4014 40.4516 40.4011 40.4544C40.4009 40.4572 40.4006 40.4601 40.4004 40.4629C40.4001 40.4658 40.3999 40.4686 40.3996 40.4715C40.3994 40.4743 40.3991 40.4772 40.3989 40.48C40.3987 40.4828 40.3984 40.4857 40.3982 40.4885C40.3979 40.4914 40.3977 40.4942 40.3974 40.497C40.3972 40.4999 40.3969 40.5027 40.3967 40.5056C40.3964 40.5084 40.3962 40.5113 40.3959 40.5141C40.3957 40.5169 40.3954 40.5198 40.3952 40.5226C40.3949 40.5255 40.3947 40.5283 40.3944 40.5311C40.3942 40.534 40.3939 40.5368 40.3937 40.5397C40.3934 40.5425 40.3932 40.5453 40.3929 40.5482C40.3927 40.551 40.3924 40.5539 40.3922 40.5567C40.3919 40.5595 40.3917 40.5624 40.3914 40.5652C40.3912 40.5681 40.3909 40.5709 40.3907 40.5737C40.3904 40.5766 40.3902 40.5794 40.39 40.5823C40.3897 40.5851 40.3895 40.5879 40.3892 40.5908C40.389 40.5936 40.3887 40.5965 40.3885 40.5993C40.3882 40.6021 40.388 40.605 40.3877 40.6078C40.3875 40.6106 40.3872 40.6135 40.387 40.6163C40.3867 40.6192 40.3865 40.622 40.3862 40.6248C40.386 40.6277 40.3857 40.6305 40.3855 40.6333C40.3852 40.6362 40.385 40.639 40.3847 40.6418C40.3845 40.6447 40.3842 40.6475 40.384 40.6504C40.3837 40.6532 40.3835 40.656 40.3833 40.6589C40.383 40.6617 40.3828 40.6645 40.3825 40.6674C40.3823 40.6702 40.382 40.673 40.3818 40.6759C40.3815 40.6787 40.3813 40.6815 40.381 40.6844C40.3808 40.6872 40.3805 40.69 40.3803 40.6929C40.38 40.6957 40.3798 40.6985 40.3795 40.7014C40.3793 40.7042 40.379 40.707 40.3788 40.7099C40.3785 40.7127 40.3783 40.7155 40.378 40.7184C40.3778 40.7212 40.3775 40.724 40.3773 40.7269C40.3771 40.7297 40.3768 40.7325 40.3766 40.7354C40.3763 40.7382 40.3761 40.741 40.3758 40.7439C40.3756 40.7467 40.3753 40.7495 40.3751 40.7524C40.3748 40.7552 40.3746 40.758 40.3743 40.7609C40.3741 40.7637 40.3738 40.7665 40.3736 40.7693C40.3733 40.7722 40.3731 40.775 40.3728 40.7778C40.3726 40.7807 40.3723 40.7835 40.3721 40.7863C40.3719 40.7892 40.3716 40.792 40.3714 40.7948C40.3711 40.7977 40.3709 40.8005 40.3706 40.8033C40.3704 40.8061 40.3701 40.809 40.3699 40.8118C40.3696 40.8146 40.3694 40.8175 40.3691 40.8203C40.3689 40.8231 40.3686 40.8259 40.3684 40.8288C40.3681 40.8316 40.3679 40.8344 40.3676 40.8373C40.3674 40.8401 40.3671 40.8429 40.3669 40.8457C40.3667 40.8486 40.3664 40.8514 40.3662 40.8542C40.3659 40.857 40.3657 40.8599 40.3654 40.8627C40.3652 40.8655 40.3649 40.8684 40.3647 40.8712C40.3644 40.874 40.3642 40.8768 40.3639 40.8797C40.3637 40.8825 40.3634 40.8853 40.3632 40.8881C40.3629 40.891 40.3627 40.8938 40.3625 40.8966C40.3622 40.8994 40.362 40.9023 40.3617 40.9051C40.3615 40.9079 40.3612 40.9107 40.361 40.9136C40.3607 40.9164 40.3605 40.9192 40.3602 40.922C40.36 40.9249 40.3597 40.9277 40.3595 40.9305C40.3592 40.9333 40.359 40.9362 40.3587 40.939C40.3585 40.9418 40.3582 40.9446 40.358 40.9475C40.3578 40.9503 40.3575 40.9531 40.3573 40.9559C40.357 40.9587 40.3568 40.9616 40.3565 40.9644C40.3563 40.9672 40.356 40.97 40.3558 40.9729C40.3555 40.9757 40.3553 40.9785 40.355 40.9813C40.3548 40.9841 40.3545 40.987 40.3543 40.9898C40.3541 40.9926 40.3538 40.9954 40.3536 40.9983C40.3533 41.0011 40.3531 41.0039 40.3528 41.0067C40.3526 41.0095 40.3523 41.0124 40.3521 41.0152C40.3518 41.018 40.3516 41.0208 40.3513 41.0236C40.3511 41.0265 40.3508 41.0293 40.3506 41.0321C40.3503 41.0349 40.3501 41.0377 40.3499 41.0406C40.3496 41.0434 40.3494 41.0462 40.3491 41.049C40.3489 41.0518 40.3486 41.0547 40.3484 41.0575C40.3481 41.0603 40.3479 41.0631 40.3476 41.0659C40.3474 41.0688 40.3471 41.0716 40.3469 41.0744C40.3467 41.0772 40.3464 41.08 40.3462 41.0828C40.3459 41.0857 40.3457 41.0885 40.3454 41.0913C40.3452 41.0941 40.3449 41.0969 40.3447 41.0997C40.3444 41.1026 40.3442 41.1054 40.3439 41.1082C40.3437 41.111 40.3434 41.1138 40.3432 41.1166C40.343 41.1195 40.3427 41.1223 40.3425 41.1251C40.3422 41.1279 40.342 41.1307 40.3417 41.1335C40.3415 41.1364 40.3412 41.1392 40.341 41.142C40.3407 41.1448 40.3405 41.1476 40.3402 41.1504C40.34 41.1532 40.3398 41.1561 40.3395 41.1589C40.3393 41.1617 40.339 41.1645 40.3388 41.1673C40.3385 41.1701 40.3383 41.1729 40.338 41.1758C40.3378 41.1786 40.3375 41.1814 40.3373 41.1842C40.337 41.187 40.3368 41.1898 40.3366 41.1926C40.3363 41.1955 40.3361 41.1983 40.3358 41.2011C40.3356 41.2039 40.3353 41.2067 40.3351 41.2095C40.3348 41.2123 40.3346 41.2151 40.3343 41.218C40.3341 41.2208 40.3338 41.2236 40.3336 41.2264C40.3334 41.2292 40.3331 41.232 40.3329 41.2348C40.3326 41.2376 40.3324 41.2404 40.3321 41.2433C40.3319 41.2461 40.3316 41.2489 40.3314 41.2517C40.3311 41.2545 40.3309 41.2573 40.3306 41.2601C40.3304 41.2629 40.3302 41.2657 40.3299 41.2686C40.3297 41.2714 40.3294 41.2742 40.3292 41.277C40.3289 41.2798 40.3287 41.2826 40.3284 41.2854C40.3282 41.2882 40.3279 41.291 40.3277 41.2938C40.3275 41.2966 40.3272 41.2995 40.327 41.3023C40.3267 41.3051 40.3265 41.3079 40.3262 41.3107C40.326 41.3135 40.3257 41.3163 40.3255 41.3191C40.3252 41.3219 40.325 41.3247 40.3247 41.3275C40.3245 41.3303 40.3243 41.3332 40.324 41.336C40.3238 41.3388 40.3235 41.3416 40.3233 41.3444C40.323 41.3472 40.3228 41.35 40.3225 41.3528C40.3223 41.3556 40.322 41.3584 40.3218 41.3612C40.3216 41.364 40.3213 41.3668 40.3211 41.3696C40.3208 41.3724 40.3206 41.3752 40.3203 41.3781C40.3201 41.3809 40.3198 41.3837 40.3196 41.3865C40.3193 41.3893 40.3191 41.3921 40.3189 41.3949C40.3186 41.3977 40.3184 41.4005 40.3181 41.4033C40.3179 41.4061 40.3176 41.4089 40.3174 41.4117C40.3171 41.4145 40.3169 41.4173 40.3166 41.4201C40.3164 41.4229 40.3162 41.4257 40.3159 41.4285C40.3157 41.4313 40.3154 41.4341 40.3152 41.4369C40.3149 41.4397 40.3147 41.4425 40.3144 41.4453C40.3142 41.4481 40.314 41.451 40.3137 41.4538C40.3135 41.4566 40.3132 41.4594 40.313 41.4622C40.3127 41.465 40.3125 41.4678 40.3122 41.4706C40.312 41.4734 40.3117 41.4762 40.3115 41.479C40.3113 41.4818 40.311 41.4846 40.3108 41.4874H42.3108ZM42.6993 37.0463L42.9699 33.9536H40.9699L40.6993 37.0463H42.6993ZM42.9699 33.9536C43.0608 32.9143 43.1572 31.8535 43.259 30.7712L41.2602 30.7581C41.158 31.8446 41.0612 32.9098 40.9699 33.9536H42.9699ZM42.5158 31.7022C42.801 31.6031 43.4721 31.5147 44.6647 31.5147L44.839 29.5223C43.654 29.5223 42.6636 29.598 42.0034 29.8272L42.5158 31.7022ZM44.6647 31.5147C44.9347 31.5147 45.2235 31.5214 45.5316 31.5351L45.7945 29.5447C45.4606 29.5299 45.142 29.5223 44.839 29.5223L44.6647 31.5147ZM45.5542 31.5359C45.8768 31.5429 46.2212 31.5534 46.5875 31.5675L46.8385 29.5766C46.4625 29.5621 46.107 29.5512 45.7719 29.544L45.5542 31.5359ZM46.5724 31.5668C47.4754 31.6153 48.0073 31.9211 48.331 32.3939C48.6807 32.9048 48.8847 33.7528 48.7883 35.0814L50.7907 35.0518C50.9029 33.5053 50.6984 32.1666 50.0226 31.1793C49.3208 30.154 48.2102 29.6501 46.8536 29.5773L46.5724 31.5668ZM48.7895 35.0666L48.7876 35.088H50.7876L50.7895 35.0666H48.7895ZM48.7876 35.088C48.738 35.6556 48.5557 36.0889 48.2734 36.4365C47.9846 36.7921 47.5356 37.1258 46.8546 37.402L47.4716 39.2376C48.4092 38.8574 49.2069 38.3243 49.793 37.6026C50.3855 36.873 50.7062 36.0185 50.7876 35.088H48.7876ZM46.798 39.2757C47.4259 39.464 47.8033 39.751 48.0253 40.0896C48.2492 40.4312 48.3762 40.9187 48.3229 41.6281L50.3249 41.6034C50.4013 40.5864 50.2329 39.6613 49.7365 38.9042C49.2382 38.1442 48.4704 37.6464 47.5282 37.3639L46.798 39.2757ZM48.3239 41.6158L48.3165 41.7014H50.3165L50.3239 41.6158H48.3239ZM48.3165 41.7014C48.255 42.4036 48.0591 42.9105 47.7873 43.2805C47.5195 43.645 47.1227 43.9524 46.5302 44.1779L47.103 46.0309C48.0291 45.6785 48.8083 45.1298 49.3738 44.36C49.9353 43.5957 50.23 42.69 50.3165 41.7014H48.3165ZM46.5282 44.1787C45.5258 44.5623 44.29 44.7717 42.7959 44.7717L42.6216 46.7641C44.2928 46.7641 45.7956 46.5312 47.1049 46.0302L46.5282 44.1787ZM42.7959 44.7717C42.5337 44.7717 42.2641 44.765 41.987 44.7515L41.7155 46.7415C42.0231 46.7565 42.3252 46.7641 42.6216 46.7641L42.7959 44.7717ZM41.9882 44.7515C41.7182 44.738 41.4371 44.7177 41.1446 44.6904L40.7858 46.6742C41.1043 46.7039 41.4138 46.7264 41.7142 46.7414L41.9882 44.7515ZM43.0075 39.3953L42.633 43.4297L44.6321 43.4403L45.0065 39.4059L43.0075 39.3953ZM43.4552 44.4271C43.5602 44.4367 43.6653 44.4419 43.7701 44.4419L43.9444 42.4495C43.9059 42.4495 43.8612 42.4476 43.8099 42.4429L43.4552 44.4271ZM43.7701 44.4419H43.9742L44.1485 42.4495H43.9444L43.7701 44.4419ZM43.9742 44.4419C45.3613 44.4419 46.7304 44.0987 47.4659 42.9369L45.7919 41.9855C45.6964 42.1364 45.3538 42.4495 44.1485 42.4495L43.9742 44.4419ZM47.48 42.9139C47.7594 42.448 47.9421 41.9513 47.9873 41.4339H45.9873C45.9739 41.587 45.9176 41.7752 45.7777 42.0084L47.48 42.9139ZM47.9873 41.4339C48.0359 40.8787 47.9268 40.3531 47.6916 39.8695L45.8687 40.858C45.9734 41.0735 46.0024 41.2614 45.9873 41.4339H47.9873ZM47.6753 39.8374C47.0827 38.7342 45.7626 38.4044 44.3412 38.4044L44.1669 40.3968C45.424 40.3968 45.7879 40.7091 45.8851 40.89L47.6753 39.8374ZM44.3412 38.4044H44.0942L43.9198 40.3968H44.1669L44.3412 38.4044Z"
              fill="#1F1F1F" mask="url(#path-6-outside-1_82_13)"/>
        <mask id="path-8-outside-2_82_13" maskUnits="userSpaceOnUse" x="18.8257" y="10.0038" width="33.656"
              height="18.9277" fill="black">
            <rect fill="white" x="18.8257" y="10.0038" width="33.656" height="18.9277"/>
            <path d="M24.8518 24.649C24.8655 24.6562 24.8902 24.6597 24.926 24.6597C25.8785 24.6597 26.4675 24.1889 26.6932 23.2472L26.71 23.0545C26.793 22.1057 26.0042 21.2175 24.3435 20.3899C22.5213 19.5267 21.6703 18.2033 21.7905 16.4197C21.7864 16.3841 21.7875 16.3305 21.7938 16.2592C21.9417 14.5684 22.5032 13.3485 23.4782 12.5994C24.3468 11.9216 25.3182 11.5827 26.3924 11.5827H26.6287C26.7075 11.5827 26.7859 11.5863 26.8641 11.5934C28.3285 11.6362 29.3735 12.0928 29.9991 12.9632L28.9651 15.0821C28.4397 14.5399 27.7387 14.2438 26.8622 14.1939C25.7736 14.1939 25.0848 14.4543 24.7958 14.9751C24.6011 15.3175 24.4894 15.6528 24.4607 15.981C24.4345 16.2806 24.4718 16.5909 24.5726 16.912C24.7556 17.604 25.5286 18.2639 26.8916 18.8917C28.2553 19.5124 29.0555 20.3114 29.2922 21.2888C29.4279 21.8667 29.472 22.4267 29.4245 22.9689C29.3908 23.3542 29.3064 23.7466 29.1712 24.1461C28.8602 25.0807 28.2878 25.8119 27.4538 26.3398C26.6121 26.8749 25.5753 27.1424 24.3436 27.1424C24.3078 27.1424 24.283 27.1389 24.2693 27.1317C22.7237 27.1175 21.5393 26.7394 20.7162 25.9974L22.0268 23.6645C22.9374 24.3066 23.8791 24.6348 24.8518 24.649ZM40.3475 11.3794L40.2924 13.8514L37.6474 14.0012L36.5814 26.8L33.7202 26.8428C33.9448 24.9308 34.1482 23.0973 34.3304 21.3423C34.5197 19.5873 34.6868 17.8822 34.8316 16.2271L34.9271 15.1356C34.9583 14.7789 34.9862 14.4186 35.0109 14.0547L31.9839 14.151L32.1974 11.7112L40.3475 11.3794ZM45.6647 26.6609H45.6217C42.5149 26.6466 41.1696 24.2602 41.586 19.5017L41.6356 18.9345C42.1912 13.8122 44.1885 11.2011 47.6276 11.1012H47.6383C48.7698 11.1012 49.6872 11.4615 50.3904 12.182L49.3194 14.6005C48.9088 14.1368 48.2989 13.9049 47.4897 13.9049C46.8738 13.9049 46.346 14.044 45.9063 14.3223C45.3224 14.8573 44.8956 15.7241 44.6261 16.9227C44.564 17.2223 44.5079 17.5362 44.4577 17.8644C44.4082 18.1854 44.3671 18.5315 44.3347 18.9024C44.301 19.2877 44.2768 19.6872 44.262 20.101C44.2473 20.5148 44.2379 20.9499 44.2338 21.4065C44.3297 23.0117 44.9581 23.85 46.1192 23.9213C47.0001 23.9213 47.7893 23.7002 48.4868 23.2579L49.1902 25.655C48.3724 26.3256 47.1972 26.6609 45.6647 26.6609Z"/>
        </mask>
        <path d="M24.8518 24.649C24.8655 24.6562 24.8902 24.6597 24.926 24.6597C25.8785 24.6597 26.4675 24.1889 26.6932 23.2472L26.71 23.0545C26.793 22.1057 26.0042 21.2175 24.3435 20.3899C22.5213 19.5267 21.6703 18.2033 21.7905 16.4197C21.7864 16.3841 21.7875 16.3305 21.7938 16.2592C21.9417 14.5684 22.5032 13.3485 23.4782 12.5994C24.3468 11.9216 25.3182 11.5827 26.3924 11.5827H26.6287C26.7075 11.5827 26.7859 11.5863 26.8641 11.5934C28.3285 11.6362 29.3735 12.0928 29.9991 12.9632L28.9651 15.0821C28.4397 14.5399 27.7387 14.2438 26.8622 14.1939C25.7736 14.1939 25.0848 14.4543 24.7958 14.9751C24.6011 15.3175 24.4894 15.6528 24.4607 15.981C24.4345 16.2806 24.4718 16.5909 24.5726 16.912C24.7556 17.604 25.5286 18.2639 26.8916 18.8917C28.2553 19.5124 29.0555 20.3114 29.2922 21.2888C29.4279 21.8667 29.472 22.4267 29.4245 22.9689C29.3908 23.3542 29.3064 23.7466 29.1712 24.1461C28.8602 25.0807 28.2878 25.8119 27.4538 26.3398C26.6121 26.8749 25.5753 27.1424 24.3436 27.1424C24.3078 27.1424 24.283 27.1389 24.2693 27.1317C22.7237 27.1175 21.5393 26.7394 20.7162 25.9974L22.0268 23.6645C22.9374 24.3066 23.8791 24.6348 24.8518 24.649ZM40.3475 11.3794L40.2924 13.8514L37.6474 14.0012L36.5814 26.8L33.7202 26.8428C33.9448 24.9308 34.1482 23.0973 34.3304 21.3423C34.5197 19.5873 34.6868 17.8822 34.8316 16.2271L34.9271 15.1356C34.9583 14.7789 34.9862 14.4186 35.0109 14.0547L31.9839 14.151L32.1974 11.7112L40.3475 11.3794ZM45.6647 26.6609H45.6217C42.5149 26.6466 41.1696 24.2602 41.586 19.5017L41.6356 18.9345C42.1912 13.8122 44.1885 11.2011 47.6276 11.1012H47.6383C48.7698 11.1012 49.6872 11.4615 50.3904 12.182L49.3194 14.6005C48.9088 14.1368 48.2989 13.9049 47.4897 13.9049C46.8738 13.9049 46.346 14.044 45.9063 14.3223C45.3224 14.8573 44.8956 15.7241 44.6261 16.9227C44.564 17.2223 44.5079 17.5362 44.4577 17.8644C44.4082 18.1854 44.3671 18.5315 44.3347 18.9024C44.301 19.2877 44.2768 19.6872 44.262 20.101C44.2473 20.5148 44.2379 20.9499 44.2338 21.4065C44.3297 23.0117 44.9581 23.85 46.1192 23.9213C47.0001 23.9213 47.7893 23.7002 48.4868 23.2579L49.1902 25.655C48.3724 26.3256 47.1972 26.6609 45.6647 26.6609Z"
              fill="#F76D06"/>
        <path d="M24.8518 24.649L25.3769 23.758L25.1816 23.6563L24.9536 23.6529L24.8518 24.649ZM26.6932 23.2472L27.6688 23.3964L27.6866 23.3222L27.6932 23.2472H26.6932ZM24.3435 20.3899L24.8544 19.4916L24.8463 19.4876L24.8382 19.4837L24.3435 20.3899ZM21.7905 16.4197L22.792 16.3998L22.798 16.3112L22.7882 16.2244L21.7905 16.4197ZM23.4782 12.5994L24.0483 13.3672L24.055 13.3619L23.4782 12.5994ZM26.8641 11.5934L26.6868 12.5855L26.7171 12.5883L26.7477 12.5892L26.8641 11.5934ZM29.9991 12.9632L30.8956 13.3324L31.1591 12.7925L30.8333 12.3393L29.9991 12.9632ZM28.9651 15.0821L28.2132 15.8043L29.195 16.8173L29.8616 15.4512L28.9651 15.0821ZM26.8622 14.1939L27.006 13.1993L26.9778 13.1977H26.9493L26.8622 14.1939ZM24.7958 14.9751L25.66 15.4056L25.6655 15.3956L24.7958 14.9751ZM24.5726 16.912L25.5451 16.5825L25.5398 16.5621L25.5335 16.542L24.5726 16.912ZM26.8916 18.8917L26.4058 19.8021L26.4095 19.8038L26.8916 18.8917ZM29.2922 21.2888L30.271 20.9844L30.2695 20.9779L29.2922 21.2888ZM29.1712 24.1461L28.2221 23.9045L28.2204 23.9097L29.1712 24.1461ZM27.4538 26.3398L26.968 25.5133L26.9662 25.5144L27.4538 26.3398ZM24.2693 27.1317L24.7945 26.2407L24.5967 26.1377L24.3657 26.1356L24.2693 27.1317ZM20.7162 25.9974L19.8493 25.5718L19.4589 26.2668L20.0068 26.7607L20.7162 25.9974ZM22.0268 23.6645L22.654 22.8356L21.746 22.1954L21.1598 23.2389L22.0268 23.6645ZM24.3266 25.5401C24.5583 25.6607 24.7943 25.6559 24.8389 25.6559L25.0132 23.6635C25.0249 23.6635 25.0599 23.6639 25.1083 23.6709C25.1474 23.6765 25.2544 23.6942 25.3769 23.758L24.3266 25.5401ZM24.8389 25.6559C25.4779 25.6559 26.1249 25.4961 26.6694 25.0609C27.2133 24.6261 27.518 24.0258 27.6688 23.3964L25.7175 23.0979C25.6427 23.4102 25.54 23.5163 25.4949 23.5523C25.4503 23.5879 25.3266 23.6635 25.0132 23.6635L24.8389 25.6559ZM27.6932 23.2472L27.71 23.0545H25.71L25.6932 23.2472H27.6932ZM27.71 23.0545C27.7805 22.249 27.4658 21.5536 26.9585 20.9824C26.46 20.4212 25.7371 19.9315 24.8544 19.4916L23.8327 21.2882C24.6106 21.6759 25.1124 22.0441 25.4028 22.371C25.6843 22.6881 25.7225 22.9113 25.71 23.0545H27.71ZM24.8382 19.4837C24.0375 19.1044 23.5138 18.6543 23.1984 18.1637C22.8885 17.6818 22.7444 17.107 22.792 16.3998L20.7889 16.4396C20.7164 17.516 20.9377 18.4947 21.4787 19.3361C22.0143 20.169 22.8272 20.8121 23.8489 21.2961L24.8382 19.4837ZM22.7882 16.2244C22.7906 16.2459 22.7914 16.2621 22.7917 16.2709C22.792 16.2802 22.7919 16.2857 22.7919 16.2866C22.7918 16.2877 22.792 16.2795 22.7938 16.2592H20.7938C20.7862 16.3463 20.7775 16.4799 20.7928 16.6151L22.7882 16.2244ZM22.7938 16.2592C22.9275 14.7305 23.413 13.8552 24.0483 13.3671L22.9082 11.8316C21.5934 12.8417 20.9559 14.4063 20.7938 16.2592H22.7938ZM24.055 13.3619C24.7268 12.8377 25.4623 12.5789 26.3052 12.5789L26.4795 10.5865C25.174 10.5865 23.9668 11.0055 22.9014 11.8368L24.055 13.3619ZM26.3052 12.5789H26.5415L26.7159 10.5865H26.4795L26.3052 12.5789ZM26.5415 12.5789C26.59 12.5789 26.6384 12.5811 26.6868 12.5855L27.0414 10.6013C26.9335 10.5915 26.825 10.5865 26.7159 10.5865L26.5415 12.5789ZM26.7477 12.5892C28.0168 12.6263 28.7501 13.01 29.1649 13.5871L30.8333 12.3393C29.9968 11.1756 28.6401 10.6462 26.9805 10.5977L26.7477 12.5892ZM29.1026 12.594L28.0686 14.7129L29.8616 15.4512L30.8956 13.3324L29.1026 12.594ZM29.7171 14.3598C29.0156 13.6361 28.0884 13.2609 27.006 13.1993L26.7183 15.1884C27.3889 15.2266 27.8637 15.4437 28.2132 15.8043L29.7171 14.3598ZM26.9493 13.1977C25.8223 13.1977 24.5392 13.4498 23.9261 14.5545L25.6655 15.3956C25.6656 15.3954 25.6656 15.3955 25.6653 15.3958C25.6651 15.3962 25.6649 15.3964 25.665 15.3963C25.665 15.3963 25.6656 15.3956 25.667 15.3943C25.6684 15.3929 25.6708 15.3907 25.6745 15.3878C25.6892 15.376 25.7295 15.3482 25.8134 15.3165C25.9916 15.2491 26.2972 15.19 26.775 15.19L26.9493 13.1977ZM23.9316 14.5446C23.6725 15.0003 23.5044 15.4821 23.4607 15.981H25.4607C25.4745 15.8235 25.5297 15.6347 25.6599 15.4055L23.9316 14.5446ZM23.4607 15.981C23.4218 16.4253 23.4796 16.8612 23.6118 17.282L25.5335 16.542C25.464 16.3207 25.4471 16.1359 25.4607 15.981H23.4607ZM23.6001 17.2415C23.7546 17.8262 24.1321 18.3071 24.598 18.7048C25.0676 19.1058 25.6805 19.468 26.4058 19.8021L27.3774 17.9814C26.7396 17.6877 26.2845 17.406 25.9812 17.1471C25.6741 16.8849 25.5735 16.6898 25.5451 16.5825L23.6001 17.2415ZM26.4095 19.8038C27.6488 20.3678 28.1701 21.0016 28.315 21.5997L30.2695 20.9779C29.9408 19.6212 28.8617 18.657 27.3737 17.9797L26.4095 19.8038ZM28.3134 21.5933C28.4287 22.0844 28.4619 22.5416 28.4245 22.9689H30.4245C30.482 22.3119 30.427 21.649 30.271 20.9844L28.3134 21.5933ZM28.4245 22.9689C28.3984 23.2673 28.3325 23.5785 28.2222 23.9045L30.1202 24.3877C30.2803 23.9146 30.3832 23.441 30.4245 22.9689H28.4245ZM28.2204 23.9097C27.9882 24.6077 27.5789 25.1265 26.968 25.5133L27.9397 27.1664C28.9966 26.4973 29.7323 25.5536 30.1219 24.3825L28.2204 23.9097ZM26.9662 25.5144C26.3432 25.9104 25.5193 26.1462 24.4307 26.1462L24.2564 28.1386C25.6314 28.1386 26.881 27.8394 27.9415 27.1653L26.9662 25.5144ZM24.4307 26.1462C24.4425 26.1462 24.4774 26.1466 24.5259 26.1536C24.5649 26.1592 24.6719 26.1769 24.7945 26.2407L23.7442 28.0228C23.9758 28.1434 24.2119 28.1386 24.2564 28.1386L24.4307 26.1462ZM24.3657 26.1356C22.9739 26.1227 22.0361 25.7844 21.4256 25.2341L20.0068 26.7607C21.0425 27.6943 22.4735 28.1122 24.1729 28.1279L24.3657 26.1356ZM21.5831 26.423L22.8937 24.0901L21.1598 23.2389L19.8493 25.5718L21.5831 26.423ZM21.3995 24.4934C22.4315 25.221 23.5507 25.6275 24.7499 25.6451L24.9536 23.6529C24.2075 23.642 23.4433 23.3922 22.654 22.8356L21.3995 24.4934ZM40.3475 11.3794L41.3511 11.3149L41.3727 10.3442L40.3936 10.3841L40.3475 11.3794ZM40.2924 13.8514L40.2624 14.846L41.2736 14.7887L41.2959 13.7869L40.2924 13.8514ZM37.6474 14.0012L37.6774 13.0067L36.7258 13.0606L36.6471 14.0054L37.6474 14.0012ZM36.5814 26.8L36.5093 27.7961L37.4997 27.7813L37.5817 26.7958L36.5814 26.8ZM33.7202 26.8428L32.7233 26.8131L32.6009 27.8546L33.6481 27.8389L33.7202 26.8428ZM34.3304 21.3423L33.3323 21.3221L33.3319 21.3261L34.3304 21.3423ZM35.0109 14.0547L36.0124 14.0352L36.0808 13.0268L35.066 13.0591L35.0109 14.0547ZM31.9839 14.151H30.9839L30.8939 15.1797L31.9288 15.1467L31.9839 14.151ZM32.1974 11.7112L32.2435 10.7158L31.281 10.755L31.1974 11.7112H32.1974ZM39.344 11.444L39.2888 13.916L41.2959 13.7869L41.3511 11.3149L39.344 11.444ZM40.3223 12.8568L37.6774 13.0067L37.6175 14.9958L40.2624 14.846L40.3223 12.8568ZM36.6471 14.0054L35.581 26.8042L37.5817 26.7958L38.6478 13.9971L36.6471 14.0054ZM36.6535 25.8039L33.7923 25.8467L33.6481 27.8389L36.5093 27.7961L36.6535 25.8039ZM34.7172 26.8725C34.9422 24.9564 35.1461 23.1184 35.3288 21.3585L33.3319 21.3261C33.1502 23.0763 32.9474 24.9052 32.7233 26.8131L34.7172 26.8725ZM35.3284 21.3626C35.5184 19.6012 35.6862 17.8894 35.8316 16.2271H33.8316C33.6874 17.8751 33.521 19.5734 33.3323 21.3221L35.3284 21.3626ZM35.8316 16.2271L35.9271 15.1356H33.9271L33.8316 16.2271H35.8316ZM35.9271 15.1356C35.9589 14.7722 35.9873 14.4054 36.0124 14.0352L34.0094 14.0743C33.9852 14.4317 33.9577 14.7855 33.9271 15.1356H35.9271ZM35.066 13.0591L32.039 13.1554L31.9288 15.1467L34.9558 15.0504L35.066 13.0591ZM32.9839 14.151L33.1974 11.7112H31.1974L30.9839 14.151H32.9839ZM32.1513 12.7065L40.3014 12.3748L40.3936 10.3841L32.2435 10.7158L32.1513 12.7065ZM45.6217 26.6609L45.53 27.6571H45.5346L45.6217 26.6609ZM41.6356 18.9345L40.6376 18.9137L40.6365 18.9241L40.6356 18.9345H41.6356ZM47.6276 11.1012L47.7147 10.105H47.7001L47.6855 10.1054L47.6276 11.1012ZM50.3904 12.182L51.304 12.5144L51.5748 11.9029L51.1402 11.4576L50.3904 12.182ZM49.3194 14.6005L48.5407 15.2938L49.5623 16.4476L50.233 14.9329L49.3194 14.6005ZM45.9063 14.3223L45.4206 13.4956L45.3354 13.5495L45.2608 13.6179L45.9063 14.3223ZM44.6261 16.9227L43.6471 16.7876L43.6452 16.7962L43.6434 16.8049L44.6261 16.9227ZM44.4577 17.8644L45.4497 17.9307L45.4499 17.9292L44.4577 17.8644ZM44.2338 21.4065L43.23 21.4841L43.2297 21.5177L43.2317 21.5511L44.2338 21.4065ZM46.1192 23.9213L45.971 24.9157L46.0014 24.9175H46.0321L46.1192 23.9213ZM48.4868 23.2579L49.4527 22.9044L49.1079 21.7294L48.0003 22.4318L48.4868 23.2579ZM49.1902 25.655L49.7885 26.4003L50.3447 25.9442L50.1561 25.3015L49.1902 25.655ZM45.7518 25.6647H45.7089L45.5346 27.6571H45.5775L45.7518 25.6647ZM45.7135 25.6647C44.4617 25.6589 43.6668 25.2013 43.169 24.3182C42.63 23.3619 42.3845 21.8044 42.586 19.5017H40.586C40.3711 21.9575 40.5901 23.9724 41.3963 25.4026C42.2438 26.9059 43.6749 27.6485 45.53 27.6571L45.7135 25.6647ZM42.586 19.5017L42.6356 18.9345H40.6356L40.586 19.5017H42.586ZM42.6335 18.9553C42.9023 16.4771 43.5074 14.7677 44.3304 13.6917C45.1062 12.6775 46.1407 12.1384 47.5697 12.0969L47.6855 10.1054C45.6754 10.1638 43.9916 10.9803 42.7701 12.5772C41.5958 14.1123 40.9244 16.2696 40.6376 18.9137L42.6335 18.9553ZM47.5404 12.0974H47.5511L47.7255 10.105H47.7147L47.5404 12.0974ZM47.5511 12.0974C48.4481 12.0974 49.121 12.3741 49.6406 12.9064L51.1402 11.4576C50.2533 10.5489 49.0915 10.105 47.7255 10.105L47.5511 12.0974ZM49.4768 11.8496L48.4059 14.2681L50.233 14.9329L51.304 12.5144L49.4768 11.8496ZM50.0982 13.9072C49.4757 13.2041 48.5853 12.9087 47.5768 12.9087L47.4025 14.9011C48.0125 14.9011 48.342 15.0694 48.5407 15.2938L50.0982 13.9072ZM47.5768 12.9087C46.8083 12.9087 46.0715 13.0837 45.4206 13.4956L46.392 15.149C46.6205 15.0044 46.9393 14.9011 47.4025 14.9011L47.5768 12.9087ZM45.2608 13.6179C44.435 14.3745 43.9382 15.4932 43.6471 16.7876L45.605 17.0578C45.853 15.9551 46.2097 15.3401 46.5518 15.0267L45.2608 13.6179ZM43.6434 16.8049C43.5774 17.1236 43.5182 17.4553 43.4655 17.7996L45.4499 17.9292C45.4977 17.6172 45.5507 17.321 45.6087 17.0405L43.6434 16.8049ZM43.4657 17.7981C43.4123 18.1443 43.3688 18.5126 43.3347 18.9024H45.3347C45.3655 18.5503 45.404 18.2266 45.4497 17.9307L43.4657 17.7981ZM43.3347 18.9024C43.2994 19.3061 43.2742 19.7228 43.2589 20.1524L45.2652 20.0495C45.2794 19.6516 45.3026 19.2693 45.3347 18.9024H43.3347ZM43.2589 20.1524C43.2438 20.5758 43.2342 21.0197 43.23 21.4841L45.2375 21.3289C45.2416 20.8802 45.2508 20.4537 45.2652 20.0495L43.2589 20.1524ZM43.2317 21.5511C43.2856 22.4529 43.4938 23.2644 43.9533 23.8772C44.4369 24.5223 45.1377 24.8645 45.971 24.9157L46.2674 22.927C45.9396 22.9069 45.7457 22.7943 45.6008 22.6011C45.4318 22.3756 45.2778 21.9654 45.2358 21.262L43.2317 21.5511ZM46.0321 24.9175C47.0895 24.9175 48.0823 24.6491 48.9734 24.084L48.0003 22.4318C47.4963 22.7513 46.9106 22.9252 46.2064 22.9252L46.0321 24.9175ZM47.521 23.6113L48.2243 26.0084L50.1561 25.3015L49.4527 22.9044L47.521 23.6113ZM48.5919 24.9096C48.0507 25.3535 47.1608 25.6647 45.7518 25.6647L45.5775 27.6571C47.2337 27.6571 48.6941 27.2977 49.7885 26.4003L48.5919 24.9096Z"
              fill="#1F1F1F" mask="url(#path-8-outside-2_82_13)"/>
    </g>
    <defs>
        <filter id="filter0_d_82_13" x="0.554932" y="0.5" width="68.9011" height="68.9828" filterUnits="userSpaceOnUse"
                color-interpolation-filters="sRGB">
            <feFlood flood-opacity="0" result="BackgroundImageFix"/>
            <feColorMatrix in="SourceAlpha" type="matrix" values="0 0 0 0 0 0 0 0 0 0 0 0 0 0 0 0 0 0 127 0"
                           result="hardAlpha"/>
            <feOffset dx="-2" dy="2"/>
            <feGaussianBlur stdDeviation="1"/>
            <feComposite in2="hardAlpha" operator="out"/>
            <feColorMatrix type="matrix" values="0 0 0 0 0 0 0 0 0 0 0 0 0 0 0 0 0 0 0.44 0"/>
            <feBlend mode="normal" in2="BackgroundImageFix" result="effect1_dropShadow_82_13"/>
            <feBlend mode="normal" in="SourceGraphic" in2="effect1_dropShadow_82_13" result="shape"/>
        </filter>
        <linearGradient id="paint0_linear_82_13" x1="5" y1="64.9828" x2="64.4385" y2="-2.98884"
                        gradientUnits="userSpaceOnUse">
            <stop offset="0.442708" stop-color="#DBD327"/>
            <stop offset="0.541667" stop-color="#F76D06"/>
        </linearGradient>
        <linearGradient id="paint1_linear_82_13" x1="8.14233" y1="16.8608" x2="22.2398" y2="6.41747"
                        gradientUnits="userSpaceOnUse">
            <stop offset="0.442708" stop-color="#DBD327"/>
            <stop offset="0.541667" stop-color="#F76D06"/>
        </linearGradient>
        <linearGradient id="paint2_linear_82_13" x1="19.4001" y1="62.0397" x2="26.7887" y2="39.2023"
                        gradientUnits="userSpaceOnUse">
            <stop offset="0.442708" stop-color="#DBD327"/>
            <stop offset="0.541667" stop-color="#F76D06"/>
        </linearGradient>
        <linearGradient id="paint3_linear_82_13" x1="26.7393" y1="65" x2="35.6289" y2="61.6376"
                        gradientUnits="userSpaceOnUse">
            <stop offset="0.442708" stop-color="#DBD327"/>
            <stop offset="0.541667" stop-color="#F76D06"/>
        </linearGradient>
    </defs>
</svg>
