<svg
        width="261"
        height="250"
        viewBox="0 0 261 250"
        fill="none"
        xmlns="http://www.w3.org/2000/svg"
        xmlns:cc="http://creativecommons.org/ns#"
        xmlns:dc="http://purl.org/dc/elements/1.1/"
        xmlns:rdf="http://www.w3.org/1999/02/22-rdf-syntax-ns#"
>
    <title>STC Hub: Scroll and Quill 2</title>
    <metadata>
        <rdf:RDF>
            <cc:Work rdf:about="">
                <cc:license rdf:resource="http://creativecommons.org/licenses/by-nc-nd/4.0/"/>
                <dc:title>STC Hub: Scroll and Quill 2</dc:title>
                <dc:description>A scroll with the text STC HUB next to an ink pot with a purple and green quill</dc:description>
                <dc:date>2024/01/04</dc:date>
                <dc:rights>
                    <cc:Agent>
                        <dc:title>STC Hub</dc:title>
                    </cc:Agent>
                </dc:rights>
                <dc:publisher>
                    <cc:Agent>
                        <dc:title>STC Hub</dc:title>
                    </cc:Agent>
                </dc:publisher>
                <dc:creator>
                    <cc:Agent>
                        <dc:title>Chimbambu</dc:title>
                    </cc:Agent>
                </dc:creator>
                <dc:contributor>
                    <cc:Agent>
                        <dc:title>Nerilea Aeliren</dc:title>
                    </cc:Agent>
                </dc:contributor>
            </cc:Work>
        </rdf:RDF>
    </metadata>
<circle cx="133" cy="125" r="125" fill="#1F1F1F"/>
<g filter="url(#filter0_d_78_47)">
<path d="M55.5 10L32 10.5L40.5 19L45 28L46 47.5L43 62.5L33.5 118.5L32.5 158.5L39 209.5L49.5 234L60.5 240H73L125 231L190 211L192 202L191 191L186.5 184.5L177 181L151 180L148 162L148.5 134.5L153 83L154.5 66L154 39.5L150.5 27L142 19.5L133 17L55.5 10Z" fill="#F2BA70"/>
<path d="M68.5 188L78.5 193L84 204V218.5L79 229.5L72 239.5H57.5L46.5 230L55.5 227.5L50 217.5L50.5 201.5L56 192L68.5 188Z" fill="#8B6E45"/>
<path d="M75 214.5H59L58.5 205.5L66.5 200.5L73 203.5L75 214.5Z" fill="#4D3D27"/>
<path d="M17.5 14L30 10.5L39 17L44 25.5L46.5 42.5L45.5 54L42 65H25.5L15.5 60.5L11.5 54L8 38.5L10 25L17.5 14Z" fill="#8B6E45"/>
<path d="M37 47H18V34.9521L27 30L36 37.2121L37 47Z" fill="#4D3D27"/>
<path d="M175.514 180.119L153.279 181.052C151.729 181.117 150.437 179.878 150.437 178.326L148.097 161.004L148.097 143.845L149.754 114.673L151.411 99.2297L153.067 82.0701L154.073 76.0275C154.506 73.4234 154.724 70.7881 154.724 68.1481V61.4787V44.3191L153.857 37.1298C153.341 32.8567 151.637 28.8137 148.939 25.4602C146.224 22.0858 142.612 19.5459 138.518 18.1325L137.691 17.847C135.799 17.1937 133.838 16.7607 131.847 16.5565L128.02 16.1641L118.277 15.1478L95.0827 13.4319L75.2023 11.7159L55.3218 9.99998H35.4413C33.2364 9.99998 31.0355 10.1886 28.8628 10.5636L23.0814 11.5616C22.4867 11.6643 21.902 11.8183 21.3338 12.022C20.4487 12.3392 19.6104 12.7745 18.8417 13.316L18.0223 13.8933C16.3349 15.082 14.8667 16.5545 13.683 18.2453L13.2657 18.8412C12.588 19.8093 11.9893 20.8304 11.4756 21.8947L10.5907 23.7276C9.4958 25.9364 8.82121 28.3296 8.60135 30.785L8.30355 34.111C8.1016 36.3665 8.10338 38.6357 8.30889 40.8909L8.37437 41.6095C8.74444 45.6707 9.84213 49.6322 11.615 53.3047L12.9028 55.9724C13.5664 57.3471 14.4377 58.6115 15.4861 59.721C16.7121 61.0186 18.1617 62.0848 19.7655 62.8687L20.7791 63.3641C21.7159 63.822 22.695 64.188 23.7025 64.4569C25.0591 64.819 26.4573 65.0024 27.8615 65.0024H40.2234C41.1709 65.0024 41.8837 65.8659 41.704 66.7963L38.7547 82.0701L36.2697 99.2297L33.7846 116.389L32.1279 133.549V157.572L33.7846 173.016L35.4413 188.459L37.2302 201.285C37.6324 204.168 38.2961 207.009 39.2132 209.773L42.96 221.063L46.9434 229.55C48.5608 232.996 51.2258 235.844 54.5578 237.685C57.2323 239.163 60.2381 239.938 63.2938 239.938H65.262H67.7762C70.513 239.938 73.2447 239.704 75.9416 239.239L81.8291 238.222L91.7693 236.506L106.68 233.932L124.598 231.179L141.314 228.989L158.029 226.799L174.745 223.514L179.423 221.995C181.321 221.379 183.091 220.421 184.645 219.169C187.323 217.011 189.255 214.065 190.166 210.748L190.671 208.912C191.004 207.699 191.234 206.461 191.359 205.21L191.755 201.224C191.918 199.582 191.92 197.928 191.762 196.286L191.517 193.75C191.29 191.401 190.505 189.14 189.228 187.156C188.321 185.747 187.182 184.503 185.859 183.475L185.751 183.39C182.833 181.124 179.206 179.965 175.514 180.119Z" stroke="black" stroke-width="3" stroke-linejoin="round"/>
<path d="M17.8624 46.9549L17.3055 42.3399C17.126 40.8527 17.2141 39.3453 17.5655 37.8891L18.0059 36.0648C18.4469 34.2375 19.5459 32.6367 21.0929 31.5686V31.5686C22.7389 30.4319 24.765 29.9859 26.7362 30.3262L27.7638 30.5036C31.373 31.1266 34.3708 33.6373 35.6176 37.0811L35.7904 37.5584C35.9872 38.102 36.1411 38.6602 36.2507 39.2279L36.5906 40.9878C37.3437 44.8875 36.9879 48.9204 35.5636 52.6281L34.6167 55.0932C33.8855 56.9968 32.6609 58.6714 31.0686 59.9453V59.9453C29.39 61.2881 27.3683 62.1332 25.2334 62.3844L20.0001 63M41.5001 67L42.8364 63.2584C43.6112 61.089 44.2288 58.8666 44.6845 56.6085L45.3884 53.1199L45.8801 48.1276C46.1744 45.1402 46.1877 42.1319 45.92 39.1421L45.3884 33.2052L45.0083 29.9247C44.6433 26.7744 43.6082 23.7388 41.9725 21.0217V21.0217C41.3626 20.0086 40.6727 19.0457 39.9096 18.1423L39.8364 18.0557C36.8497 14.5203 32.891 11.9393 28.4512 10.6328L28.0001 10.5" stroke="black" stroke-width="3"/>
<path d="M154 181L63.0118 189.12C61.1044 189.29 59.2663 189.918 57.6533 190.951V190.951C56.4542 191.718 55.4024 192.694 54.548 193.833L53.718 194.94C52.3825 196.72 51.3607 198.715 50.6967 200.839L50.4814 201.528C49.7646 203.821 49.4 206.21 49.4 208.612V211.894C49.4 213.418 49.554 214.937 49.8595 216.429L50.4716 219.419C50.8186 221.113 51.5796 222.695 52.6868 224.024V224.024C53.227 224.672 53.8436 225.253 54.5231 225.753L56.3 227.062L56.5638 227.25C58.4724 228.613 60.8029 229.254 63.1401 229.059V229.059C64.3952 228.955 65.6188 228.612 66.7453 228.049L67.115 227.864C68.1792 227.332 69.1586 226.645 70.0216 225.827L70.7329 225.152C72.2267 223.734 73.3961 222.01 74.161 220.098V220.098C74.7169 218.708 75.0508 217.239 75.1504 215.746L75.355 212.676C75.451 211.236 75.2974 209.791 74.9009 208.403L74.4331 206.765C73.835 204.672 72.4419 202.895 70.5515 201.815V201.815C68.0342 200.377 64.9169 200.367 62.3739 201.76V201.76C60.9088 202.562 59.6961 203.79 58.9236 205.271L58.666 205.765C57.9001 207.233 57.5001 208.865 57.5001 210.521V214.5" stroke="black" stroke-width="3"/>
<path d="M71.7053 240L76.369 233.962C77.6753 232.271 78.8328 230.469 79.8286 228.579L80.2284 227.819C82.2573 223.967 83.4983 219.748 83.879 215.411V215.411C84.0464 213.504 84.0464 211.586 83.8791 209.678L83.4525 204.819C83.3526 203.68 83.1493 202.552 82.8452 201.45L82.6048 200.578C80.9829 194.699 76.383 190.109 70.5 188.5V188.5" stroke="black" stroke-width="3"/>
</g>
<g filter="url(#filter1_d_78_47)">
<path d="M127.8 224.425L126.4 230.089C125.661 235.323 129.724 240 135.01 240H136.2H194.79C200.076 240 204.139 235.323 203.4 230.089L202 224.425L200.6 220.177L200.243 219.454C199.554 218.061 198.602 216.816 197.438 215.786L195.763 214.303C194.342 213.046 192.64 212.147 190.8 211.681L185.2 209.558L182.92 208.693C180.921 207.935 179.6 206.02 179.6 203.883V202.766C179.6 202.128 179.852 201.516 180.3 201.062C180.748 200.608 181 199.996 181 199.358V195.678C181 195.045 180.751 194.438 180.306 193.988C179.854 193.531 179.239 193.274 178.596 193.274H165.6H164.2H151.204C150.561 193.274 149.946 193.531 149.494 193.988C149.05 194.438 148.8 195.045 148.8 195.678V198.938V199.358C148.8 199.996 149.052 200.608 149.5 201.062C149.948 201.516 150.2 202.128 150.2 202.766V203.883C150.2 206.02 148.879 207.935 146.881 208.693L144.6 209.558L139 211.681C137.16 212.147 135.458 213.046 134.037 214.303L132.362 215.786C131.198 216.816 130.246 218.061 129.557 219.454L129.2 220.177L127.8 224.425Z" fill="#12132B" stroke="black" stroke-width="3"/>
<rect x="165" y="197" width="12" height="4" rx="2" fill="#58C9DB" fill-opacity="0.5"/>
<path d="M199 230C198.212 232.055 195 225.5 190.5 222C186.5 218.889 175.212 215.055 176 213C176.788 210.945 186.825 215.475 192.106 217.5C197.387 219.525 199.788 227.945 199 230Z" fill="#58C9DB" fill-opacity="0.5"/>
<path d="M162.8 190.443V193.274H168.4V191.858L169.8 190.443L172.6 189.027L175.4 187.611L192.2 176.283L183.8 174.867L197.8 167.788H190.8L195 164.956L197.8 163.54L200.6 162.124L203.4 160.708L209 153.628H204.8L220.2 140.885L196.4 145.133L224.4 132.389H216L238.4 115.398L242.6 112.566L237 111.15L245.4 108.319L248.2 105.487L249.6 102.655L251 99.823L258 80L251 81.4159L245.4 82.8319L237 84.2478L231.4 87.0796L224.4 95.5752L225.8 88.4956L223 91.3274L220.2 94.1593L217.4 96.9912L216 99.823L214.6 106.903L213.2 102.655V99.823L214.6 94.1593H211.8L197.8 104.071L196.4 105.487L195 108.319L186.6 121.062L183.8 115.398L179.6 122.478L178.2 119.646L174 126.726L172.6 128.142L168.4 145.133L164.2 136.637L160 150.796L155.8 145.133V146.549V156.46V166.372L157.2 167.788V176.283L158.6 177.699L162.8 190.443Z" fill="url(#paint0_linear_78_47)" stroke="black" stroke-width="3"/>
<path d="M165 193L175.154 167.65C176.249 164.916 177.593 162.288 179.17 159.801L190.688 141.628C193.084 137.847 195.997 134.421 199.343 131.447L217.4 115.398L245.4 95.5753" stroke="black" stroke-width="3"/>
</g>
<mask id="path-16-outside-1_78_47" maskUnits="userSpaceOnUse" x="44.5092" y="114.954" width="98.4449" height="50.8059" fill="black">
<rect fill="white" x="44.5092" y="114.954" width="98.4449" height="50.8059"/>
<path d="M58.838 118.067L57.2689 137.431L65.7215 136.902L67.3298 118.161L75.0241 118.441L71.0399 161.838L63.6404 162.118L65.2255 144L56.5039 144.747L55.0168 161.744L47.4678 162.305C48.0005 156.929 48.5211 151.336 49.0295 145.525C49.7867 136.871 50.5159 127.822 51.217 118.379L58.838 118.067ZM82.0787 118.846L91.057 118.379C90.1578 126.514 89.4812 133.176 89.0272 138.365C88.399 145.546 88.1948 149.904 88.4146 151.44C88.7709 154.034 90.1425 155.383 92.5292 155.487C92.5899 155.508 92.6723 155.518 92.7765 155.518C95.0265 155.518 96.5462 154.221 97.3357 151.627C97.73 150.215 98.2195 146.168 98.8042 139.486C99.2726 134.131 99.7944 127.095 100.37 118.379L109.11 118.846C108.984 120.527 108.852 122.156 108.714 123.733C108.598 125.29 108.476 126.805 108.347 128.278C107.347 139.714 106.452 147.434 105.665 151.44C104.621 156.462 102.426 159.762 99.0797 161.34C96.603 162.502 94.1668 163.083 91.7709 163.083C90.8334 163.083 89.9041 162.99 88.9829 162.803C85.6796 162.222 83.2538 160.541 81.7054 157.76C80.1915 155.062 79.7813 149.749 80.4749 141.82L80.8154 137.929C81.124 134.401 81.3851 131.059 81.5986 127.905C81.8121 124.75 81.9721 121.731 82.0787 118.846ZM122.788 124.979L121.821 137.462C125.702 137.4 128.277 136.3 129.547 134.162C130.261 132.917 130.67 131.692 130.775 130.489C130.86 129.513 130.761 128.507 130.477 127.469C129.968 125.663 128.318 124.761 125.526 124.761C125.13 124.761 124.701 124.781 124.239 124.823C123.8 124.844 123.316 124.896 122.788 124.979ZM112.579 162.025C112.906 158.04 113.241 153.972 113.584 149.821C113.949 145.65 114.325 141.343 114.714 136.902L115.501 127.905C115.766 124.875 116.047 121.782 116.344 118.628C117.719 118.15 120.136 117.912 123.594 117.912C124.427 117.912 125.311 117.933 126.245 117.974C127.201 117.995 128.22 118.026 129.299 118.067C135.873 118.42 138.856 122.779 138.249 131.143L138.244 131.205C137.862 135.563 135.317 138.697 130.609 140.606C135.176 141.976 137.272 145.172 136.895 150.195L136.873 150.444C136.443 155.362 134.019 158.662 129.601 160.343C126.238 161.63 122.255 162.274 117.65 162.274C116.838 162.274 116.006 162.253 115.156 162.211C114.326 162.17 113.467 162.108 112.579 162.025ZM121.427 143.751L120.338 155.487C120.565 155.508 120.783 155.518 120.992 155.518H121.585C125.356 155.518 127.846 154.563 129.055 152.654C129.664 151.637 130.012 150.641 130.097 149.665C130.19 148.607 129.989 147.569 129.495 146.552C128.491 144.685 126.042 143.751 122.146 143.751H121.427Z"/>
</mask>
<path d="M58.838 118.067L57.2689 137.431L65.7215 136.902L67.3298 118.161L75.0241 118.441L71.0399 161.838L63.6404 162.118L65.2255 144L56.5039 144.747L55.0168 161.744L47.4678 162.305C48.0005 156.929 48.5211 151.336 49.0295 145.525C49.7867 136.871 50.5159 127.822 51.217 118.379L58.838 118.067ZM82.0787 118.846L91.057 118.379C90.1578 126.514 89.4812 133.176 89.0272 138.365C88.399 145.546 88.1948 149.904 88.4146 151.44C88.7709 154.034 90.1425 155.383 92.5292 155.487C92.5899 155.508 92.6723 155.518 92.7765 155.518C95.0265 155.518 96.5462 154.221 97.3357 151.627C97.73 150.215 98.2195 146.168 98.8042 139.486C99.2726 134.131 99.7944 127.095 100.37 118.379L109.11 118.846C108.984 120.527 108.852 122.156 108.714 123.733C108.598 125.29 108.476 126.805 108.347 128.278C107.347 139.714 106.452 147.434 105.665 151.44C104.621 156.462 102.426 159.762 99.0797 161.34C96.603 162.502 94.1668 163.083 91.7709 163.083C90.8334 163.083 89.9041 162.99 88.9829 162.803C85.6796 162.222 83.2538 160.541 81.7054 157.76C80.1915 155.062 79.7813 149.749 80.4749 141.82L80.8154 137.929C81.124 134.401 81.3851 131.059 81.5986 127.905C81.8121 124.75 81.9721 121.731 82.0787 118.846ZM122.788 124.979L121.821 137.462C125.702 137.4 128.277 136.3 129.547 134.162C130.261 132.917 130.67 131.692 130.775 130.489C130.86 129.513 130.761 128.507 130.477 127.469C129.968 125.663 128.318 124.761 125.526 124.761C125.13 124.761 124.701 124.781 124.239 124.823C123.8 124.844 123.316 124.896 122.788 124.979ZM112.579 162.025C112.906 158.04 113.241 153.972 113.584 149.821C113.949 145.65 114.325 141.343 114.714 136.902L115.501 127.905C115.766 124.875 116.047 121.782 116.344 118.628C117.719 118.15 120.136 117.912 123.594 117.912C124.427 117.912 125.311 117.933 126.245 117.974C127.201 117.995 128.22 118.026 129.299 118.067C135.873 118.42 138.856 122.779 138.249 131.143L138.244 131.205C137.862 135.563 135.317 138.697 130.609 140.606C135.176 141.976 137.272 145.172 136.895 150.195L136.873 150.444C136.443 155.362 134.019 158.662 129.601 160.343C126.238 161.63 122.255 162.274 117.65 162.274C116.838 162.274 116.006 162.253 115.156 162.211C114.326 162.17 113.467 162.108 112.579 162.025ZM121.427 143.751L120.338 155.487C120.565 155.508 120.783 155.518 120.992 155.518H121.585C125.356 155.518 127.846 154.563 129.055 152.654C129.664 151.637 130.012 150.641 130.097 149.665C130.19 148.607 129.989 147.569 129.495 146.552C128.491 144.685 126.042 143.751 122.146 143.751H121.427Z" fill="#23D16C"/>
<path d="M58.838 118.067L60.8391 118.055L61.0062 115.992L58.9299 116.077L58.838 118.067ZM57.2689 137.431L55.2678 137.444L55.097 139.552L57.2211 139.419L57.2689 137.431ZM65.7215 136.902L65.6737 138.89L67.561 138.772L67.7218 136.898L65.7215 136.902ZM67.3298 118.161L67.5769 116.17L65.5072 116.094L65.3296 118.164L67.3298 118.161ZM75.0241 118.441L77.0233 118.45L77.2005 116.52L75.2711 116.45L75.0241 118.441ZM71.0399 161.838L70.9419 163.829L72.8638 163.756L73.0391 161.846L71.0399 161.838ZM63.6404 162.118H61.6404L61.4593 164.188L63.5424 164.109L63.6404 162.118ZM65.2255 144H67.2255L67.4156 141.827L65.2265 142.015L65.2255 144ZM56.5039 144.747L56.5049 142.762L54.6637 142.92L54.5039 144.747H56.5039ZM55.0168 161.744L54.9925 163.731L56.8551 163.593L57.0168 161.744H55.0168ZM47.4678 162.305L45.4699 162.282L45.2546 164.454L47.4435 164.292L47.4678 162.305ZM51.217 118.379L51.309 116.388L49.3588 116.468L49.2149 118.405L51.217 118.379ZM56.8369 118.08L55.2678 137.444L59.27 137.418L60.8391 118.055L56.8369 118.08ZM57.2211 139.419L65.6737 138.89L65.7693 134.913L57.3168 135.443L57.2211 139.419ZM67.7218 136.898L69.3301 118.158L65.3296 118.164L63.7212 136.905L67.7218 136.898ZM67.0828 120.152L74.7771 120.432L75.2711 116.45L67.5769 116.17L67.0828 120.152ZM73.0249 118.432L69.0406 161.829L73.0391 161.846L77.0233 118.45L73.0249 118.432ZM71.1378 159.847L63.7383 160.127L63.5424 164.109L70.9419 163.829L71.1378 159.847ZM65.6404 162.118L67.2255 144H63.2255L61.6404 162.118H65.6404ZM65.2265 142.015L56.5049 142.762L56.5029 146.732L65.2245 145.985L65.2265 142.015ZM54.5039 144.747L53.0168 161.744H57.0168L58.5039 144.747H54.5039ZM55.041 159.758L47.492 160.318L47.4435 164.292L54.9925 163.731L55.041 159.758ZM49.4656 162.328C49.9992 156.944 50.5205 151.343 51.0295 145.525H47.0295C46.5218 151.329 46.0019 156.915 45.4699 162.282L49.4656 162.328ZM51.0295 145.525C51.7875 136.861 52.5174 127.804 53.2192 118.352L49.2149 118.405C48.5143 127.84 47.7859 136.88 47.0295 145.525H51.0295ZM51.1251 120.369L58.7461 120.058L58.9299 116.077L51.309 116.388L51.1251 120.369ZM82.0787 118.846L82.148 116.856L80.1458 116.96L80.0724 118.946L82.0787 118.846ZM91.057 118.379L93.0525 118.424L93.2899 116.277L91.1264 116.389L91.057 118.379ZM88.4146 151.44L90.4043 151.004L90.4028 150.994L88.4146 151.44ZM92.5292 155.487L93.3271 153.597L93.069 153.509L92.7903 153.497L92.5292 155.487ZM97.3357 151.627L99.2538 152.047L99.2609 152.024L99.2674 152.001L97.3357 151.627ZM100.37 118.379L100.65 116.389L98.5079 116.275L98.3663 118.421L100.37 118.379ZM109.11 118.846L111.112 118.821L111.252 116.956L109.391 116.856L109.11 118.846ZM108.714 123.733H106.714L106.712 123.747L106.711 123.76L108.714 123.733ZM105.665 151.44L107.63 151.677L107.632 151.666L107.634 151.655L105.665 151.44ZM99.0797 161.34L99.805 163.128L99.8085 163.126L99.0797 161.34ZM88.9829 162.803L89.5461 160.849L89.5218 160.844L89.4973 160.84L88.9829 162.803ZM81.7054 157.76L83.4827 156.683L83.4798 156.678L81.7054 157.76ZM82.0094 120.835L90.9877 120.368L91.1264 116.389L82.148 116.856L82.0094 120.835ZM89.0616 118.333C88.1614 126.476 87.483 133.155 87.0272 138.365H91.0272C91.4793 133.198 92.1541 126.552 93.0525 118.424L89.0616 118.333ZM87.0272 138.365C86.712 141.968 86.5014 144.882 86.3975 147.1C86.2963 149.259 86.2868 150.911 86.4263 151.886L90.4028 150.994C90.3225 150.433 90.3052 149.138 90.4083 146.939C90.5086 144.798 90.7142 141.943 91.0272 138.365H87.0272ZM86.4248 151.875C86.6403 153.444 87.1915 154.844 88.2362 155.872C89.2989 156.917 90.7024 157.409 92.2682 157.478L92.7903 153.497C91.9693 153.461 91.4937 153.227 91.1848 152.923C90.8579 152.602 90.5452 152.03 90.4043 151.004L86.4248 151.875ZM91.7314 157.377C92.0707 157.493 92.3928 157.511 92.6022 157.511L92.9508 153.526C92.9629 153.526 93.0008 153.526 93.0576 153.533C93.1123 153.54 93.2083 153.556 93.3271 153.597L91.7314 157.377ZM92.6022 157.511C94.1377 157.511 95.607 157.055 96.8347 156.007C98.0249 154.991 98.7835 153.593 99.2538 152.047L95.4176 151.206C95.0985 152.255 94.7024 152.802 94.3729 153.083C94.0809 153.333 93.6654 153.526 92.9508 153.526L92.6022 157.511ZM99.2674 152.001C99.5136 151.12 99.7492 149.604 99.9916 147.599C100.24 145.544 100.511 142.837 100.804 139.486H96.8042C96.5127 142.817 96.2464 145.475 96.0055 147.467C95.7584 149.509 95.5521 150.723 95.404 151.253L99.2674 152.001ZM100.804 139.486C101.274 134.111 101.797 127.059 102.373 118.336L98.3663 118.421C97.7916 127.132 97.2709 134.151 96.8042 139.486H100.804ZM100.089 120.368L108.829 120.835L109.391 116.856L100.65 116.389L100.089 120.368ZM107.108 118.87C106.982 120.544 106.851 122.165 106.714 123.733H110.714C110.852 122.147 110.985 120.51 111.112 118.821L107.108 118.87ZM106.711 123.76C106.597 125.308 106.475 126.814 106.347 128.278H110.347C110.477 126.796 110.6 125.272 110.716 123.707L106.711 123.76ZM106.347 128.278C105.346 139.728 104.459 147.343 103.695 151.224L107.634 151.655C108.446 147.526 109.348 139.7 110.347 128.278H106.347ZM103.699 151.203C102.732 155.861 100.823 158.388 98.3509 159.553L99.8085 163.126C104.029 161.137 106.51 157.063 107.63 151.677L103.699 151.203ZM98.3543 159.551C96.1335 160.594 94.0045 161.091 91.9452 161.091L91.5966 165.075C94.329 165.075 97.0725 164.41 99.805 163.128L98.3543 159.551ZM91.9452 161.091C91.142 161.091 90.3429 161.011 89.5461 160.849L88.4198 164.757C89.4653 164.969 90.5248 165.075 91.5966 165.075L91.9452 161.091ZM89.4973 160.84C86.7212 160.352 84.762 158.981 83.4827 156.683L79.9281 158.836C81.7456 162.1 84.638 164.092 88.4685 164.766L89.4973 160.84ZM83.4798 156.678C82.9108 155.664 82.4606 153.974 82.2642 151.429C82.0702 148.916 82.1336 145.722 82.4749 141.82H78.4749C78.1226 145.847 78.0443 149.274 78.2605 152.074C78.4742 154.842 78.9861 157.157 79.931 158.841L83.4798 156.678ZM82.4749 141.82L82.8154 137.929H78.8154L78.4749 141.82H82.4749ZM82.8154 137.929C83.125 134.389 83.3872 131.035 83.6017 127.866L79.5956 127.944C79.383 131.084 79.123 134.412 78.8154 137.929H82.8154ZM83.6017 127.866C83.8164 124.692 83.9775 121.652 84.0849 118.746L80.0724 118.946C79.9667 121.809 79.8078 124.808 79.5956 127.944L83.6017 127.866ZM122.788 124.979L122.645 123.011L120.92 123.282L120.787 124.998L122.788 124.979ZM121.821 137.462L119.82 137.482L119.664 139.487L121.679 139.454L121.821 137.462ZM129.547 134.162L131.254 135.06L131.263 135.045L131.272 135.029L129.547 134.162ZM130.477 127.469L132.418 126.794L132.414 126.781L130.477 127.469ZM124.239 124.823L124.161 126.813L124.204 126.811L124.247 126.807L124.239 124.823ZM112.579 162.025L110.578 162.035L110.429 163.841L112.22 164.008L112.579 162.025ZM113.584 149.821H111.584L111.583 149.831L113.584 149.821ZM116.344 118.628L115.832 116.753L114.476 117.223L114.345 118.615L116.344 118.628ZM126.245 117.974L125.982 119.964L126.005 119.965L126.027 119.966L126.245 117.974ZM129.299 118.067L129.58 116.078L129.565 116.077L129.55 116.077L129.299 118.067ZM138.249 131.143H140.249L140.25 131.128L140.251 131.113L138.249 131.143ZM130.609 140.606L129.992 138.771L124.631 140.945L129.878 142.518L130.609 140.606ZM136.895 150.195H138.895L138.896 150.182L138.897 150.17L136.895 150.195ZM129.601 160.343L129.028 158.49L129.024 158.492L129.601 160.343ZM115.156 162.211L114.882 164.201L114.884 164.201L115.156 162.211ZM121.427 143.751L121.602 141.758H119.612L119.428 143.74L121.427 143.751ZM120.338 155.487L118.339 155.476L118.169 157.306L119.983 157.471L120.338 155.487ZM129.055 152.654L130.729 153.605L130.743 153.583L130.757 153.56L129.055 152.654ZM129.495 146.552L131.318 145.564L131.302 145.531L131.285 145.5L129.495 146.552ZM120.787 124.998L119.82 137.482L123.823 137.442L124.79 124.959L120.787 124.998ZM121.679 139.454C125.815 139.388 129.387 138.202 131.254 135.06L127.841 133.264C127.167 134.398 125.588 135.412 121.963 135.47L121.679 139.454ZM131.272 135.029C132.117 133.554 132.64 132.035 132.775 130.489H128.775C128.7 131.35 128.404 132.28 127.823 133.295L131.272 135.029ZM132.775 130.489C132.883 129.255 132.753 128.02 132.418 126.794L128.536 128.144C128.769 128.993 128.838 129.771 128.775 130.489H132.775ZM132.414 126.781C132.027 125.409 131.18 124.351 129.94 123.673C128.75 123.022 127.29 122.768 125.701 122.768L125.352 126.753C126.554 126.753 127.315 126.951 127.775 127.202C128.186 127.427 128.417 127.723 128.54 128.157L132.414 126.781ZM125.701 122.768C125.235 122.768 124.745 122.793 124.232 122.839L124.247 126.807C124.658 126.77 125.025 126.753 125.352 126.753L125.701 122.768ZM124.318 122.833C123.792 122.858 123.232 122.919 122.645 123.011L122.932 126.946C123.401 126.872 123.809 126.83 124.161 126.813L124.318 122.833ZM114.579 162.014C114.907 158.03 115.242 153.962 115.585 149.811L111.583 149.831C111.241 153.982 110.905 158.05 110.578 162.035L114.579 162.014ZM115.584 149.821C115.584 149.813 115.585 149.805 115.586 149.797C115.587 149.789 115.587 149.78 115.588 149.772C115.589 149.764 115.589 149.756 115.59 149.748C115.591 149.74 115.592 149.732 115.592 149.723C115.593 149.715 115.594 149.707 115.594 149.699C115.595 149.691 115.596 149.683 115.597 149.674C115.597 149.666 115.598 149.658 115.599 149.65C115.599 149.642 115.6 149.634 115.601 149.626C115.602 149.617 115.602 149.609 115.603 149.601C115.604 149.593 115.604 149.585 115.605 149.577C115.606 149.568 115.607 149.56 115.607 149.552C115.608 149.544 115.609 149.536 115.609 149.528C115.61 149.519 115.611 149.511 115.612 149.503C115.612 149.495 115.613 149.487 115.614 149.479C115.614 149.47 115.615 149.462 115.616 149.454C115.617 149.446 115.617 149.438 115.618 149.43C115.619 149.422 115.619 149.413 115.62 149.405C115.621 149.397 115.622 149.389 115.622 149.381C115.623 149.373 115.624 149.364 115.624 149.356C115.625 149.348 115.626 149.34 115.627 149.332C115.627 149.324 115.628 149.315 115.629 149.307C115.629 149.299 115.63 149.291 115.631 149.283C115.632 149.274 115.632 149.266 115.633 149.258C115.634 149.25 115.634 149.242 115.635 149.234C115.636 149.225 115.637 149.217 115.637 149.209C115.638 149.201 115.639 149.193 115.639 149.185C115.64 149.176 115.641 149.168 115.642 149.16C115.642 149.152 115.643 149.144 115.644 149.136C115.644 149.127 115.645 149.119 115.646 149.111C115.647 149.103 115.647 149.095 115.648 149.086C115.649 149.078 115.649 149.07 115.65 149.062C115.651 149.054 115.652 149.046 115.652 149.037C115.653 149.029 115.654 149.021 115.654 149.013C115.655 149.005 115.656 148.996 115.657 148.988C115.657 148.98 115.658 148.972 115.659 148.964C115.659 148.956 115.66 148.947 115.661 148.939C115.662 148.931 115.662 148.923 115.663 148.915C115.664 148.906 115.664 148.898 115.665 148.89C115.666 148.882 115.667 148.874 115.667 148.866C115.668 148.857 115.669 148.849 115.669 148.841C115.67 148.833 115.671 148.825 115.672 148.816C115.672 148.808 115.673 148.8 115.674 148.792C115.674 148.784 115.675 148.775 115.676 148.767C115.677 148.759 115.677 148.751 115.678 148.743C115.679 148.734 115.679 148.726 115.68 148.718C115.681 148.71 115.682 148.702 115.682 148.694C115.683 148.685 115.684 148.677 115.684 148.669C115.685 148.661 115.686 148.653 115.687 148.644C115.687 148.636 115.688 148.628 115.689 148.62C115.69 148.612 115.69 148.603 115.691 148.595C115.692 148.587 115.692 148.579 115.693 148.571C115.694 148.562 115.695 148.554 115.695 148.546C115.696 148.538 115.697 148.53 115.697 148.521C115.698 148.513 115.699 148.505 115.7 148.497C115.7 148.489 115.701 148.48 115.702 148.472C115.702 148.464 115.703 148.456 115.704 148.448C115.705 148.439 115.705 148.431 115.706 148.423C115.707 148.415 115.707 148.406 115.708 148.398C115.709 148.39 115.71 148.382 115.71 148.374C115.711 148.365 115.712 148.357 115.712 148.349C115.713 148.341 115.714 148.333 115.715 148.324C115.715 148.316 115.716 148.308 115.717 148.3C115.718 148.292 115.718 148.283 115.719 148.275C115.72 148.267 115.72 148.259 115.721 148.25C115.722 148.242 115.723 148.234 115.723 148.226C115.724 148.218 115.725 148.209 115.725 148.201C115.726 148.193 115.727 148.185 115.728 148.177C115.728 148.168 115.729 148.16 115.73 148.152C115.73 148.144 115.731 148.135 115.732 148.127C115.733 148.119 115.733 148.111 115.734 148.103C115.735 148.094 115.735 148.086 115.736 148.078C115.737 148.07 115.738 148.061 115.738 148.053C115.739 148.045 115.74 148.037 115.741 148.029C115.741 148.02 115.742 148.012 115.743 148.004C115.743 147.996 115.744 147.987 115.745 147.979C115.746 147.971 115.746 147.963 115.747 147.955C115.748 147.946 115.748 147.938 115.749 147.93C115.75 147.922 115.751 147.913 115.751 147.905C115.752 147.897 115.753 147.889 115.753 147.881C115.754 147.872 115.755 147.864 115.756 147.856C115.756 147.848 115.757 147.839 115.758 147.831C115.759 147.823 115.759 147.815 115.76 147.806C115.761 147.798 115.761 147.79 115.762 147.782C115.763 147.774 115.764 147.765 115.764 147.757C115.765 147.749 115.766 147.741 115.766 147.732C115.767 147.724 115.768 147.716 115.769 147.708C115.769 147.699 115.77 147.691 115.771 147.683C115.771 147.675 115.772 147.666 115.773 147.658C115.774 147.65 115.774 147.642 115.775 147.634C115.776 147.625 115.777 147.617 115.777 147.609C115.778 147.601 115.779 147.592 115.779 147.584C115.78 147.576 115.781 147.568 115.782 147.559C115.782 147.551 115.783 147.543 115.784 147.535C115.784 147.526 115.785 147.518 115.786 147.51C115.787 147.502 115.787 147.493 115.788 147.485C115.789 147.477 115.789 147.469 115.79 147.46C115.791 147.452 115.792 147.444 115.792 147.436C115.793 147.427 115.794 147.419 115.795 147.411C115.795 147.403 115.796 147.394 115.797 147.386C115.797 147.378 115.798 147.37 115.799 147.361C115.8 147.353 115.8 147.345 115.801 147.337C115.802 147.328 115.802 147.32 115.803 147.312C115.804 147.304 115.805 147.295 115.805 147.287C115.806 147.279 115.807 147.271 115.808 147.262C115.808 147.254 115.809 147.246 115.81 147.238C115.81 147.229 115.811 147.221 115.812 147.213C115.813 147.205 115.813 147.196 115.814 147.188C115.815 147.18 115.815 147.172 115.816 147.163C115.817 147.155 115.818 147.147 115.818 147.139C115.819 147.13 115.82 147.122 115.821 147.114C115.821 147.106 115.822 147.097 115.823 147.089C115.823 147.081 115.824 147.072 115.825 147.064C115.826 147.056 115.826 147.048 115.827 147.039C115.828 147.031 115.828 147.023 115.829 147.015C115.83 147.006 115.831 146.998 115.831 146.99C115.832 146.982 115.833 146.973 115.834 146.965C115.834 146.957 115.835 146.948 115.836 146.94C115.836 146.932 115.837 146.924 115.838 146.915C115.839 146.907 115.839 146.899 115.84 146.891C115.841 146.882 115.842 146.874 115.842 146.866C115.843 146.858 115.844 146.849 115.844 146.841C115.845 146.833 115.846 146.824 115.847 146.816C115.847 146.808 115.848 146.8 115.849 146.791C115.849 146.783 115.85 146.775 115.851 146.767C115.852 146.758 115.852 146.75 115.853 146.742C115.854 146.733 115.855 146.725 115.855 146.717C115.856 146.709 115.857 146.7 115.857 146.692C115.858 146.684 115.859 146.675 115.86 146.667C115.86 146.659 115.861 146.651 115.862 146.642C115.863 146.634 115.863 146.626 115.864 146.618C115.865 146.609 115.865 146.601 115.866 146.593C115.867 146.584 115.868 146.576 115.868 146.568C115.869 146.56 115.87 146.551 115.87 146.543C115.871 146.535 115.872 146.526 115.873 146.518C115.873 146.51 115.874 146.502 115.875 146.493C115.876 146.485 115.876 146.477 115.877 146.468C115.878 146.46 115.878 146.452 115.879 146.444C115.88 146.435 115.881 146.427 115.881 146.419C115.882 146.41 115.883 146.402 115.884 146.394C115.884 146.385 115.885 146.377 115.886 146.369C115.886 146.361 115.887 146.352 115.888 146.344C115.889 146.336 115.889 146.327 115.89 146.319C115.891 146.311 115.892 146.303 115.892 146.294C115.893 146.286 115.894 146.278 115.894 146.269C115.895 146.261 115.896 146.253 115.897 146.244C115.897 146.236 115.898 146.228 115.899 146.22C115.9 146.211 115.9 146.203 115.901 146.195C115.902 146.186 115.902 146.178 115.903 146.17C115.904 146.162 115.905 146.153 115.905 146.145C115.906 146.137 115.907 146.128 115.907 146.12C115.908 146.112 115.909 146.103 115.91 146.095C115.91 146.087 115.911 146.078 115.912 146.07C115.913 146.062 115.913 146.054 115.914 146.045C115.915 146.037 115.915 146.029 115.916 146.02C115.917 146.012 115.918 146.004 115.918 145.995C115.919 145.987 115.92 145.979 115.921 145.971C115.921 145.962 115.922 145.954 115.923 145.946C115.923 145.937 115.924 145.929 115.925 145.921C115.926 145.912 115.926 145.904 115.927 145.896C115.928 145.887 115.929 145.879 115.929 145.871C115.93 145.862 115.931 145.854 115.931 145.846C115.932 145.838 115.933 145.829 115.934 145.821C115.934 145.813 115.935 145.804 115.936 145.796C115.937 145.788 115.937 145.779 115.938 145.771C115.939 145.763 115.939 145.754 115.94 145.746C115.941 145.738 115.942 145.729 115.942 145.721C115.943 145.713 115.944 145.704 115.945 145.696C115.945 145.688 115.946 145.68 115.947 145.671C115.947 145.663 115.948 145.655 115.949 145.646C115.95 145.638 115.95 145.63 115.951 145.621C115.952 145.613 115.953 145.605 115.953 145.596C115.954 145.588 115.955 145.58 115.955 145.571C115.956 145.563 115.957 145.555 115.958 145.546C115.958 145.538 115.959 145.53 115.96 145.521C115.961 145.513 115.961 145.505 115.962 145.496C115.963 145.488 115.964 145.48 115.964 145.471C115.965 145.463 115.966 145.455 115.966 145.446C115.967 145.438 115.968 145.43 115.969 145.421C115.969 145.413 115.97 145.405 115.971 145.396C115.972 145.388 115.972 145.38 115.973 145.371C115.974 145.363 115.974 145.355 115.975 145.346C115.976 145.338 115.977 145.33 115.977 145.321C115.978 145.313 115.979 145.305 115.98 145.296C115.98 145.288 115.981 145.28 115.982 145.271C115.982 145.263 115.983 145.255 115.984 145.246C115.985 145.238 115.985 145.23 115.986 145.221C115.987 145.213 115.988 145.205 115.988 145.196C115.989 145.188 115.99 145.18 115.99 145.171C115.991 145.163 115.992 145.155 115.993 145.146C115.993 145.138 115.994 145.13 115.995 145.121C115.996 145.113 115.996 145.105 115.997 145.096C115.998 145.088 115.999 145.08 115.999 145.071C116 145.063 116.001 145.055 116.001 145.046C116.002 145.038 116.003 145.029 116.004 145.021C116.004 145.013 116.005 145.004 116.006 144.996C116.007 144.988 116.007 144.979 116.008 144.971C116.009 144.963 116.009 144.954 116.01 144.946C116.011 144.938 116.012 144.929 116.012 144.921C116.013 144.913 116.014 144.904 116.015 144.896C116.015 144.888 116.016 144.879 116.017 144.871C116.018 144.862 116.018 144.854 116.019 144.846C116.02 144.837 116.02 144.829 116.021 144.821C116.022 144.812 116.023 144.804 116.023 144.796C116.024 144.787 116.025 144.779 116.026 144.771C116.026 144.762 116.027 144.754 116.028 144.746C116.028 144.737 116.029 144.729 116.03 144.72C116.031 144.712 116.031 144.704 116.032 144.695C116.033 144.687 116.034 144.679 116.034 144.67C116.035 144.662 116.036 144.654 116.037 144.645C116.037 144.637 116.038 144.628 116.039 144.62C116.039 144.612 116.04 144.603 116.041 144.595C116.042 144.587 116.042 144.578 116.043 144.57C116.044 144.562 116.045 144.553 116.045 144.545C116.046 144.536 116.047 144.528 116.047 144.52C116.048 144.511 116.049 144.503 116.05 144.495C116.05 144.486 116.051 144.478 116.052 144.469C116.053 144.461 116.053 144.453 116.054 144.444C116.055 144.436 116.056 144.428 116.056 144.419C116.057 144.411 116.058 144.403 116.058 144.394C116.059 144.386 116.06 144.377 116.061 144.369C116.061 144.361 116.062 144.352 116.063 144.344C116.064 144.336 116.064 144.327 116.065 144.319C116.066 144.31 116.067 144.302 116.067 144.294C116.068 144.285 116.069 144.277 116.069 144.269C116.07 144.26 116.071 144.252 116.072 144.243C116.072 144.235 116.073 144.227 116.074 144.218C116.075 144.21 116.075 144.201 116.076 144.193C116.077 144.185 116.078 144.176 116.078 144.168C116.079 144.16 116.08 144.151 116.08 144.143C116.081 144.134 116.082 144.126 116.083 144.118C116.083 144.109 116.084 144.101 116.085 144.092C116.086 144.084 116.086 144.076 116.087 144.067C116.088 144.059 116.089 144.051 116.089 144.042C116.09 144.034 116.091 144.025 116.091 144.017C116.092 144.009 116.093 144 116.094 143.992C116.094 143.983 116.095 143.975 116.096 143.967C116.097 143.958 116.097 143.95 116.098 143.941C116.099 143.933 116.1 143.925 116.1 143.916C116.101 143.908 116.102 143.9 116.102 143.891C116.103 143.883 116.104 143.874 116.105 143.866C116.105 143.858 116.106 143.849 116.107 143.841C116.108 143.832 116.108 143.824 116.109 143.816C116.11 143.807 116.111 143.799 116.111 143.79C116.112 143.782 116.113 143.774 116.114 143.765C116.114 143.757 116.115 143.748 116.116 143.74C116.116 143.732 116.117 143.723 116.118 143.715C116.119 143.706 116.119 143.698 116.12 143.69C116.121 143.681 116.122 143.673 116.122 143.664C116.123 143.656 116.124 143.648 116.125 143.639C116.125 143.631 116.126 143.622 116.127 143.614C116.127 143.606 116.128 143.597 116.129 143.589C116.13 143.58 116.13 143.572 116.131 143.564C116.132 143.555 116.133 143.547 116.133 143.538C116.134 143.53 116.135 143.521 116.136 143.513C116.136 143.505 116.137 143.496 116.138 143.488C116.139 143.479 116.139 143.471 116.14 143.463C116.141 143.454 116.141 143.446 116.142 143.437C116.143 143.429 116.144 143.421 116.144 143.412C116.145 143.404 116.146 143.395 116.147 143.387C116.147 143.378 116.148 143.37 116.149 143.362C116.15 143.353 116.15 143.345 116.151 143.336C116.152 143.328 116.152 143.32 116.153 143.311C116.154 143.303 116.155 143.294 116.155 143.286C116.156 143.278 116.157 143.269 116.158 143.261C116.158 143.252 116.159 143.244 116.16 143.235C116.161 143.227 116.161 143.219 116.162 143.21C116.163 143.202 116.164 143.193 116.164 143.185C116.165 143.176 116.166 143.168 116.166 143.16C116.167 143.151 116.168 143.143 116.169 143.134C116.169 143.126 116.17 143.117 116.171 143.109C116.172 143.101 116.172 143.092 116.173 143.084C116.174 143.075 116.175 143.067 116.175 143.059C116.176 143.05 116.177 143.042 116.178 143.033C116.178 143.025 116.179 143.016 116.18 143.008C116.18 142.999 116.181 142.991 116.182 142.983C116.183 142.974 116.183 142.966 116.184 142.957C116.185 142.949 116.186 142.94 116.186 142.932C116.187 142.924 116.188 142.915 116.189 142.907C116.189 142.898 116.19 142.89 116.191 142.881C116.192 142.873 116.192 142.865 116.193 142.856C116.194 142.848 116.195 142.839 116.195 142.831C116.196 142.822 116.197 142.814 116.197 142.806C116.198 142.797 116.199 142.789 116.2 142.78C116.2 142.772 116.201 142.763 116.202 142.755C116.203 142.746 116.203 142.738 116.204 142.73C116.205 142.721 116.206 142.713 116.206 142.704C116.207 142.696 116.208 142.687 116.209 142.679C116.209 142.67 116.21 142.662 116.211 142.654C116.211 142.645 116.212 142.637 116.213 142.628C116.214 142.62 116.214 142.611 116.215 142.603C116.216 142.594 116.217 142.586 116.217 142.578C116.218 142.569 116.219 142.561 116.22 142.552C116.22 142.544 116.221 142.535 116.222 142.527C116.223 142.518 116.223 142.51 116.224 142.502C116.225 142.493 116.226 142.485 116.226 142.476C116.227 142.468 116.228 142.459 116.228 142.451C116.229 142.442 116.23 142.434 116.231 142.425C116.231 142.417 116.232 142.409 116.233 142.4C116.234 142.392 116.234 142.383 116.235 142.375C116.236 142.366 116.237 142.358 116.237 142.349C116.238 142.341 116.239 142.332 116.24 142.324C116.24 142.316 116.241 142.307 116.242 142.299C116.243 142.29 116.243 142.282 116.244 142.273C116.245 142.265 116.246 142.256 116.246 142.248C116.247 142.239 116.248 142.231 116.248 142.222C116.249 142.214 116.25 142.206 116.251 142.197C116.251 142.189 116.252 142.18 116.253 142.172C116.254 142.163 116.254 142.155 116.255 142.146C116.256 142.138 116.257 142.129 116.257 142.121C116.258 142.112 116.259 142.104 116.26 142.096C116.26 142.087 116.261 142.079 116.262 142.07C116.263 142.062 116.263 142.053 116.264 142.045C116.265 142.036 116.266 142.028 116.266 142.019C116.267 142.011 116.268 142.002 116.268 141.994C116.269 141.985 116.27 141.977 116.271 141.968C116.271 141.96 116.272 141.952 116.273 141.943C116.274 141.935 116.274 141.926 116.275 141.918C116.276 141.909 116.277 141.901 116.277 141.892C116.278 141.884 116.279 141.875 116.28 141.867C116.28 141.858 116.281 141.85 116.282 141.841C116.283 141.833 116.283 141.824 116.284 141.816C116.285 141.807 116.286 141.799 116.286 141.791C116.287 141.782 116.288 141.774 116.288 141.765C116.289 141.757 116.29 141.748 116.291 141.74C116.291 141.731 116.292 141.723 116.293 141.714C116.294 141.706 116.294 141.697 116.295 141.689C116.296 141.68 116.297 141.672 116.297 141.663C116.298 141.655 116.299 141.646 116.3 141.638C116.3 141.629 116.301 141.621 116.302 141.612C116.303 141.604 116.303 141.595 116.304 141.587C116.305 141.578 116.306 141.57 116.306 141.561C116.307 141.553 116.308 141.544 116.309 141.536C116.309 141.527 116.31 141.519 116.311 141.511C116.312 141.502 116.312 141.494 116.313 141.485C116.314 141.477 116.314 141.468 116.315 141.46C116.316 141.451 116.317 141.443 116.317 141.434C116.318 141.426 116.319 141.417 116.32 141.409C116.32 141.4 116.321 141.392 116.322 141.383C116.323 141.375 116.323 141.366 116.324 141.358C116.325 141.349 116.326 141.341 116.326 141.332C116.327 141.324 116.328 141.315 116.329 141.307C116.329 141.298 116.33 141.29 116.331 141.281C116.332 141.273 116.332 141.264 116.333 141.256C116.334 141.247 116.335 141.239 116.335 141.23C116.336 141.222 116.337 141.213 116.338 141.205C116.338 141.196 116.339 141.188 116.34 141.179C116.341 141.171 116.341 141.162 116.342 141.154C116.343 141.145 116.343 141.137 116.344 141.128C116.345 141.12 116.346 141.111 116.346 141.103C116.347 141.094 116.348 141.086 116.349 141.077C116.349 141.069 116.35 141.06 116.351 141.052C116.352 141.043 116.352 141.035 116.353 141.026C116.354 141.018 116.355 141.009 116.355 141C116.356 140.992 116.357 140.983 116.358 140.975C116.358 140.966 116.359 140.958 116.36 140.949C116.361 140.941 116.361 140.932 116.362 140.924C116.363 140.915 116.364 140.907 116.364 140.898C116.365 140.89 116.366 140.881 116.367 140.873C116.367 140.864 116.368 140.856 116.369 140.847C116.37 140.839 116.37 140.83 116.371 140.822C116.372 140.813 116.373 140.805 116.373 140.796C116.374 140.788 116.375 140.779 116.376 140.771C116.376 140.762 116.377 140.754 116.378 140.745C116.378 140.736 116.379 140.728 116.38 140.719C116.381 140.711 116.381 140.702 116.382 140.694C116.383 140.685 116.384 140.677 116.384 140.668C116.385 140.66 116.386 140.651 116.387 140.643C116.387 140.634 116.388 140.626 116.389 140.617C116.39 140.609 116.39 140.6 116.391 140.592C116.392 140.583 116.393 140.575 116.393 140.566C116.394 140.557 116.395 140.549 116.396 140.54C116.396 140.532 116.397 140.523 116.398 140.515C116.399 140.506 116.399 140.498 116.4 140.489C116.401 140.481 116.402 140.472 116.402 140.464C116.403 140.455 116.404 140.447 116.405 140.438C116.405 140.429 116.406 140.421 116.407 140.412C116.408 140.404 116.408 140.395 116.409 140.387C116.41 140.378 116.411 140.37 116.411 140.361C116.412 140.353 116.413 140.344 116.414 140.336C116.414 140.327 116.415 140.319 116.416 140.31C116.417 140.301 116.417 140.293 116.418 140.284C116.419 140.276 116.42 140.267 116.42 140.259C116.421 140.25 116.422 140.242 116.423 140.233C116.423 140.225 116.424 140.216 116.425 140.207C116.426 140.199 116.426 140.19 116.427 140.182C116.428 140.173 116.429 140.165 116.429 140.156C116.43 140.148 116.431 140.139 116.431 140.131C116.432 140.122 116.433 140.113 116.434 140.105C116.434 140.096 116.435 140.088 116.436 140.079C116.437 140.071 116.437 140.062 116.438 140.054C116.439 140.045 116.44 140.037 116.44 140.028C116.441 140.019 116.442 140.011 116.443 140.002C116.443 139.994 116.444 139.985 116.445 139.977C116.446 139.968 116.446 139.96 116.447 139.951C116.448 139.942 116.449 139.934 116.449 139.925C116.45 139.917 116.451 139.908 116.452 139.9C116.452 139.891 116.453 139.883 116.454 139.874C116.455 139.865 116.455 139.857 116.456 139.848C116.457 139.84 116.458 139.831 116.458 139.823C116.459 139.814 116.46 139.806 116.461 139.797C116.461 139.788 116.462 139.78 116.463 139.771C116.464 139.763 116.464 139.754 116.465 139.746C116.466 139.737 116.467 139.729 116.467 139.72C116.468 139.711 116.469 139.703 116.47 139.694C116.47 139.686 116.471 139.677 116.472 139.669C116.473 139.66 116.473 139.651 116.474 139.643C116.475 139.634 116.476 139.626 116.476 139.617C116.477 139.609 116.478 139.6 116.479 139.592C116.479 139.583 116.48 139.574 116.481 139.566C116.482 139.557 116.482 139.549 116.483 139.54C116.484 139.532 116.485 139.523 116.485 139.514C116.486 139.506 116.487 139.497 116.488 139.489C116.488 139.48 116.489 139.472 116.49 139.463C116.491 139.454 116.491 139.446 116.492 139.437C116.493 139.429 116.494 139.42 116.494 139.412C116.495 139.403 116.496 139.394 116.497 139.386C116.497 139.377 116.498 139.369 116.499 139.36C116.5 139.351 116.5 139.343 116.501 139.334C116.502 139.326 116.503 139.317 116.503 139.309C116.504 139.3 116.505 139.291 116.506 139.283C116.506 139.274 116.507 139.266 116.508 139.257C116.509 139.249 116.509 139.24 116.51 139.231C116.511 139.223 116.512 139.214 116.512 139.206C116.513 139.197 116.514 139.188 116.515 139.18C116.515 139.171 116.516 139.163 116.517 139.154C116.518 139.146 116.518 139.137 116.519 139.128C116.52 139.12 116.521 139.111 116.521 139.103C116.522 139.094 116.523 139.085 116.524 139.077C116.524 139.068 116.525 139.06 116.526 139.051C116.527 139.042 116.527 139.034 116.528 139.025C116.529 139.017 116.53 139.008 116.53 139C116.531 138.991 116.532 138.982 116.533 138.974C116.533 138.965 116.534 138.957 116.535 138.948C116.536 138.939 116.536 138.931 116.537 138.922C116.538 138.914 116.539 138.905 116.539 138.896C116.54 138.888 116.541 138.879 116.542 138.871C116.542 138.862 116.543 138.853 116.544 138.845C116.545 138.836 116.545 138.828 116.546 138.819C116.547 138.81 116.548 138.802 116.548 138.793C116.549 138.785 116.55 138.776 116.551 138.767C116.552 138.759 116.552 138.75 116.553 138.742C116.554 138.733 116.555 138.724 116.555 138.716C116.556 138.707 116.557 138.699 116.558 138.69C116.558 138.681 116.559 138.673 116.56 138.664C116.561 138.656 116.561 138.647 116.562 138.638C116.563 138.63 116.564 138.621 116.564 138.613C116.565 138.604 116.566 138.595 116.567 138.587C116.567 138.578 116.568 138.57 116.569 138.561C116.57 138.552 116.57 138.544 116.571 138.535C116.572 138.527 116.573 138.518 116.573 138.509C116.574 138.501 116.575 138.492 116.576 138.483C116.576 138.475 116.577 138.466 116.578 138.458C116.579 138.449 116.579 138.44 116.58 138.432C116.581 138.423 116.582 138.415 116.582 138.406C116.583 138.397 116.584 138.389 116.585 138.38C116.585 138.371 116.586 138.363 116.587 138.354C116.588 138.346 116.588 138.337 116.589 138.328C116.59 138.32 116.591 138.311 116.591 138.303C116.592 138.294 116.593 138.285 116.594 138.277C116.594 138.268 116.595 138.259 116.596 138.251C116.597 138.242 116.597 138.234 116.598 138.225C116.599 138.216 116.6 138.208 116.6 138.199C116.601 138.19 116.602 138.182 116.603 138.173C116.603 138.165 116.604 138.156 116.605 138.147C116.606 138.139 116.607 138.13 116.607 138.121C116.608 138.113 116.609 138.104 116.61 138.096C116.61 138.087 116.611 138.078 116.612 138.07C116.613 138.061 116.613 138.052 116.614 138.044C116.615 138.035 116.616 138.027 116.616 138.018C116.617 138.009 116.618 138.001 116.619 137.992C116.619 137.983 116.62 137.975 116.621 137.966C116.622 137.957 116.622 137.949 116.623 137.94C116.624 137.932 116.625 137.923 116.625 137.914C116.626 137.906 116.627 137.897 116.628 137.888C116.628 137.88 116.629 137.871 116.63 137.863C116.631 137.854 116.631 137.845 116.632 137.837C116.633 137.828 116.634 137.819 116.634 137.811C116.635 137.802 116.636 137.793 116.637 137.785C116.637 137.776 116.638 137.767 116.639 137.759C116.64 137.75 116.641 137.742 116.641 137.733C116.642 137.724 116.643 137.716 116.644 137.707C116.644 137.698 116.645 137.69 116.646 137.681C116.647 137.672 116.647 137.664 116.648 137.655C116.649 137.646 116.65 137.638 116.65 137.629C116.651 137.621 116.652 137.612 116.653 137.603C116.653 137.595 116.654 137.586 116.655 137.577C116.656 137.569 116.656 137.56 116.657 137.551C116.658 137.543 116.659 137.534 116.659 137.525C116.66 137.517 116.661 137.508 116.662 137.499C116.662 137.491 116.663 137.482 116.664 137.474C116.665 137.465 116.665 137.456 116.666 137.448C116.667 137.439 116.668 137.43 116.668 137.422C116.669 137.413 116.67 137.404 116.671 137.396C116.672 137.387 116.672 137.378 116.673 137.37C116.674 137.361 116.675 137.352 116.675 137.344C116.676 137.335 116.677 137.326 116.678 137.318C116.678 137.309 116.679 137.3 116.68 137.292C116.681 137.283 116.681 137.274 116.682 137.266C116.683 137.257 116.684 137.248 116.684 137.24C116.685 137.231 116.686 137.222 116.687 137.214C116.687 137.205 116.688 137.196 116.689 137.188C116.69 137.179 116.69 137.17 116.691 137.162C116.692 137.153 116.693 137.145 116.694 137.136C116.694 137.127 116.695 137.119 116.696 137.11C116.697 137.101 116.697 137.093 116.698 137.084C116.699 137.075 116.7 137.067 116.7 137.058C116.701 137.049 116.702 137.04 116.703 137.032C116.703 137.023 116.704 137.014 116.705 137.006C116.706 136.997 116.706 136.988 116.707 136.98C116.708 136.971 116.709 136.962 116.709 136.954C116.71 136.945 116.711 136.936 116.712 136.928C116.712 136.919 116.713 136.91 116.714 136.902H112.714C112.713 136.91 112.712 136.919 112.712 136.928C112.711 136.936 112.71 136.945 112.709 136.954C112.709 136.962 112.708 136.971 112.707 136.98C112.706 136.988 112.706 136.997 112.705 137.006C112.704 137.014 112.703 137.023 112.703 137.032C112.702 137.04 112.701 137.049 112.7 137.058C112.7 137.067 112.699 137.075 112.698 137.084C112.697 137.093 112.697 137.101 112.696 137.11C112.695 137.119 112.694 137.127 112.694 137.136C112.693 137.145 112.692 137.153 112.691 137.162C112.69 137.17 112.69 137.179 112.689 137.188C112.688 137.196 112.687 137.205 112.687 137.214C112.686 137.222 112.685 137.231 112.684 137.24C112.684 137.248 112.683 137.257 112.682 137.266C112.681 137.274 112.681 137.283 112.68 137.292C112.679 137.3 112.678 137.309 112.678 137.318C112.677 137.326 112.676 137.335 112.675 137.344C112.675 137.352 112.674 137.361 112.673 137.37C112.672 137.378 112.672 137.387 112.671 137.396C112.67 137.404 112.669 137.413 112.668 137.422C112.668 137.43 112.667 137.439 112.666 137.448C112.665 137.456 112.665 137.465 112.664 137.474C112.663 137.482 112.662 137.491 112.662 137.499C112.661 137.508 112.66 137.517 112.659 137.525C112.659 137.534 112.658 137.543 112.657 137.551C112.656 137.56 112.656 137.569 112.655 137.577C112.654 137.586 112.653 137.595 112.653 137.603C112.652 137.612 112.651 137.621 112.65 137.629C112.65 137.638 112.649 137.646 112.648 137.655C112.647 137.664 112.647 137.672 112.646 137.681C112.645 137.69 112.644 137.698 112.644 137.707C112.643 137.716 112.642 137.724 112.641 137.733C112.641 137.742 112.64 137.75 112.639 137.759C112.638 137.767 112.637 137.776 112.637 137.785C112.636 137.793 112.635 137.802 112.634 137.811C112.634 137.819 112.633 137.828 112.632 137.837C112.631 137.845 112.631 137.854 112.63 137.863C112.629 137.871 112.628 137.88 112.628 137.888C112.627 137.897 112.626 137.906 112.625 137.914C112.625 137.923 112.624 137.932 112.623 137.94C112.622 137.949 112.622 137.957 112.621 137.966C112.62 137.975 112.619 137.983 112.619 137.992C112.618 138.001 112.617 138.009 112.616 138.018C112.616 138.027 112.615 138.035 112.614 138.044C112.613 138.052 112.613 138.061 112.612 138.07C112.611 138.078 112.61 138.087 112.61 138.096C112.609 138.104 112.608 138.113 112.607 138.121C112.607 138.13 112.606 138.139 112.605 138.147C112.604 138.156 112.603 138.165 112.603 138.173C112.602 138.182 112.601 138.19 112.6 138.199C112.6 138.208 112.599 138.216 112.598 138.225C112.597 138.234 112.597 138.242 112.596 138.251C112.595 138.259 112.594 138.268 112.594 138.277C112.593 138.285 112.592 138.294 112.591 138.303C112.591 138.311 112.59 138.32 112.589 138.328C112.588 138.337 112.588 138.346 112.587 138.354C112.586 138.363 112.585 138.371 112.585 138.38C112.584 138.389 112.583 138.397 112.582 138.406C112.582 138.415 112.581 138.423 112.58 138.432C112.579 138.44 112.579 138.449 112.578 138.458C112.577 138.466 112.576 138.475 112.576 138.483C112.575 138.492 112.574 138.501 112.573 138.509C112.573 138.518 112.572 138.527 112.571 138.535C112.57 138.544 112.57 138.552 112.569 138.561C112.568 138.57 112.567 138.578 112.567 138.587C112.566 138.595 112.565 138.604 112.564 138.613C112.564 138.621 112.563 138.63 112.562 138.638C112.561 138.647 112.561 138.656 112.56 138.664C112.559 138.673 112.558 138.681 112.558 138.69C112.557 138.699 112.556 138.707 112.555 138.716C112.555 138.724 112.554 138.733 112.553 138.742C112.552 138.75 112.552 138.759 112.551 138.767C112.55 138.776 112.549 138.785 112.548 138.793C112.548 138.802 112.547 138.81 112.546 138.819C112.545 138.828 112.545 138.836 112.544 138.845C112.543 138.853 112.542 138.862 112.542 138.871C112.541 138.879 112.54 138.888 112.539 138.896C112.539 138.905 112.538 138.914 112.537 138.922C112.536 138.931 112.536 138.939 112.535 138.948C112.534 138.957 112.533 138.965 112.533 138.974C112.532 138.982 112.531 138.991 112.53 139C112.53 139.008 112.529 139.017 112.528 139.025C112.527 139.034 112.527 139.042 112.526 139.051C112.525 139.06 112.524 139.068 112.524 139.077C112.523 139.085 112.522 139.094 112.521 139.103C112.521 139.111 112.52 139.12 112.519 139.128C112.518 139.137 112.518 139.146 112.517 139.154C112.516 139.163 112.515 139.171 112.515 139.18C112.514 139.188 112.513 139.197 112.512 139.206C112.512 139.214 112.511 139.223 112.51 139.231C112.509 139.24 112.509 139.249 112.508 139.257C112.507 139.266 112.506 139.274 112.506 139.283C112.505 139.291 112.504 139.3 112.503 139.309C112.503 139.317 112.502 139.326 112.501 139.334C112.5 139.343 112.5 139.351 112.499 139.36C112.498 139.369 112.497 139.377 112.497 139.386C112.496 139.394 112.495 139.403 112.494 139.412C112.494 139.42 112.493 139.429 112.492 139.437C112.491 139.446 112.491 139.454 112.49 139.463C112.489 139.472 112.488 139.48 112.488 139.489C112.487 139.497 112.486 139.506 112.485 139.514C112.485 139.523 112.484 139.532 112.483 139.54C112.482 139.549 112.482 139.557 112.481 139.566C112.48 139.574 112.479 139.583 112.479 139.592C112.478 139.6 112.477 139.609 112.476 139.617C112.476 139.626 112.475 139.634 112.474 139.643C112.473 139.651 112.473 139.66 112.472 139.669C112.471 139.677 112.47 139.686 112.47 139.694C112.469 139.703 112.468 139.711 112.467 139.72C112.467 139.729 112.466 139.737 112.465 139.746C112.464 139.754 112.464 139.763 112.463 139.771C112.462 139.78 112.461 139.788 112.461 139.797C112.46 139.806 112.459 139.814 112.458 139.823C112.458 139.831 112.457 139.84 112.456 139.848C112.455 139.857 112.455 139.865 112.454 139.874C112.453 139.883 112.452 139.891 112.452 139.9C112.451 139.908 112.45 139.917 112.449 139.925C112.449 139.934 112.448 139.942 112.447 139.951C112.446 139.96 112.446 139.968 112.445 139.977C112.444 139.985 112.443 139.994 112.443 140.002C112.442 140.011 112.441 140.019 112.44 140.028C112.44 140.037 112.439 140.045 112.438 140.054C112.437 140.062 112.437 140.071 112.436 140.079C112.435 140.088 112.434 140.096 112.434 140.105C112.433 140.113 112.432 140.122 112.431 140.131C112.431 140.139 112.43 140.148 112.429 140.156C112.429 140.165 112.428 140.173 112.427 140.182C112.426 140.19 112.426 140.199 112.425 140.207C112.424 140.216 112.423 140.225 112.423 140.233C112.422 140.242 112.421 140.25 112.42 140.259C112.42 140.267 112.419 140.276 112.418 140.284C112.417 140.293 112.417 140.301 112.416 140.31C112.415 140.319 112.414 140.327 112.414 140.336C112.413 140.344 112.412 140.353 112.411 140.361C112.411 140.37 112.41 140.378 112.409 140.387C112.408 140.395 112.408 140.404 112.407 140.412C112.406 140.421 112.405 140.429 112.405 140.438C112.404 140.447 112.403 140.455 112.402 140.464C112.402 140.472 112.401 140.481 112.4 140.489C112.399 140.498 112.399 140.506 112.398 140.515C112.397 140.523 112.396 140.532 112.396 140.54C112.395 140.549 112.394 140.557 112.393 140.566C112.393 140.575 112.392 140.583 112.391 140.592C112.39 140.6 112.39 140.609 112.389 140.617C112.388 140.626 112.387 140.634 112.387 140.643C112.386 140.651 112.385 140.66 112.384 140.668C112.384 140.677 112.383 140.685 112.382 140.694C112.381 140.702 112.381 140.711 112.38 140.719C112.379 140.728 112.378 140.736 112.378 140.745C112.377 140.754 112.376 140.762 112.376 140.771C112.375 140.779 112.374 140.788 112.373 140.796C112.373 140.805 112.372 140.813 112.371 140.822C112.37 140.83 112.37 140.839 112.369 140.847C112.368 140.856 112.367 140.864 112.367 140.873C112.366 140.881 112.365 140.89 112.364 140.898C112.364 140.907 112.363 140.915 112.362 140.924C112.361 140.932 112.361 140.941 112.36 140.949C112.359 140.958 112.358 140.966 112.358 140.975C112.357 140.983 112.356 140.992 112.355 141C112.355 141.009 112.354 141.018 112.353 141.026C112.352 141.035 112.352 141.043 112.351 141.052C112.35 141.06 112.349 141.069 112.349 141.077C112.348 141.086 112.347 141.094 112.346 141.103C112.346 141.111 112.345 141.12 112.344 141.128C112.343 141.137 112.343 141.145 112.342 141.154C112.341 141.162 112.341 141.171 112.34 141.179C112.339 141.188 112.338 141.196 112.338 141.205C112.337 141.213 112.336 141.222 112.335 141.23C112.335 141.239 112.334 141.247 112.333 141.256C112.332 141.264 112.332 141.273 112.331 141.281C112.33 141.29 112.329 141.298 112.329 141.307C112.328 141.315 112.327 141.324 112.326 141.332C112.326 141.341 112.325 141.349 112.324 141.358C112.323 141.366 112.323 141.375 112.322 141.383C112.321 141.392 112.32 141.4 112.32 141.409C112.319 141.417 112.318 141.426 112.317 141.434C112.317 141.443 112.316 141.451 112.315 141.46C112.314 141.468 112.314 141.477 112.313 141.485C112.312 141.494 112.312 141.502 112.311 141.511C112.31 141.519 112.309 141.527 112.309 141.536C112.308 141.544 112.307 141.553 112.306 141.561C112.306 141.57 112.305 141.578 112.304 141.587C112.303 141.595 112.303 141.604 112.302 141.612C112.301 141.621 112.3 141.629 112.3 141.638C112.299 141.646 112.298 141.655 112.297 141.663C112.297 141.672 112.296 141.68 112.295 141.689C112.294 141.697 112.294 141.706 112.293 141.714C112.292 141.723 112.291 141.731 112.291 141.74C112.29 141.748 112.289 141.757 112.288 141.765C112.288 141.774 112.287 141.782 112.286 141.791C112.286 141.799 112.285 141.807 112.284 141.816C112.283 141.824 112.283 141.833 112.282 141.841C112.281 141.85 112.28 141.858 112.28 141.867C112.279 141.875 112.278 141.884 112.277 141.892C112.277 141.901 112.276 141.909 112.275 141.918C112.274 141.926 112.274 141.935 112.273 141.943C112.272 141.952 112.271 141.96 112.271 141.968C112.27 141.977 112.269 141.985 112.268 141.994C112.268 142.002 112.267 142.011 112.266 142.019C112.266 142.028 112.265 142.036 112.264 142.045C112.263 142.053 112.263 142.062 112.262 142.07C112.261 142.079 112.26 142.087 112.26 142.096C112.259 142.104 112.258 142.112 112.257 142.121C112.257 142.129 112.256 142.138 112.255 142.146C112.254 142.155 112.254 142.163 112.253 142.172C112.252 142.18 112.251 142.189 112.251 142.197C112.25 142.206 112.249 142.214 112.248 142.222C112.248 142.231 112.247 142.239 112.246 142.248C112.246 142.256 112.245 142.265 112.244 142.273C112.243 142.282 112.243 142.29 112.242 142.299C112.241 142.307 112.24 142.316 112.24 142.324C112.239 142.332 112.238 142.341 112.237 142.349C112.237 142.358 112.236 142.366 112.235 142.375C112.234 142.383 112.234 142.392 112.233 142.4C112.232 142.409 112.231 142.417 112.231 142.425C112.23 142.434 112.229 142.442 112.228 142.451C112.228 142.459 112.227 142.468 112.226 142.476C112.226 142.485 112.225 142.493 112.224 142.502C112.223 142.51 112.223 142.518 112.222 142.527C112.221 142.535 112.22 142.544 112.22 142.552C112.219 142.561 112.218 142.569 112.217 142.578C112.217 142.586 112.216 142.594 112.215 142.603C112.214 142.611 112.214 142.62 112.213 142.628C112.212 142.637 112.211 142.645 112.211 142.654C112.21 142.662 112.209 142.67 112.209 142.679C112.208 142.687 112.207 142.696 112.206 142.704C112.206 142.713 112.205 142.721 112.204 142.73C112.203 142.738 112.203 142.746 112.202 142.755C112.201 142.763 112.2 142.772 112.2 142.78C112.199 142.789 112.198 142.797 112.197 142.806C112.197 142.814 112.196 142.822 112.195 142.831C112.195 142.839 112.194 142.848 112.193 142.856C112.192 142.865 112.192 142.873 112.191 142.881C112.19 142.89 112.189 142.898 112.189 142.907C112.188 142.915 112.187 142.924 112.186 142.932C112.186 142.94 112.185 142.949 112.184 142.957C112.183 142.966 112.183 142.974 112.182 142.983C112.181 142.991 112.18 142.999 112.18 143.008C112.179 143.016 112.178 143.025 112.178 143.033C112.177 143.042 112.176 143.05 112.175 143.059C112.175 143.067 112.174 143.075 112.173 143.084C112.172 143.092 112.172 143.101 112.171 143.109C112.17 143.117 112.169 143.126 112.169 143.134C112.168 143.143 112.167 143.151 112.166 143.16C112.166 143.168 112.165 143.176 112.164 143.185C112.164 143.193 112.163 143.202 112.162 143.21C112.161 143.219 112.161 143.227 112.16 143.235C112.159 143.244 112.158 143.252 112.158 143.261C112.157 143.269 112.156 143.278 112.155 143.286C112.155 143.294 112.154 143.303 112.153 143.311C112.152 143.32 112.152 143.328 112.151 143.336C112.15 143.345 112.15 143.353 112.149 143.362C112.148 143.37 112.147 143.378 112.147 143.387C112.146 143.395 112.145 143.404 112.144 143.412C112.144 143.421 112.143 143.429 112.142 143.437C112.141 143.446 112.141 143.454 112.14 143.463C112.139 143.471 112.139 143.479 112.138 143.488C112.137 143.496 112.136 143.505 112.136 143.513C112.135 143.521 112.134 143.53 112.133 143.538C112.133 143.547 112.132 143.555 112.131 143.564C112.13 143.572 112.13 143.58 112.129 143.589C112.128 143.597 112.127 143.606 112.127 143.614C112.126 143.622 112.125 143.631 112.125 143.639C112.124 143.648 112.123 143.656 112.122 143.664C112.122 143.673 112.121 143.681 112.12 143.69C112.119 143.698 112.119 143.706 112.118 143.715C112.117 143.723 112.116 143.732 112.116 143.74C112.115 143.748 112.114 143.757 112.114 143.765C112.113 143.774 112.112 143.782 112.111 143.79C112.111 143.799 112.11 143.807 112.109 143.816C112.108 143.824 112.108 143.832 112.107 143.841C112.106 143.849 112.105 143.858 112.105 143.866C112.104 143.874 112.103 143.883 112.102 143.891C112.102 143.9 112.101 143.908 112.1 143.916C112.1 143.925 112.099 143.933 112.098 143.941C112.097 143.95 112.097 143.958 112.096 143.967C112.095 143.975 112.094 143.983 112.094 143.992C112.093 144 112.092 144.009 112.091 144.017C112.091 144.025 112.09 144.034 112.089 144.042C112.089 144.051 112.088 144.059 112.087 144.067C112.086 144.076 112.086 144.084 112.085 144.092C112.084 144.101 112.083 144.109 112.083 144.118C112.082 144.126 112.081 144.134 112.08 144.143C112.08 144.151 112.079 144.16 112.078 144.168C112.078 144.176 112.077 144.185 112.076 144.193C112.075 144.201 112.075 144.21 112.074 144.218C112.073 144.227 112.072 144.235 112.072 144.243C112.071 144.252 112.07 144.26 112.069 144.269C112.069 144.277 112.068 144.285 112.067 144.294C112.067 144.302 112.066 144.31 112.065 144.319C112.064 144.327 112.064 144.336 112.063 144.344C112.062 144.352 112.061 144.361 112.061 144.369C112.06 144.377 112.059 144.386 112.058 144.394C112.058 144.403 112.057 144.411 112.056 144.419C112.056 144.428 112.055 144.436 112.054 144.444C112.053 144.453 112.053 144.461 112.052 144.469C112.051 144.478 112.05 144.486 112.05 144.495C112.049 144.503 112.048 144.511 112.047 144.52C112.047 144.528 112.046 144.536 112.045 144.545C112.045 144.553 112.044 144.562 112.043 144.57C112.042 144.578 112.042 144.587 112.041 144.595C112.04 144.603 112.039 144.612 112.039 144.62C112.038 144.628 112.037 144.637 112.037 144.645C112.036 144.654 112.035 144.662 112.034 144.67C112.034 144.679 112.033 144.687 112.032 144.695C112.031 144.704 112.031 144.712 112.03 144.72C112.029 144.729 112.028 144.737 112.028 144.746C112.027 144.754 112.026 144.762 112.026 144.771C112.025 144.779 112.024 144.787 112.023 144.796C112.023 144.804 112.022 144.812 112.021 144.821C112.02 144.829 112.02 144.837 112.019 144.846C112.018 144.854 112.018 144.862 112.017 144.871C112.016 144.879 112.015 144.888 112.015 144.896C112.014 144.904 112.013 144.913 112.012 144.921C112.012 144.929 112.011 144.938 112.01 144.946C112.009 144.954 112.009 144.963 112.008 144.971C112.007 144.979 112.007 144.988 112.006 144.996C112.005 145.004 112.004 145.013 112.004 145.021C112.003 145.029 112.002 145.038 112.001 145.046C112.001 145.055 112 145.063 111.999 145.071C111.999 145.08 111.998 145.088 111.997 145.096C111.996 145.105 111.996 145.113 111.995 145.121C111.994 145.13 111.993 145.138 111.993 145.146C111.992 145.155 111.991 145.163 111.99 145.171C111.99 145.18 111.989 145.188 111.988 145.196C111.988 145.205 111.987 145.213 111.986 145.221C111.985 145.23 111.985 145.238 111.984 145.246C111.983 145.255 111.982 145.263 111.982 145.271C111.981 145.28 111.98 145.288 111.98 145.296C111.979 145.305 111.978 145.313 111.977 145.321C111.977 145.33 111.976 145.338 111.975 145.346C111.974 145.355 111.974 145.363 111.973 145.371C111.972 145.38 111.972 145.388 111.971 145.396C111.97 145.405 111.969 145.413 111.969 145.421C111.968 145.43 111.967 145.438 111.966 145.446C111.966 145.455 111.965 145.463 111.964 145.471C111.964 145.48 111.963 145.488 111.962 145.496C111.961 145.505 111.961 145.513 111.96 145.521C111.959 145.53 111.958 145.538 111.958 145.546C111.957 145.555 111.956 145.563 111.955 145.571C111.955 145.58 111.954 145.588 111.953 145.596C111.953 145.605 111.952 145.613 111.951 145.621C111.95 145.63 111.95 145.638 111.949 145.646C111.948 145.655 111.947 145.663 111.947 145.671C111.946 145.68 111.945 145.688 111.945 145.696C111.944 145.704 111.943 145.713 111.942 145.721C111.942 145.729 111.941 145.738 111.94 145.746C111.939 145.754 111.939 145.763 111.938 145.771C111.937 145.779 111.937 145.788 111.936 145.796C111.935 145.804 111.934 145.813 111.934 145.821C111.933 145.829 111.932 145.838 111.931 145.846C111.931 145.854 111.93 145.862 111.929 145.871C111.929 145.879 111.928 145.887 111.927 145.896C111.926 145.904 111.926 145.912 111.925 145.921C111.924 145.929 111.923 145.937 111.923 145.946C111.922 145.954 111.921 145.962 111.921 145.971C111.92 145.979 111.919 145.987 111.918 145.995C111.918 146.004 111.917 146.012 111.916 146.02C111.915 146.029 111.915 146.037 111.914 146.045C111.913 146.054 111.913 146.062 111.912 146.07C111.911 146.078 111.91 146.087 111.91 146.095C111.909 146.103 111.908 146.112 111.907 146.12C111.907 146.128 111.906 146.137 111.905 146.145C111.905 146.153 111.904 146.162 111.903 146.17C111.902 146.178 111.902 146.186 111.901 146.195C111.9 146.203 111.9 146.211 111.899 146.22C111.898 146.228 111.897 146.236 111.897 146.244C111.896 146.253 111.895 146.261 111.894 146.269C111.894 146.278 111.893 146.286 111.892 146.294C111.892 146.303 111.891 146.311 111.89 146.319C111.889 146.327 111.889 146.336 111.888 146.344C111.887 146.352 111.886 146.361 111.886 146.369C111.885 146.377 111.884 146.385 111.884 146.394C111.883 146.402 111.882 146.41 111.881 146.419C111.881 146.427 111.88 146.435 111.879 146.444C111.878 146.452 111.878 146.46 111.877 146.468C111.876 146.477 111.876 146.485 111.875 146.493C111.874 146.502 111.873 146.51 111.873 146.518C111.872 146.526 111.871 146.535 111.87 146.543C111.87 146.551 111.869 146.56 111.868 146.568C111.868 146.576 111.867 146.584 111.866 146.593C111.865 146.601 111.865 146.609 111.864 146.618C111.863 146.626 111.863 146.634 111.862 146.642C111.861 146.651 111.86 146.659 111.86 146.667C111.859 146.675 111.858 146.684 111.857 146.692C111.857 146.7 111.856 146.709 111.855 146.717C111.855 146.725 111.854 146.733 111.853 146.742C111.852 146.75 111.852 146.758 111.851 146.767C111.85 146.775 111.849 146.783 111.849 146.791C111.848 146.8 111.847 146.808 111.847 146.816C111.846 146.824 111.845 146.833 111.844 146.841C111.844 146.849 111.843 146.858 111.842 146.866C111.842 146.874 111.841 146.882 111.84 146.891C111.839 146.899 111.839 146.907 111.838 146.915C111.837 146.924 111.836 146.932 111.836 146.94C111.835 146.948 111.834 146.957 111.834 146.965C111.833 146.973 111.832 146.982 111.831 146.99C111.831 146.998 111.83 147.006 111.829 147.015C111.828 147.023 111.828 147.031 111.827 147.039C111.826 147.048 111.826 147.056 111.825 147.064C111.824 147.072 111.823 147.081 111.823 147.089C111.822 147.097 111.821 147.106 111.821 147.114C111.82 147.122 111.819 147.13 111.818 147.139C111.818 147.147 111.817 147.155 111.816 147.163C111.815 147.172 111.815 147.18 111.814 147.188C111.813 147.196 111.813 147.205 111.812 147.213C111.811 147.221 111.81 147.229 111.81 147.238C111.809 147.246 111.808 147.254 111.808 147.262C111.807 147.271 111.806 147.279 111.805 147.287C111.805 147.295 111.804 147.304 111.803 147.312C111.802 147.32 111.802 147.328 111.801 147.337C111.8 147.345 111.8 147.353 111.799 147.361C111.798 147.37 111.797 147.378 111.797 147.386C111.796 147.394 111.795 147.403 111.795 147.411C111.794 147.419 111.793 147.427 111.792 147.436C111.792 147.444 111.791 147.452 111.79 147.46C111.789 147.469 111.789 147.477 111.788 147.485C111.787 147.493 111.787 147.502 111.786 147.51C111.785 147.518 111.784 147.526 111.784 147.535C111.783 147.543 111.782 147.551 111.782 147.559C111.781 147.568 111.78 147.576 111.779 147.584C111.779 147.592 111.778 147.601 111.777 147.609C111.777 147.617 111.776 147.625 111.775 147.634C111.774 147.642 111.774 147.65 111.773 147.658C111.772 147.666 111.771 147.675 111.771 147.683C111.77 147.691 111.769 147.699 111.769 147.708C111.768 147.716 111.767 147.724 111.766 147.732C111.766 147.741 111.765 147.749 111.764 147.757C111.764 147.765 111.763 147.774 111.762 147.782C111.761 147.79 111.761 147.798 111.76 147.806C111.759 147.815 111.759 147.823 111.758 147.831C111.757 147.839 111.756 147.848 111.756 147.856C111.755 147.864 111.754 147.872 111.753 147.881C111.753 147.889 111.752 147.897 111.751 147.905C111.751 147.913 111.75 147.922 111.749 147.93C111.748 147.938 111.748 147.946 111.747 147.955C111.746 147.963 111.746 147.971 111.745 147.979C111.744 147.987 111.743 147.996 111.743 148.004C111.742 148.012 111.741 148.02 111.741 148.029C111.74 148.037 111.739 148.045 111.738 148.053C111.738 148.061 111.737 148.07 111.736 148.078C111.735 148.086 111.735 148.094 111.734 148.103C111.733 148.111 111.733 148.119 111.732 148.127C111.731 148.135 111.73 148.144 111.73 148.152C111.729 148.16 111.728 148.168 111.728 148.177C111.727 148.185 111.726 148.193 111.725 148.201C111.725 148.209 111.724 148.218 111.723 148.226C111.723 148.234 111.722 148.242 111.721 148.25C111.72 148.259 111.72 148.267 111.719 148.275C111.718 148.283 111.718 148.292 111.717 148.3C111.716 148.308 111.715 148.316 111.715 148.324C111.714 148.333 111.713 148.341 111.712 148.349C111.712 148.357 111.711 148.365 111.71 148.374C111.71 148.382 111.709 148.39 111.708 148.398C111.707 148.406 111.707 148.415 111.706 148.423C111.705 148.431 111.705 148.439 111.704 148.448C111.703 148.456 111.702 148.464 111.702 148.472C111.701 148.48 111.7 148.489 111.7 148.497C111.699 148.505 111.698 148.513 111.697 148.521C111.697 148.53 111.696 148.538 111.695 148.546C111.695 148.554 111.694 148.562 111.693 148.571C111.692 148.579 111.692 148.587 111.691 148.595C111.69 148.603 111.69 148.612 111.689 148.62C111.688 148.628 111.687 148.636 111.687 148.644C111.686 148.653 111.685 148.661 111.684 148.669C111.684 148.677 111.683 148.685 111.682 148.694C111.682 148.702 111.681 148.71 111.68 148.718C111.679 148.726 111.679 148.734 111.678 148.743C111.677 148.751 111.677 148.759 111.676 148.767C111.675 148.775 111.674 148.784 111.674 148.792C111.673 148.8 111.672 148.808 111.672 148.816C111.671 148.825 111.67 148.833 111.669 148.841C111.669 148.849 111.668 148.857 111.667 148.866C111.667 148.874 111.666 148.882 111.665 148.89C111.664 148.898 111.664 148.906 111.663 148.915C111.662 148.923 111.662 148.931 111.661 148.939C111.66 148.947 111.659 148.956 111.659 148.964C111.658 148.972 111.657 148.98 111.657 148.988C111.656 148.996 111.655 149.005 111.654 149.013C111.654 149.021 111.653 149.029 111.652 149.037C111.652 149.046 111.651 149.054 111.65 149.062C111.649 149.07 111.649 149.078 111.648 149.086C111.647 149.095 111.647 149.103 111.646 149.111C111.645 149.119 111.644 149.127 111.644 149.136C111.643 149.144 111.642 149.152 111.642 149.16C111.641 149.168 111.64 149.176 111.639 149.185C111.639 149.193 111.638 149.201 111.637 149.209C111.637 149.217 111.636 149.225 111.635 149.234C111.634 149.242 111.634 149.25 111.633 149.258C111.632 149.266 111.632 149.274 111.631 149.283C111.63 149.291 111.629 149.299 111.629 149.307C111.628 149.315 111.627 149.324 111.627 149.332C111.626 149.34 111.625 149.348 111.624 149.356C111.624 149.364 111.623 149.373 111.622 149.381C111.622 149.389 111.621 149.397 111.62 149.405C111.619 149.413 111.619 149.422 111.618 149.43C111.617 149.438 111.617 149.446 111.616 149.454C111.615 149.462 111.614 149.47 111.614 149.479C111.613 149.487 111.612 149.495 111.612 149.503C111.611 149.511 111.61 149.519 111.609 149.528C111.609 149.536 111.608 149.544 111.607 149.552C111.607 149.56 111.606 149.568 111.605 149.577C111.604 149.585 111.604 149.593 111.603 149.601C111.602 149.609 111.602 149.617 111.601 149.626C111.6 149.634 111.599 149.642 111.599 149.65C111.598 149.658 111.597 149.666 111.597 149.674C111.596 149.683 111.595 149.691 111.594 149.699C111.594 149.707 111.593 149.715 111.592 149.723C111.592 149.732 111.591 149.74 111.59 149.748C111.589 149.756 111.589 149.764 111.588 149.772C111.587 149.78 111.587 149.789 111.586 149.797C111.585 149.805 111.584 149.813 111.584 149.821H115.584ZM116.714 136.902L117.501 127.905H113.501L112.714 136.902H116.714ZM117.501 127.905C117.766 124.879 118.046 121.791 118.343 118.641L114.345 118.615C114.048 121.774 113.767 124.87 113.501 127.905H117.501ZM116.856 120.503C117.856 120.156 119.954 119.904 123.42 119.904L123.768 115.919C120.318 115.919 117.582 116.145 115.832 116.753L116.856 120.503ZM123.42 119.904C124.22 119.904 125.074 119.924 125.982 119.964L126.508 115.984C125.548 115.941 124.635 115.919 123.768 115.919L123.42 119.904ZM126.027 119.966C126.971 119.986 127.978 120.017 129.048 120.058L129.55 116.077C128.461 116.035 127.432 116.003 126.463 115.982L126.027 119.966ZM129.018 120.057C131.851 120.209 133.662 121.189 134.775 122.815C135.941 124.518 136.534 127.208 136.247 131.172L140.251 131.113C140.571 126.713 139.976 123.042 138.158 120.386C136.289 117.655 133.321 116.279 129.58 116.078L129.018 120.057ZM136.249 131.143L136.244 131.205H140.244L140.249 131.143H136.249ZM136.244 131.205C136.085 133.021 135.492 134.473 134.529 135.658C133.554 136.859 132.089 137.92 129.992 138.771L131.226 142.442C133.837 141.383 135.999 139.923 137.569 137.99C139.151 136.041 140.021 133.747 140.244 131.205H136.244ZM129.878 142.518C131.848 143.109 133.123 144.039 133.895 145.216C134.67 146.399 135.058 148.016 134.893 150.219L138.897 150.17C139.108 147.351 138.637 144.859 137.317 142.845C135.993 140.826 133.937 139.474 131.339 138.695L129.878 142.518ZM134.895 150.195L134.873 150.444H138.873L138.895 150.195H134.895ZM134.873 150.444C134.683 152.617 134.068 154.273 133.146 155.528C132.231 156.773 130.903 157.777 129.028 158.49L130.173 162.196C132.716 161.229 134.809 159.742 136.319 157.687C137.82 155.643 138.633 153.189 138.873 150.444H134.873ZM129.024 158.492C125.968 159.661 122.252 160.281 117.825 160.281L117.476 164.266C122.257 164.266 126.508 163.599 130.177 162.195L129.024 158.492ZM117.825 160.281C117.046 160.281 116.247 160.261 115.427 160.221L114.884 164.201C115.766 164.244 116.63 164.266 117.476 164.266L117.825 160.281ZM115.43 160.221C114.631 160.181 113.8 160.121 112.937 160.041L112.22 164.008C113.134 164.094 114.022 164.158 114.882 164.201L115.43 160.221ZM119.428 143.74L118.339 155.476L122.337 155.498L123.426 143.761L119.428 143.74ZM119.983 157.471C120.264 157.497 120.543 157.511 120.817 157.511L121.166 153.526C121.024 153.526 120.866 153.519 120.693 153.503L119.983 157.471ZM120.817 157.511H121.411L121.76 153.526H121.166L120.817 157.511ZM121.411 157.511C125.364 157.511 128.88 156.526 130.729 153.605L127.381 151.703C126.812 152.601 125.349 153.526 121.76 153.526L121.411 157.511ZM130.757 153.56C131.506 152.31 131.98 151.005 132.097 149.665H128.097C128.044 150.277 127.823 150.964 127.352 151.749L130.757 153.56ZM132.097 149.665C132.223 148.224 131.942 146.849 131.318 145.564L127.672 147.541C128.036 148.29 128.156 148.99 128.097 149.665H132.097ZM131.285 145.5C129.786 142.71 126.38 141.758 122.32 141.758L121.972 145.743C125.703 145.743 127.197 146.659 127.704 147.605L131.285 145.5ZM122.32 141.758H121.602L121.253 145.743H121.972L122.32 141.758Z" fill="#1F1F1F" mask="url(#path-16-outside-1_78_47)"/>
<mask id="path-18-outside-2_78_47" maskUnits="userSpaceOnUse" x="49.5092" y="55.9581" width="92.5321" height="51.8021" fill="black">
<rect fill="white" x="49.5092" y="55.9581" width="92.5321" height="51.8021"/>
<path d="M64.8848 98.1096C64.9246 98.1304 64.9966 98.1408 65.1008 98.1408C67.8716 98.1408 69.5852 96.771 70.2416 94.0315L70.2906 93.4711C70.5321 90.7108 68.2373 88.1269 63.4063 85.7195C58.1051 83.2082 55.6295 79.3583 55.9792 74.1698C55.9675 74.0661 55.9707 73.9104 55.9888 73.7029C56.4192 68.7841 58.0526 65.2352 60.8891 63.056C63.4157 61.0844 66.2415 60.0986 69.3665 60.0986H70.054C70.2832 60.0986 70.5115 60.109 70.7388 60.1297C74.9988 60.2542 78.0388 61.5825 79.8589 64.1145L76.8509 70.2784C75.3223 68.7011 73.283 67.8398 70.7332 67.6946C67.5666 67.6946 65.5628 68.4521 64.7219 69.9671C64.1556 70.9633 63.8307 71.9388 63.7471 72.8935C63.6709 73.7651 63.7794 74.6679 64.0727 75.6019C64.6049 77.615 66.8536 79.5348 70.8188 81.3611C74.7858 83.1667 77.1137 85.4912 77.8025 88.3345C78.1971 90.0155 78.3254 91.6447 78.1874 93.2221C78.0893 94.3428 77.8436 95.4842 77.4503 96.6465C76.5457 99.3653 74.8805 101.493 72.4544 103.028C70.0057 104.585 66.9897 105.363 63.4064 105.363C63.3022 105.363 63.2302 105.353 63.1904 105.332C58.694 105.291 55.2486 104.191 52.8541 102.032L56.6666 95.2456C59.3157 97.1134 62.0551 98.0681 64.8848 98.1096ZM109.963 59.5071L109.803 66.6984L102.109 67.1342L99.0073 104.367L90.6839 104.492C91.3372 98.9294 91.9289 93.5956 92.4589 88.4901C93.0097 83.3846 93.4957 78.4244 93.917 73.6095L94.1948 70.4341C94.2856 69.3964 94.3669 68.3483 94.4386 67.2899L85.6329 67.57L86.2539 60.4721L109.963 59.5071ZM125.431 103.962H125.306C116.268 103.921 112.355 96.9785 113.566 83.1356L113.71 81.4856C115.327 66.5842 121.137 58.9882 131.142 58.6977H131.173C134.465 58.6977 137.133 59.7458 139.179 61.8419L136.063 68.8775C134.869 67.5285 133.095 66.854 130.741 66.854C128.949 66.854 127.413 67.2587 126.134 68.0681C124.436 69.6247 123.194 72.1463 122.41 75.633C122.23 76.5047 122.066 77.4178 121.92 78.3725C121.776 79.3065 121.657 80.313 121.562 81.3922C121.464 82.513 121.394 83.6752 121.351 84.8789C121.308 86.0827 121.281 87.3487 121.269 88.6769C121.548 93.3466 123.376 95.7852 126.754 95.9927C129.316 95.9927 131.612 95.3493 133.641 94.0626L135.687 101.036C133.308 102.987 129.89 103.962 125.431 103.962Z"/>
</mask>
<path d="M64.8848 98.1096C64.9246 98.1304 64.9966 98.1408 65.1008 98.1408C67.8716 98.1408 69.5852 96.771 70.2416 94.0315L70.2906 93.4711C70.5321 90.7108 68.2373 88.1269 63.4063 85.7195C58.1051 83.2082 55.6295 79.3583 55.9792 74.1698C55.9675 74.0661 55.9707 73.9104 55.9888 73.7029C56.4192 68.7841 58.0526 65.2352 60.8891 63.056C63.4157 61.0844 66.2415 60.0986 69.3665 60.0986H70.054C70.2832 60.0986 70.5115 60.109 70.7388 60.1297C74.9988 60.2542 78.0388 61.5825 79.8589 64.1145L76.8509 70.2784C75.3223 68.7011 73.283 67.8398 70.7332 67.6946C67.5666 67.6946 65.5628 68.4521 64.7219 69.9671C64.1556 70.9633 63.8307 71.9388 63.7471 72.8935C63.6709 73.7651 63.7794 74.6679 64.0727 75.6019C64.6049 77.615 66.8536 79.5348 70.8188 81.3611C74.7858 83.1667 77.1137 85.4912 77.8025 88.3345C78.1971 90.0155 78.3254 91.6447 78.1874 93.2221C78.0893 94.3428 77.8436 95.4842 77.4503 96.6465C76.5457 99.3653 74.8805 101.493 72.4544 103.028C70.0057 104.585 66.9897 105.363 63.4064 105.363C63.3022 105.363 63.2302 105.353 63.1904 105.332C58.694 105.291 55.2486 104.191 52.8541 102.032L56.6666 95.2456C59.3157 97.1134 62.0551 98.0681 64.8848 98.1096ZM109.963 59.5071L109.803 66.6984L102.109 67.1342L99.0073 104.367L90.6839 104.492C91.3372 98.9294 91.9289 93.5956 92.4589 88.4901C93.0097 83.3846 93.4957 78.4244 93.917 73.6095L94.1948 70.4341C94.2856 69.3964 94.3669 68.3483 94.4386 67.2899L85.6329 67.57L86.2539 60.4721L109.963 59.5071ZM125.431 103.962H125.306C116.268 103.921 112.355 96.9785 113.566 83.1356L113.71 81.4856C115.327 66.5842 121.137 58.9882 131.142 58.6977H131.173C134.465 58.6977 137.133 59.7458 139.179 61.8419L136.063 68.8775C134.869 67.5285 133.095 66.854 130.741 66.854C128.949 66.854 127.413 67.2587 126.134 68.0681C124.436 69.6247 123.194 72.1463 122.41 75.633C122.23 76.5047 122.066 77.4178 121.92 78.3725C121.776 79.3065 121.657 80.313 121.562 81.3922C121.464 82.513 121.394 83.6752 121.351 84.8789C121.308 86.0827 121.281 87.3487 121.269 88.6769C121.548 93.3466 123.376 95.7852 126.754 95.9927C129.316 95.9927 131.612 95.3493 133.641 94.0626L135.687 101.036C133.308 102.987 129.89 103.962 125.431 103.962Z" fill="#B986E3"/>
<path d="M64.8848 98.1096L65.9351 96.3276L65.5445 96.1241L65.0885 96.1175L64.8848 98.1096ZM70.2416 94.0315L72.1929 94.3299L72.2284 94.1815L72.2416 94.0315H70.2416ZM63.4063 85.7195L64.4279 83.9228L64.4118 83.9148L64.3955 83.9071L63.4063 85.7195ZM55.9792 74.1698L57.9823 74.13L57.9942 73.9528L57.9746 73.7791L55.9792 74.1698ZM60.8891 63.056L62.0291 64.5916L62.0359 64.5864L62.0426 64.5811L60.8891 63.056ZM70.7388 60.1297L70.3842 62.1139L70.4448 62.1195L70.5061 62.1212L70.7388 60.1297ZM79.8589 64.1145L81.652 64.8528L82.1789 63.7731L81.5274 62.8667L79.8589 64.1145ZM76.8509 70.2784L75.347 71.7229L77.3106 73.749L78.6439 71.0168L76.8509 70.2784ZM70.7332 67.6946L71.0209 65.7054L70.9644 65.7022H70.9075L70.7332 67.6946ZM64.7219 69.9671L66.4502 70.8281L66.4558 70.8182L66.4613 70.8083L64.7219 69.9671ZM64.0727 75.6019L66.0178 74.9428L66.007 74.902L65.9944 74.8619L64.0727 75.6019ZM70.8188 81.3611L69.8472 83.1818L69.8547 83.1852L70.8188 81.3611ZM77.8025 88.3345L79.7601 87.7255L79.757 87.7127L77.8025 88.3345ZM77.4503 96.6465L75.5522 96.1632L75.5488 96.1737L77.4503 96.6465ZM72.4544 103.028L71.4827 101.375L71.4791 101.377L72.4544 103.028ZM63.1904 105.332L64.2407 103.55L63.8452 103.344L63.3832 103.34L63.1904 105.332ZM52.8541 102.032L51.1202 101.181L50.3394 102.571L51.4353 103.559L52.8541 102.032ZM56.6666 95.2456L57.921 93.5878L56.1051 92.3074L54.9327 94.3944L56.6666 95.2456ZM63.8344 99.8917C64.3103 100.139 64.8048 100.133 64.9265 100.133L65.2751 96.1484C65.2823 96.1484 65.3384 96.1483 65.4241 96.1606C65.4687 96.1671 65.5351 96.1788 65.6151 96.2011C65.6931 96.2228 65.8066 96.2607 65.9351 96.3276L63.8344 99.8917ZM64.9265 100.133C66.6374 100.133 68.2819 99.7065 69.6386 98.622C70.9942 97.5384 71.7887 96.0168 72.1929 94.3299L68.2902 93.733C68.038 94.7857 67.6476 95.3187 67.2896 95.6049C66.9327 95.8902 66.335 96.1484 65.2751 96.1484L64.9265 100.133ZM72.2416 94.0315L72.2906 93.4711H68.2906L68.2416 94.0315H72.2416ZM72.2906 93.4711C72.4693 91.4286 71.6795 89.6205 70.3063 88.0744C68.9508 86.5481 66.9482 85.1788 64.4279 83.9228L62.3846 87.5161C64.6953 88.6676 66.2556 89.794 67.1949 90.8516C68.1165 91.8893 68.3534 92.7533 68.2906 93.4711H72.2906ZM64.3955 83.9071C61.966 82.7561 60.311 81.3589 59.2933 79.7762C58.2866 78.2107 57.8323 76.3551 57.9823 74.13L53.9761 74.2097C53.7764 77.1731 54.385 79.8366 55.854 82.121C57.312 84.3883 59.5454 86.1715 62.417 87.5319L64.3955 83.9071ZM57.9746 73.7791C57.9785 73.814 57.9795 73.8373 57.9797 73.8449C57.98 73.8532 57.9798 73.8531 57.98 73.8427C57.9804 73.8206 57.9824 73.7759 57.9888 73.7029H53.9888C53.9679 73.9419 53.9496 74.2577 53.9839 74.5606L57.9746 73.7791ZM57.9888 73.7029C58.3908 69.1084 59.8722 66.2487 62.0291 64.5916L59.749 61.5205C56.233 64.2217 54.4475 68.4599 53.9888 73.7029H57.9888ZM62.0426 64.5811C64.1757 62.9166 66.5298 62.091 69.1922 62.091L69.5409 58.1062C65.9533 58.1062 62.6557 59.2522 59.7355 61.531L62.0426 64.5811ZM69.1922 62.091H69.8797L70.2284 58.1062H69.5409L69.1922 62.091ZM69.8797 62.091C70.0482 62.091 70.2163 62.0986 70.3842 62.1139L71.0935 58.1455C70.8067 58.1193 70.5182 58.1062 70.2284 58.1062L69.8797 62.091ZM70.5061 62.1212C74.3756 62.2344 76.7921 63.4169 78.1905 65.3622L81.5274 62.8667C79.2855 59.7481 75.622 58.2741 70.9716 58.1382L70.5061 62.1212ZM78.0659 63.3761L75.0579 69.5401L78.6439 71.0168L81.652 64.8528L78.0659 63.3761ZM78.3548 68.834C76.4742 66.8935 73.9826 65.8741 71.0209 65.7054L70.4456 69.6837C72.5835 69.8055 74.1703 70.5087 75.347 71.7229L78.3548 68.834ZM70.9075 65.7022C67.6638 65.7022 64.4715 66.4432 62.9825 69.1259L66.4613 70.8083C66.6541 70.4609 67.4693 69.687 70.5589 69.687L70.9075 65.7022ZM62.9936 69.1062C62.2984 70.329 61.8605 71.5973 61.7471 72.8935H65.7471C65.8008 72.2802 66.0127 71.5977 66.4502 70.8281L62.9936 69.1062ZM61.7471 72.8935C61.6456 74.0545 61.795 75.2083 62.151 76.3418L65.9944 74.8619C65.7637 74.1275 65.6962 73.4757 65.7471 72.8935H61.7471ZM62.1276 76.2609C62.5199 77.7448 63.492 79.0139 64.7752 80.1093C66.0658 81.2112 67.7771 82.2283 69.8473 83.1818L71.7904 79.5404C69.8953 78.6676 68.4996 77.8117 67.5416 76.9938C66.576 76.1694 66.1577 75.472 66.0178 74.9428L62.1276 76.2609ZM69.8547 83.1852C73.5729 84.8775 75.343 86.8716 75.848 88.9562L79.757 87.7127C78.8845 84.1108 75.9988 81.4559 71.7829 79.537L69.8547 83.1852ZM75.8449 88.9434C76.1987 90.4509 76.3053 91.8745 76.1874 93.2221H80.1874C80.3455 91.415 80.1954 89.5802 79.7601 87.7255L75.8449 88.9434ZM76.1874 93.2221C76.1045 94.1691 75.8958 95.1482 75.5523 96.1632L79.3483 97.1297C79.7914 95.8203 80.0741 94.5165 80.1874 93.2221H76.1874ZM75.5488 96.1737C74.8016 98.4193 73.4627 100.122 71.4827 101.375L73.4262 104.681C76.2982 102.863 78.2898 100.311 79.3518 97.1193L75.5488 96.1737ZM71.4791 101.377C69.4679 102.656 66.8776 103.371 63.5807 103.371L63.2321 107.356C67.1018 107.356 70.5436 106.514 73.4297 104.679L71.4791 101.377ZM63.5807 103.371C63.5879 103.371 63.644 103.371 63.7297 103.383C63.7744 103.389 63.8407 103.401 63.9207 103.423C63.9988 103.445 64.1123 103.483 64.2407 103.55L62.14 107.114C62.6159 107.362 63.1104 107.356 63.2321 107.356L63.5807 103.371ZM63.3832 103.34C59.1944 103.301 56.2422 102.281 54.2729 100.506L51.4353 103.559C54.255 106.1 58.1936 107.28 62.9976 107.324L63.3832 103.34ZM54.5879 102.883L58.4004 96.0967L54.9327 94.3944L51.1202 101.181L54.5879 102.883ZM55.4121 96.9033C58.3039 98.9423 61.3983 100.054 64.6811 100.102L65.0885 96.1175C62.7119 96.0826 60.3275 95.2846 57.921 93.5878L55.4121 96.9033ZM109.963 59.5071L111.97 59.378L112.014 57.4367L110.056 57.5164L109.963 59.5071ZM109.803 66.6984L109.743 68.6875L111.765 68.573L111.81 66.5693L109.803 66.6984ZM102.109 67.1342L102.168 65.1451L100.265 65.2529L100.108 67.1425L102.109 67.1342ZM99.0073 104.367L98.8631 106.359L100.844 106.33L101.008 104.359L99.0073 104.367ZM90.6839 104.492L88.69 104.432L88.4454 106.515L90.5397 106.484L90.6839 104.492ZM92.4589 88.4901L90.4628 88.4496L90.462 88.4577L92.4589 88.4901ZM94.4386 67.2899L96.4417 67.2508L96.5784 65.2339L94.5488 65.2985L94.4386 67.2899ZM85.6329 67.57H83.6329L83.4529 69.6273L85.5227 69.5614L85.6329 67.57ZM86.2539 60.4721L86.3461 58.4814L84.4212 58.5598L84.2539 60.4721H86.2539ZM107.956 59.6362L107.796 66.8275L111.81 66.5693L111.97 59.378L107.956 59.6362ZM109.863 64.7092L102.168 65.1451L102.049 69.1233L109.743 68.6875L109.863 64.7092ZM100.108 67.1425L97.0066 104.375L101.008 104.359L104.109 67.1259L100.108 67.1425ZM99.1515 102.375L90.8281 102.499L90.5397 106.484L98.8631 106.359L99.1515 102.375ZM92.6778 104.551C93.3321 98.9806 93.9247 93.6378 94.4558 88.5225L90.462 88.4577C89.933 93.5535 89.3423 98.8782 88.69 104.432L92.6778 104.551ZM94.4549 88.5306C95.0071 83.4124 95.4945 78.4387 95.917 73.6095H91.917C91.497 78.4101 91.0123 83.3568 90.4628 88.4496L94.4549 88.5306ZM95.917 73.6095L96.1948 70.4341H92.1948L91.917 73.6095H95.917ZM96.1948 70.4341C96.2868 69.3831 96.369 68.322 96.4417 67.2508L92.4356 67.3289C92.3647 68.3746 92.2844 69.4097 92.1948 70.4341H96.1948ZM94.5488 65.2985L85.7431 65.5787L85.5227 69.5614L94.3284 69.2812L94.5488 65.2985ZM87.6329 67.57L88.2539 60.4721H84.2539L83.6329 67.57H87.6329ZM86.1616 62.4629L109.871 61.4978L110.056 57.5164L86.3461 58.4814L86.1616 62.4629ZM125.306 103.962L125.123 105.955H125.132L125.306 103.962ZM113.71 81.4856L111.714 81.444L111.712 81.4648L111.71 81.4856H113.71ZM131.142 58.6977L131.316 56.7053H131.287L131.257 56.7061L131.142 58.6977ZM139.179 61.8419L141.006 62.5068L141.548 61.2837L140.679 60.393L139.179 61.8419ZM136.063 68.8775L134.506 70.2642L136.549 72.5717L137.891 69.5424L136.063 68.8775ZM126.134 68.0681L125.163 66.4148L124.993 66.5226L124.843 66.6593L126.134 68.0681ZM122.41 75.633L120.452 75.3627L120.448 75.3801L120.445 75.3975L122.41 75.633ZM121.92 78.3725L123.904 78.5051L123.905 78.5022L121.92 78.3725ZM121.269 88.6769L119.261 88.8321L119.261 88.8993L119.265 88.966L121.269 88.6769ZM126.754 95.9927L126.457 97.9814L126.518 97.9851H126.579L126.754 95.9927ZM133.641 94.0626L135.573 93.3557L134.883 91.0056L132.668 92.4104L133.641 94.0626ZM135.687 101.036L136.884 102.527L137.996 101.614L137.619 100.329L135.687 101.036ZM125.606 101.97H125.481L125.132 105.955H125.257L125.606 101.97ZM125.49 101.97C121.574 101.952 118.973 100.491 117.366 97.6401C115.676 94.6429 114.974 89.9039 115.566 83.1356H111.566C110.947 90.2102 111.596 95.8639 113.82 99.8088C116.127 103.9 120.001 105.931 125.123 105.955L125.49 101.97ZM115.566 83.1356L115.71 81.4856H111.71L111.566 83.1356H115.566ZM115.706 81.5272C116.496 74.2424 118.287 69.066 120.841 65.7271C123.3 62.5118 126.605 60.8176 131.026 60.6892L131.257 56.7061C125.674 56.8683 121.071 59.1174 117.72 63.4981C114.464 67.7552 112.541 73.8275 111.714 81.444L115.706 81.5272ZM130.967 60.6901H130.999L131.347 56.7053H131.316L130.967 60.6901ZM130.999 60.6901C133.821 60.6901 136.001 61.571 137.679 63.2908L140.679 60.393C138.266 57.9206 135.108 56.7053 131.347 56.7053L130.999 60.6901ZM137.352 61.1771L134.236 68.2127L137.891 69.5424L141.006 62.5068L137.352 61.1771ZM137.621 67.4909C136.003 65.6633 133.668 64.8616 130.915 64.8616L130.566 68.8464C132.522 68.8464 133.735 69.3938 134.506 70.2642L137.621 67.4909ZM130.915 64.8616C128.818 64.8616 126.864 65.3381 125.163 66.4148L127.106 69.7215C127.962 69.1794 129.08 68.8464 130.566 68.8464L130.915 64.8616ZM124.843 66.6593C122.661 68.6591 121.279 71.6844 120.452 75.3627L124.368 75.9032C125.109 72.6082 126.21 70.5903 127.425 69.477L124.843 66.6593ZM120.445 75.3975C120.256 76.3073 120.087 77.2559 119.936 78.2429L123.905 78.5022C124.046 77.5798 124.203 76.702 124.375 75.8685L120.445 75.3975ZM119.936 78.24C119.784 79.2241 119.66 80.2753 119.562 81.3922H123.562C123.653 80.3507 123.768 79.3888 123.904 78.5051L119.936 78.24ZM119.562 81.3922C119.461 82.5497 119.389 83.7464 119.345 84.9818L123.357 84.776C123.399 83.604 123.468 82.4762 123.562 81.3922H119.562ZM119.345 84.9818C119.301 86.2047 119.273 87.4882 119.261 88.8321L123.276 88.5217C123.288 87.2091 123.315 85.9606 123.357 84.776L119.345 84.9818ZM119.265 88.966C119.416 91.4992 119.997 93.6776 121.202 95.2842C122.455 96.9554 124.263 97.8465 126.457 97.9814L127.05 94.0041C125.867 93.9314 125.072 93.4994 124.497 92.732C123.873 91.9 123.401 90.5243 123.273 88.3878L119.265 88.966ZM126.579 97.9851C129.495 97.9851 132.198 97.2471 134.614 95.7148L132.668 92.4104C131.026 93.4516 129.137 94.0003 126.928 94.0003L126.579 97.9851ZM131.71 94.7695L133.756 101.743L137.619 100.329L135.573 93.3557L131.71 94.7695ZM134.491 99.5453C132.665 101.043 129.817 101.97 125.606 101.97L125.257 105.955C129.963 105.955 133.952 104.931 136.884 102.527L134.491 99.5453Z" fill="#1F1F1F" mask="url(#path-18-outside-2_78_47)"/>
<defs>
<filter id="filter0_d_78_47" x="0.653442" y="8.49998" width="192.725" height="238.938" filterUnits="userSpaceOnUse" color-interpolation-filters="sRGB">
<feFlood flood-opacity="0" result="BackgroundImageFix"/>
<feColorMatrix in="SourceAlpha" type="matrix" values="0 0 0 0 0 0 0 0 0 0 0 0 0 0 0 0 0 0 127 0" result="hardAlpha"/>
<feOffset dx="-3" dy="3"/>
<feGaussianBlur stdDeviation="1.5"/>
<feComposite in2="hardAlpha" operator="out"/>
<feColorMatrix type="matrix" values="0 0 0 0 0 0 0 0 0 0 0 0 0 0 0 0 0 0 0.44 0"/>
<feBlend mode="normal" in2="BackgroundImageFix" result="effect1_dropShadow_78_47"/>
<feBlend mode="normal" in="SourceGraphic" in2="effect1_dropShadow_78_47" result="shape"/>
</filter>
<filter id="filter1_d_78_47" x="118.813" y="78.0054" width="141.483" height="169.495" filterUnits="userSpaceOnUse" color-interpolation-filters="sRGB">
<feFlood flood-opacity="0" result="BackgroundImageFix"/>
<feColorMatrix in="SourceAlpha" type="matrix" values="0 0 0 0 0 0 0 0 0 0 0 0 0 0 0 0 0 0 127 0" result="hardAlpha"/>
<feOffset dx="-3" dy="3"/>
<feGaussianBlur stdDeviation="1.5"/>
<feComposite in2="hardAlpha" operator="out"/>
<feColorMatrix type="matrix" values="0 0 0 0 0 0 0 0 0 0 0 0 0 0 0 0 0 0 0.44 0"/>
<feBlend mode="normal" in2="BackgroundImageFix" result="effect1_dropShadow_78_47"/>
<feBlend mode="normal" in="SourceGraphic" in2="effect1_dropShadow_78_47" result="shape"/>
</filter>
<linearGradient id="paint0_linear_78_47" x1="258" y1="80" x2="177.57" y2="206.694" gradientUnits="userSpaceOnUse">
<stop offset="0.259375" stop-color="#23D16C"/>
<stop offset="0.738541" stop-color="#B986E3"/>
</linearGradient>
</defs>
</svg>
